%TF.GenerationSoftware,KiCad,Pcbnew,5.0.2-bee76a0~70~ubuntu16.04.1*%
%TF.CreationDate,2019-05-23T19:14:39-07:00*%
%TF.ProjectId,vfd_driver,7666645f-6472-4697-9665-722e6b696361,rev?*%
%TF.SameCoordinates,Original*%
%TF.FileFunction,Copper,L2,Bot*%
%TF.FilePolarity,Positive*%
%FSLAX46Y46*%
G04 Gerber Fmt 4.6, Leading zero omitted, Abs format (unit mm)*
G04 Created by KiCad (PCBNEW 5.0.2-bee76a0~70~ubuntu16.04.1) date Thu 23 May 2019 07:14:39 PM PDT*
%MOMM*%
%LPD*%
G01*
G04 APERTURE LIST*
%ADD10C,1.600000*%
%ADD11R,3.500000X3.500000*%
%ADD12R,1.700000X1.700000*%
%ADD13O,1.700000X1.700000*%
%ADD14R,2.400000X1.600000*%
%ADD15O,2.400000X1.600000*%
%ADD16R,1.800000X1.800000*%
%ADD17O,1.800000X1.800000*%
%ADD18O,1.524000X1.524000*%
%ADD19C,1.524000*%
%ADD20R,1.600000X1.600000*%
%ADD21O,1.600000X1.600000*%
%ADD22C,0.450000*%
%ADD23C,0.635000*%
%ADD24C,0.203200*%
%ADD25C,0.254000*%
G04 APERTURE END LIST*
D10*
X56365000Y-50800000D03*
X61365000Y-50800000D03*
X56365000Y-78740000D03*
X61365000Y-78740000D03*
X56365000Y-106680000D03*
X61365000Y-106680000D03*
X57000000Y-134620000D03*
X62000000Y-134620000D03*
D11*
X77955000Y-44450000D03*
X77955000Y-38450000D03*
X73255000Y-41450000D03*
D12*
X57000000Y-39370000D03*
D13*
X59540000Y-39370000D03*
X62080000Y-39370000D03*
X64620000Y-39370000D03*
D14*
X76200000Y-137160000D03*
D15*
X68580000Y-157480000D03*
X76200000Y-139700000D03*
X68580000Y-154940000D03*
X76200000Y-142240000D03*
X68580000Y-152400000D03*
X76200000Y-144780000D03*
X68580000Y-149860000D03*
X76200000Y-147320000D03*
X68580000Y-147320000D03*
X76200000Y-149860000D03*
X68580000Y-144780000D03*
X76200000Y-152400000D03*
X68580000Y-142240000D03*
X76200000Y-154940000D03*
X68580000Y-139700000D03*
X76200000Y-157480000D03*
X68580000Y-137160000D03*
D14*
X76200000Y-53340000D03*
D15*
X68580000Y-73660000D03*
X76200000Y-55880000D03*
X68580000Y-71120000D03*
X76200000Y-58420000D03*
X68580000Y-68580000D03*
X76200000Y-60960000D03*
X68580000Y-66040000D03*
X76200000Y-63500000D03*
X68580000Y-63500000D03*
X76200000Y-66040000D03*
X68580000Y-60960000D03*
X76200000Y-68580000D03*
X68580000Y-58420000D03*
X76200000Y-71120000D03*
X68580000Y-55880000D03*
X76200000Y-73660000D03*
X68580000Y-53340000D03*
D14*
X76200000Y-81280000D03*
D15*
X68580000Y-101600000D03*
X76200000Y-83820000D03*
X68580000Y-99060000D03*
X76200000Y-86360000D03*
X68580000Y-96520000D03*
X76200000Y-88900000D03*
X68580000Y-93980000D03*
X76200000Y-91440000D03*
X68580000Y-91440000D03*
X76200000Y-93980000D03*
X68580000Y-88900000D03*
X76200000Y-96520000D03*
X68580000Y-86360000D03*
X76200000Y-99060000D03*
X68580000Y-83820000D03*
X76200000Y-101600000D03*
X68580000Y-81280000D03*
D14*
X76200000Y-109220000D03*
D15*
X68580000Y-129540000D03*
X76200000Y-111760000D03*
X68580000Y-127000000D03*
X76200000Y-114300000D03*
X68580000Y-124460000D03*
X76200000Y-116840000D03*
X68580000Y-121920000D03*
X76200000Y-119380000D03*
X68580000Y-119380000D03*
X76200000Y-121920000D03*
X68580000Y-116840000D03*
X76200000Y-124460000D03*
X68580000Y-114300000D03*
X76200000Y-127000000D03*
X68580000Y-111760000D03*
X76200000Y-129540000D03*
X68580000Y-109220000D03*
D16*
X60810000Y-170815000D03*
D17*
X60810000Y-168275000D03*
X60810000Y-165735000D03*
D18*
X81280000Y-143510000D03*
D19*
X81280000Y-138430000D03*
X81280000Y-135890000D03*
X81280000Y-133350000D03*
X81280000Y-130810000D03*
X81280000Y-128270000D03*
X81280000Y-125730000D03*
X81280000Y-123190000D03*
X81280000Y-120650000D03*
X81280000Y-118110000D03*
X81280000Y-115570000D03*
X81280000Y-113030000D03*
X81280000Y-110490000D03*
X81280000Y-107950000D03*
X81280000Y-105410000D03*
X81280000Y-102870000D03*
X81280000Y-95250000D03*
X81280000Y-92710000D03*
X81280000Y-90170000D03*
X81280000Y-87630000D03*
X81280000Y-85090000D03*
X81280000Y-82550000D03*
X81280000Y-80010000D03*
X81280000Y-77470000D03*
X81280000Y-74930000D03*
X81280000Y-72390000D03*
X81280000Y-69850000D03*
X81280000Y-67310000D03*
X81280000Y-62230000D03*
D20*
X87480000Y-81915000D03*
D21*
X87480000Y-79375000D03*
X87480000Y-76835000D03*
X87480000Y-74295000D03*
X87480000Y-71755000D03*
X87480000Y-69215000D03*
X87480000Y-66675000D03*
X87480000Y-64135000D03*
D20*
X87630000Y-104140000D03*
D21*
X87630000Y-101600000D03*
X87630000Y-99060000D03*
X87630000Y-96520000D03*
X87630000Y-93980000D03*
X87630000Y-91440000D03*
X87630000Y-88900000D03*
X87630000Y-86360000D03*
D20*
X87480000Y-126365000D03*
D21*
X87480000Y-123825000D03*
X87480000Y-121285000D03*
X87480000Y-118745000D03*
X87480000Y-116205000D03*
X87480000Y-113665000D03*
X87480000Y-111125000D03*
X87480000Y-108585000D03*
D20*
X87480000Y-148590000D03*
D21*
X87480000Y-146050000D03*
X87480000Y-143510000D03*
X87480000Y-140970000D03*
X87480000Y-138430000D03*
X87480000Y-135890000D03*
X87480000Y-133350000D03*
X87480000Y-130810000D03*
D15*
X55730000Y-139700000D03*
X63350000Y-157480000D03*
X55730000Y-142240000D03*
X63350000Y-154940000D03*
X55730000Y-144780000D03*
X63350000Y-152400000D03*
X55730000Y-147320000D03*
X63350000Y-149860000D03*
X55730000Y-149860000D03*
X63350000Y-147320000D03*
X55730000Y-152400000D03*
X63350000Y-144780000D03*
X55730000Y-154940000D03*
X63350000Y-142240000D03*
X55730000Y-157480000D03*
D14*
X63350000Y-139700000D03*
X62715000Y-55880000D03*
D15*
X55095000Y-73660000D03*
X62715000Y-58420000D03*
X55095000Y-71120000D03*
X62715000Y-60960000D03*
X55095000Y-68580000D03*
X62715000Y-63500000D03*
X55095000Y-66040000D03*
X62715000Y-66040000D03*
X55095000Y-63500000D03*
X62715000Y-68580000D03*
X55095000Y-60960000D03*
X62715000Y-71120000D03*
X55095000Y-58420000D03*
X62715000Y-73660000D03*
X55095000Y-55880000D03*
X55095000Y-83820000D03*
X62715000Y-101600000D03*
X55095000Y-86360000D03*
X62715000Y-99060000D03*
X55095000Y-88900000D03*
X62715000Y-96520000D03*
X55095000Y-91440000D03*
X62715000Y-93980000D03*
X55095000Y-93980000D03*
X62715000Y-91440000D03*
X55095000Y-96520000D03*
X62715000Y-88900000D03*
X55095000Y-99060000D03*
X62715000Y-86360000D03*
X55095000Y-101600000D03*
D14*
X62715000Y-83820000D03*
X62715000Y-111760000D03*
D15*
X55095000Y-129540000D03*
X62715000Y-114300000D03*
X55095000Y-127000000D03*
X62715000Y-116840000D03*
X55095000Y-124460000D03*
X62715000Y-119380000D03*
X55095000Y-121920000D03*
X62715000Y-121920000D03*
X55095000Y-119380000D03*
X62715000Y-124460000D03*
X55095000Y-116840000D03*
X62715000Y-127000000D03*
X55095000Y-114300000D03*
X62715000Y-129540000D03*
X55095000Y-111760000D03*
D22*
X73510000Y-101346000D03*
X73510016Y-102869984D03*
D23*
X77955000Y-44450000D02*
X77955000Y-46721000D01*
X87480000Y-81915000D02*
X88809100Y-80585900D01*
X88809100Y-80585900D02*
X88809100Y-57575100D01*
X88809100Y-57575100D02*
X77955000Y-46721000D01*
X87480000Y-126365000D02*
X87480000Y-127025500D01*
X70252400Y-165735000D02*
X60810000Y-165735000D01*
X87480000Y-150025000D02*
X71770000Y-165735000D01*
X71770000Y-165735000D02*
X70252400Y-165735000D01*
X87480000Y-148590000D02*
X87480000Y-150025000D01*
X89258000Y-146812000D02*
X87480000Y-148590000D01*
X89258000Y-129464000D02*
X89258000Y-146812000D01*
X87480000Y-127686000D02*
X89258000Y-129464000D01*
X87480000Y-127025500D02*
X87480000Y-127686000D01*
X89258000Y-107089000D02*
X87630000Y-105461000D01*
X89258000Y-125247500D02*
X89258000Y-107089000D01*
X87630000Y-105461000D02*
X87630000Y-104140000D01*
X87480000Y-127025500D02*
X89258000Y-125247500D01*
D24*
X55095000Y-93980000D02*
X53691600Y-93980000D01*
X53691600Y-93980000D02*
X53590000Y-93980000D01*
X55095000Y-121920000D02*
X53589900Y-121920000D01*
X55095000Y-66040000D02*
X53589900Y-66040000D01*
X53444000Y-93980000D02*
X53590000Y-93980000D01*
X52936000Y-93472000D02*
X53444000Y-93980000D01*
X52936000Y-66693900D02*
X52936000Y-93472000D01*
X53589900Y-66040000D02*
X52936000Y-66693900D01*
X52936000Y-49669100D02*
X52936000Y-65386100D01*
X52936000Y-65386100D02*
X53589900Y-66040000D01*
X62080000Y-40525100D02*
X52936000Y-49669100D01*
X62080000Y-39370000D02*
X62080000Y-40525100D01*
X52682000Y-121012100D02*
X53589900Y-121920000D01*
X52682000Y-94888000D02*
X52682000Y-121012100D01*
X53590000Y-93980000D02*
X52682000Y-94888000D01*
X53698000Y-149860000D02*
X55730000Y-149860000D01*
X52682000Y-148844000D02*
X53698000Y-149860000D01*
X52682000Y-122827900D02*
X52682000Y-148844000D01*
X53589900Y-121920000D02*
X52682000Y-122827900D01*
X55095000Y-88900000D02*
X54695000Y-88900000D01*
X54695000Y-88900000D02*
X53444000Y-87649000D01*
X55095000Y-74663200D02*
X55095000Y-73660000D01*
X53444000Y-87649000D02*
X53444000Y-76314200D01*
X53444000Y-76314200D02*
X55095000Y-74663200D01*
X74694900Y-58420000D02*
X76200000Y-58420000D01*
X64220100Y-58420000D02*
X65490100Y-57150000D01*
X62715000Y-58420000D02*
X64220100Y-58420000D01*
X73424900Y-57150000D02*
X74694900Y-58420000D01*
X65490100Y-57150000D02*
X73424900Y-57150000D01*
X74694900Y-60960000D02*
X76200000Y-60960000D01*
X62715000Y-60960000D02*
X64220100Y-60960000D01*
X64220100Y-60960000D02*
X65490100Y-62230000D01*
X65490100Y-62230000D02*
X73424900Y-62230000D01*
X73424900Y-62230000D02*
X74694900Y-60960000D01*
X74694900Y-63500000D02*
X76200000Y-63500000D01*
X62715000Y-63500000D02*
X64220100Y-63500000D01*
X65490100Y-64770000D02*
X73424900Y-64770000D01*
X64220100Y-63500000D02*
X65490100Y-64770000D01*
X73424900Y-64770000D02*
X74694900Y-63500000D01*
X74694900Y-66040000D02*
X76200000Y-66040000D01*
X64220100Y-66040000D02*
X65490100Y-67310000D01*
X62715000Y-66040000D02*
X64220100Y-66040000D01*
X65490100Y-67310000D02*
X73424900Y-67310000D01*
X73424900Y-67310000D02*
X74694900Y-66040000D01*
X74694900Y-68580000D02*
X76200000Y-68580000D01*
X62715000Y-68580000D02*
X64220100Y-68580000D01*
X64220100Y-68580000D02*
X65490100Y-69850000D01*
X65490100Y-69850000D02*
X73424900Y-69850000D01*
X73424900Y-69850000D02*
X74694900Y-68580000D01*
X74694900Y-71120000D02*
X76200000Y-71120000D01*
X62715000Y-71120000D02*
X64220100Y-71120000D01*
X64220100Y-71120000D02*
X65490100Y-72390000D01*
X65490100Y-72390000D02*
X73424900Y-72390000D01*
X73424900Y-72390000D02*
X74694900Y-71120000D01*
X56600100Y-58420000D02*
X60410100Y-54610000D01*
X55095000Y-58420000D02*
X56600100Y-58420000D01*
X73424900Y-54610000D02*
X74694900Y-53340000D01*
X74694900Y-53340000D02*
X76200000Y-53340000D01*
X60410100Y-54610000D02*
X73424900Y-54610000D01*
X74694900Y-83820000D02*
X76200000Y-83820000D01*
X62715000Y-83820000D02*
X64220100Y-83820000D01*
X65490100Y-82550000D02*
X73424900Y-82550000D01*
X73424900Y-82550000D02*
X74694900Y-83820000D01*
X64220100Y-83820000D02*
X65490100Y-82550000D01*
X53190000Y-116078000D02*
X53952000Y-116840000D01*
X55095000Y-116840000D02*
X53952000Y-116840000D01*
X53698000Y-101600000D02*
X53190000Y-102108000D01*
X53698000Y-101600000D02*
X55095000Y-101600000D01*
X53190000Y-116078000D02*
X53190000Y-102108000D01*
X74694900Y-86360000D02*
X76200000Y-86360000D01*
X62715000Y-86360000D02*
X64220100Y-86360000D01*
X64220100Y-86360000D02*
X65490100Y-87630000D01*
X73424900Y-87630000D02*
X74694900Y-86360000D01*
X65490100Y-87630000D02*
X73424900Y-87630000D01*
X74694900Y-88900000D02*
X76200000Y-88900000D01*
X62715000Y-88900000D02*
X64220100Y-88900000D01*
X64220100Y-88900000D02*
X65490100Y-90170000D01*
X65490100Y-90170000D02*
X73424900Y-90170000D01*
X73424900Y-90170000D02*
X74694900Y-88900000D01*
X74694900Y-91440000D02*
X76200000Y-91440000D01*
X62715000Y-91440000D02*
X64220100Y-91440000D01*
X64220100Y-91440000D02*
X65490100Y-92710000D01*
X65490100Y-92710000D02*
X73424900Y-92710000D01*
X73424900Y-92710000D02*
X74694900Y-91440000D01*
X74694900Y-93980000D02*
X76200000Y-93980000D01*
X62715000Y-93980000D02*
X64220100Y-93980000D01*
X73424900Y-95250000D02*
X74694900Y-93980000D01*
X64220100Y-93980000D02*
X65490100Y-95250000D01*
X65490100Y-95250000D02*
X73424900Y-95250000D01*
X74694900Y-96520000D02*
X76200000Y-96520000D01*
X62715000Y-96520000D02*
X64220100Y-96520000D01*
X73424900Y-97790000D02*
X74694900Y-96520000D01*
X64220100Y-96520000D02*
X65490100Y-97790000D01*
X65490100Y-97790000D02*
X73424900Y-97790000D01*
X74694900Y-99060000D02*
X76200000Y-99060000D01*
X65490100Y-100330000D02*
X73424900Y-100330000D01*
X73424900Y-100330000D02*
X74694900Y-99060000D01*
X62715000Y-99060000D02*
X64220100Y-99060000D01*
X64220100Y-99060000D02*
X65490100Y-100330000D01*
X74694900Y-81280000D02*
X76200000Y-81280000D01*
X55095000Y-86360000D02*
X56600100Y-86360000D01*
X56600100Y-86360000D02*
X62950100Y-80010000D01*
X62950100Y-80010000D02*
X73424900Y-80010000D01*
X73424900Y-80010000D02*
X74694900Y-81280000D01*
X74694900Y-116840000D02*
X76200000Y-116840000D01*
X62715000Y-116840000D02*
X64220100Y-116840000D01*
X64220100Y-116840000D02*
X65490100Y-118110000D01*
X65490100Y-118110000D02*
X73424900Y-118110000D01*
X73424900Y-118110000D02*
X74694900Y-116840000D01*
X74694900Y-119380000D02*
X76200000Y-119380000D01*
X64220100Y-119380000D02*
X65490100Y-120650000D01*
X62715000Y-119380000D02*
X64220100Y-119380000D01*
X65490100Y-120650000D02*
X73424900Y-120650000D01*
X73424900Y-120650000D02*
X74694900Y-119380000D01*
X74694900Y-121920000D02*
X76200000Y-121920000D01*
X64220100Y-121920000D02*
X65490100Y-123190000D01*
X65490100Y-123190000D02*
X73424900Y-123190000D01*
X62715000Y-121920000D02*
X64220100Y-121920000D01*
X73424900Y-123190000D02*
X74694900Y-121920000D01*
X74694900Y-124460000D02*
X76200000Y-124460000D01*
X62715000Y-124460000D02*
X64220100Y-124460000D01*
X64220100Y-124460000D02*
X65490100Y-125730000D01*
X73424900Y-125730000D02*
X74694900Y-124460000D01*
X65490100Y-125730000D02*
X73424900Y-125730000D01*
X74694900Y-127000000D02*
X76200000Y-127000000D01*
X62715000Y-127000000D02*
X64220100Y-127000000D01*
X73424900Y-128270000D02*
X74694900Y-127000000D01*
X65490100Y-128270000D02*
X73424900Y-128270000D01*
X64220100Y-127000000D02*
X65490100Y-128270000D01*
X74694900Y-109220000D02*
X76200000Y-109220000D01*
X55095000Y-114300000D02*
X56600100Y-114300000D01*
X56600100Y-114300000D02*
X60410100Y-110490000D01*
X73424900Y-110490000D02*
X74694900Y-109220000D01*
X60410100Y-110490000D02*
X73424900Y-110490000D01*
X53952000Y-144780000D02*
X55730000Y-144780000D01*
X53444000Y-144272000D02*
X53952000Y-144780000D01*
X53444000Y-131191000D02*
X53444000Y-144272000D01*
X55095000Y-129540000D02*
X53444000Y-131191000D01*
X76200000Y-136156800D02*
X76200000Y-137160000D01*
X63737200Y-135636000D02*
X75679200Y-135636000D01*
X75679200Y-135636000D02*
X76200000Y-136156800D01*
X57133200Y-142240000D02*
X63737200Y-135636000D01*
X55730000Y-142240000D02*
X57133200Y-142240000D01*
X86374900Y-118745000D02*
X81929900Y-123190000D01*
X81929900Y-123190000D02*
X81280000Y-123190000D01*
X87480000Y-118745000D02*
X86374900Y-118745000D01*
X71355100Y-115570000D02*
X70085100Y-114300000D01*
X70085100Y-114300000D02*
X68580000Y-114300000D01*
X81280000Y-123190000D02*
X78082000Y-119992000D01*
X78082000Y-119992000D02*
X78082000Y-116078000D01*
X78082000Y-116078000D02*
X77574000Y-115570000D01*
X77574000Y-115570000D02*
X71355100Y-115570000D01*
X86374900Y-121285000D02*
X81929900Y-125730000D01*
X81929900Y-125730000D02*
X81280000Y-125730000D01*
X87480000Y-121285000D02*
X86374900Y-121285000D01*
X87480000Y-123825000D02*
X86374900Y-123825000D01*
X86374900Y-123825000D02*
X81929900Y-128270000D01*
X81929900Y-128270000D02*
X81280000Y-128270000D01*
X87480000Y-130810000D02*
X81280000Y-130810000D01*
X87480000Y-135890000D02*
X81280000Y-135890000D01*
X68580000Y-137160000D02*
X70085100Y-137160000D01*
X81280000Y-138430000D02*
X71355100Y-138430000D01*
X71355100Y-138430000D02*
X70085100Y-137160000D01*
X87480000Y-138430000D02*
X81280000Y-138430000D01*
X85441400Y-96520000D02*
X85441400Y-98708600D01*
X85441400Y-98708600D02*
X81280000Y-102870000D01*
X86524900Y-96520000D02*
X85441400Y-96520000D01*
X87630000Y-96520000D02*
X86524900Y-96520000D01*
X80114000Y-91440000D02*
X81526300Y-91440000D01*
X78590000Y-89916000D02*
X80114000Y-91440000D01*
X78590000Y-88646000D02*
X78590000Y-89916000D01*
X68580000Y-88900000D02*
X73510000Y-88900000D01*
X81526300Y-91440000D02*
X85441400Y-95355100D01*
X73510000Y-88900000D02*
X74780000Y-87630000D01*
X85441400Y-95355100D02*
X85441400Y-96520000D01*
X74780000Y-87630000D02*
X77574000Y-87630000D01*
X77574000Y-87630000D02*
X78590000Y-88646000D01*
X87630000Y-99060000D02*
X87630000Y-100165100D01*
X87630000Y-100165100D02*
X87491700Y-100165100D01*
X87491700Y-100165100D02*
X86524900Y-101131900D01*
X86524900Y-101131900D02*
X86524900Y-102705100D01*
X86524900Y-102705100D02*
X81280000Y-107950000D01*
X87480000Y-108585000D02*
X86374900Y-108585000D01*
X86374900Y-108585000D02*
X81929900Y-113030000D01*
X81929900Y-113030000D02*
X81280000Y-113030000D01*
X73510000Y-101346000D02*
X73510000Y-102869968D01*
X73510000Y-102869968D02*
X73510016Y-102869984D01*
X87480000Y-113665000D02*
X86374900Y-113665000D01*
X86374900Y-113665000D02*
X81929900Y-118110000D01*
X81929900Y-118110000D02*
X81280000Y-118110000D01*
X86374900Y-116205000D02*
X81929900Y-120650000D01*
X81929900Y-120650000D02*
X81280000Y-120650000D01*
X87480000Y-116205000D02*
X86374900Y-116205000D01*
X71355100Y-113030000D02*
X70085100Y-111760000D01*
X70085100Y-111760000D02*
X68580000Y-111760000D01*
X81280000Y-120650000D02*
X78531400Y-117901400D01*
X78531400Y-117901400D02*
X78531400Y-114241400D01*
X78531400Y-114241400D02*
X77320000Y-113030000D01*
X77320000Y-113030000D02*
X71355100Y-113030000D01*
X86374900Y-74295000D02*
X83199900Y-77470000D01*
X83199900Y-77470000D02*
X81280000Y-77470000D01*
X87480000Y-74295000D02*
X86374900Y-74295000D01*
X87480000Y-76835000D02*
X86374900Y-76835000D01*
X86374900Y-76835000D02*
X83199900Y-80010000D01*
X83199900Y-80010000D02*
X81280000Y-80010000D01*
X87480000Y-79375000D02*
X86374900Y-79375000D01*
X86374900Y-79375000D02*
X83199900Y-82550000D01*
X83199900Y-82550000D02*
X81280000Y-82550000D01*
X86360000Y-85090000D02*
X87630000Y-86360000D01*
X81280000Y-85090000D02*
X86360000Y-85090000D01*
X86524900Y-91440000D02*
X85254900Y-90170000D01*
X85254900Y-90170000D02*
X81280000Y-90170000D01*
X87630000Y-91440000D02*
X86524900Y-91440000D01*
X70085100Y-83820000D02*
X68580000Y-83820000D01*
X76963900Y-85090000D02*
X71355100Y-85090000D01*
X71355100Y-85090000D02*
X70085100Y-83820000D01*
X81280000Y-90170000D02*
X80202370Y-90170000D01*
X79503900Y-89471530D02*
X79503900Y-87630000D01*
X80202370Y-90170000D02*
X79503900Y-89471530D01*
X79503900Y-87630000D02*
X76963900Y-85090000D01*
X81280000Y-69850000D02*
X82380800Y-69850000D01*
X82380800Y-69850000D02*
X85555800Y-66675000D01*
X86374900Y-66675000D02*
X85555800Y-66675000D01*
X87480000Y-66675000D02*
X86374900Y-66675000D01*
X73666900Y-55880000D02*
X68580000Y-55880000D01*
X85555800Y-66675000D02*
X85555800Y-64115800D01*
X85555800Y-64115800D02*
X78590000Y-57150000D01*
X78590000Y-57150000D02*
X74936900Y-57150000D01*
X74936900Y-57150000D02*
X73666900Y-55880000D01*
X86083000Y-69215000D02*
X86374900Y-69215000D01*
X81280000Y-72390000D02*
X82908000Y-72390000D01*
X86374900Y-69215000D02*
X87480000Y-69215000D01*
X82908000Y-72390000D02*
X86083000Y-69215000D01*
X86374900Y-71755000D02*
X83199900Y-74930000D01*
X83199900Y-74930000D02*
X81280000Y-74930000D01*
X87480000Y-71755000D02*
X86374900Y-71755000D01*
D25*
G36*
X75666673Y-36340302D02*
X75570000Y-36573691D01*
X75570000Y-38164250D01*
X75728750Y-38323000D01*
X77828000Y-38323000D01*
X77828000Y-38303000D01*
X78082000Y-38303000D01*
X78082000Y-38323000D01*
X80181250Y-38323000D01*
X80340000Y-38164250D01*
X80340000Y-36573691D01*
X80243327Y-36340302D01*
X80173025Y-36270000D01*
X91746000Y-36270000D01*
X91746001Y-174550000D01*
X51360000Y-174550000D01*
X51360000Y-171100750D01*
X59275000Y-171100750D01*
X59275000Y-171841309D01*
X59371673Y-172074698D01*
X59550301Y-172253327D01*
X59783690Y-172350000D01*
X60524250Y-172350000D01*
X60683000Y-172191250D01*
X60683000Y-170942000D01*
X60937000Y-170942000D01*
X60937000Y-172191250D01*
X61095750Y-172350000D01*
X61836310Y-172350000D01*
X62069699Y-172253327D01*
X62248327Y-172074698D01*
X62345000Y-171841309D01*
X62345000Y-171100750D01*
X62186250Y-170942000D01*
X60937000Y-170942000D01*
X60683000Y-170942000D01*
X59433750Y-170942000D01*
X59275000Y-171100750D01*
X51360000Y-171100750D01*
X51360000Y-94888000D01*
X51930971Y-94888000D01*
X51945400Y-94960540D01*
X51945401Y-120939555D01*
X51930971Y-121012100D01*
X51988139Y-121299506D01*
X52109849Y-121481658D01*
X52109852Y-121481661D01*
X52150943Y-121543158D01*
X52212440Y-121584249D01*
X52548191Y-121920000D01*
X52212442Y-122255749D01*
X52150942Y-122296842D01*
X52109849Y-122358342D01*
X52088696Y-122390000D01*
X51988139Y-122540494D01*
X51945400Y-122755357D01*
X51945400Y-122755360D01*
X51930971Y-122827900D01*
X51945400Y-122900440D01*
X51945401Y-148771455D01*
X51930971Y-148844000D01*
X51988139Y-149131406D01*
X52109849Y-149313558D01*
X52109852Y-149313561D01*
X52150943Y-149375058D01*
X52212440Y-149416149D01*
X53125850Y-150329560D01*
X53166942Y-150391058D01*
X53228439Y-150432149D01*
X53228441Y-150432151D01*
X53410593Y-150553861D01*
X53625456Y-150596600D01*
X53625459Y-150596600D01*
X53698000Y-150611029D01*
X53770540Y-150596600D01*
X54096321Y-150596600D01*
X54295423Y-150894577D01*
X54647758Y-151130000D01*
X54295423Y-151365423D01*
X53978260Y-151840091D01*
X53866887Y-152400000D01*
X53978260Y-152959909D01*
X54295423Y-153434577D01*
X54647758Y-153670000D01*
X54295423Y-153905423D01*
X53978260Y-154380091D01*
X53866887Y-154940000D01*
X53978260Y-155499909D01*
X54295423Y-155974577D01*
X54647758Y-156210000D01*
X54295423Y-156445423D01*
X53978260Y-156920091D01*
X53866887Y-157480000D01*
X53978260Y-158039909D01*
X54295423Y-158514577D01*
X54770091Y-158831740D01*
X55188667Y-158915000D01*
X56271333Y-158915000D01*
X56689909Y-158831740D01*
X57164577Y-158514577D01*
X57481740Y-158039909D01*
X57523684Y-157829039D01*
X61558096Y-157829039D01*
X61575633Y-157911819D01*
X61845500Y-158404896D01*
X62283517Y-158757166D01*
X62823000Y-158915000D01*
X63223000Y-158915000D01*
X63223000Y-157607000D01*
X63477000Y-157607000D01*
X63477000Y-158915000D01*
X63877000Y-158915000D01*
X64416483Y-158757166D01*
X64854500Y-158404896D01*
X65124367Y-157911819D01*
X65141904Y-157829039D01*
X65019915Y-157607000D01*
X63477000Y-157607000D01*
X63223000Y-157607000D01*
X61680085Y-157607000D01*
X61558096Y-157829039D01*
X57523684Y-157829039D01*
X57593113Y-157480000D01*
X57481740Y-156920091D01*
X57164577Y-156445423D01*
X56812242Y-156210000D01*
X57164577Y-155974577D01*
X57481740Y-155499909D01*
X57593113Y-154940000D01*
X57481740Y-154380091D01*
X57164577Y-153905423D01*
X56812242Y-153670000D01*
X57164577Y-153434577D01*
X57481740Y-152959909D01*
X57593113Y-152400000D01*
X57481740Y-151840091D01*
X57164577Y-151365423D01*
X56812242Y-151130000D01*
X57164577Y-150894577D01*
X57481740Y-150419909D01*
X57593113Y-149860000D01*
X57481740Y-149300091D01*
X57164577Y-148825423D01*
X56808501Y-148587501D01*
X57234500Y-148244896D01*
X57504367Y-147751819D01*
X57521904Y-147669039D01*
X57399915Y-147447000D01*
X55857000Y-147447000D01*
X55857000Y-147467000D01*
X55603000Y-147467000D01*
X55603000Y-147447000D01*
X54060085Y-147447000D01*
X53938096Y-147669039D01*
X53955633Y-147751819D01*
X54225500Y-148244896D01*
X54651499Y-148587501D01*
X54295423Y-148825423D01*
X54096321Y-149123400D01*
X54003110Y-149123400D01*
X53418600Y-148538891D01*
X53418600Y-145307553D01*
X53420942Y-145311058D01*
X53664593Y-145473861D01*
X53879456Y-145516600D01*
X53879460Y-145516600D01*
X53951999Y-145531029D01*
X54024538Y-145516600D01*
X54096321Y-145516600D01*
X54295423Y-145814577D01*
X54651499Y-146052499D01*
X54225500Y-146395104D01*
X53955633Y-146888181D01*
X53938096Y-146970961D01*
X54060085Y-147193000D01*
X55603000Y-147193000D01*
X55603000Y-147173000D01*
X55857000Y-147173000D01*
X55857000Y-147193000D01*
X57399915Y-147193000D01*
X57521904Y-146970961D01*
X57504367Y-146888181D01*
X57234500Y-146395104D01*
X56808501Y-146052499D01*
X57164577Y-145814577D01*
X57481740Y-145339909D01*
X57593113Y-144780000D01*
X57481740Y-144220091D01*
X57164577Y-143745423D01*
X56812242Y-143510000D01*
X57164577Y-143274577D01*
X57387887Y-142940369D01*
X57420607Y-142933861D01*
X57664258Y-142771058D01*
X57705351Y-142709558D01*
X61502560Y-138912349D01*
X61502560Y-140500000D01*
X61551843Y-140747765D01*
X61692191Y-140957809D01*
X61902235Y-141098157D01*
X62036106Y-141124785D01*
X61915423Y-141205423D01*
X61598260Y-141680091D01*
X61486887Y-142240000D01*
X61598260Y-142799909D01*
X61915423Y-143274577D01*
X62267758Y-143510000D01*
X61915423Y-143745423D01*
X61598260Y-144220091D01*
X61486887Y-144780000D01*
X61598260Y-145339909D01*
X61915423Y-145814577D01*
X62267758Y-146050000D01*
X61915423Y-146285423D01*
X61598260Y-146760091D01*
X61486887Y-147320000D01*
X61598260Y-147879909D01*
X61915423Y-148354577D01*
X62267758Y-148590000D01*
X61915423Y-148825423D01*
X61598260Y-149300091D01*
X61486887Y-149860000D01*
X61598260Y-150419909D01*
X61915423Y-150894577D01*
X62267758Y-151130000D01*
X61915423Y-151365423D01*
X61598260Y-151840091D01*
X61486887Y-152400000D01*
X61598260Y-152959909D01*
X61915423Y-153434577D01*
X62267758Y-153670000D01*
X61915423Y-153905423D01*
X61598260Y-154380091D01*
X61486887Y-154940000D01*
X61598260Y-155499909D01*
X61915423Y-155974577D01*
X62271499Y-156212499D01*
X61845500Y-156555104D01*
X61575633Y-157048181D01*
X61558096Y-157130961D01*
X61680085Y-157353000D01*
X63223000Y-157353000D01*
X63223000Y-157333000D01*
X63477000Y-157333000D01*
X63477000Y-157353000D01*
X65019915Y-157353000D01*
X65141904Y-157130961D01*
X65124367Y-157048181D01*
X64854500Y-156555104D01*
X64428501Y-156212499D01*
X64784577Y-155974577D01*
X65101740Y-155499909D01*
X65213113Y-154940000D01*
X65101740Y-154380091D01*
X64784577Y-153905423D01*
X64432242Y-153670000D01*
X64784577Y-153434577D01*
X65101740Y-152959909D01*
X65213113Y-152400000D01*
X65101740Y-151840091D01*
X64784577Y-151365423D01*
X64432242Y-151130000D01*
X64784577Y-150894577D01*
X65101740Y-150419909D01*
X65213113Y-149860000D01*
X65101740Y-149300091D01*
X64784577Y-148825423D01*
X64432242Y-148590000D01*
X64784577Y-148354577D01*
X65101740Y-147879909D01*
X65213113Y-147320000D01*
X65101740Y-146760091D01*
X64784577Y-146285423D01*
X64432242Y-146050000D01*
X64784577Y-145814577D01*
X65101740Y-145339909D01*
X65213113Y-144780000D01*
X65101740Y-144220091D01*
X64784577Y-143745423D01*
X64432242Y-143510000D01*
X64784577Y-143274577D01*
X65101740Y-142799909D01*
X65213113Y-142240000D01*
X65101740Y-141680091D01*
X64784577Y-141205423D01*
X64663894Y-141124785D01*
X64797765Y-141098157D01*
X65007809Y-140957809D01*
X65148157Y-140747765D01*
X65197440Y-140500000D01*
X65197440Y-138900000D01*
X65148157Y-138652235D01*
X65007809Y-138442191D01*
X64797765Y-138301843D01*
X64550000Y-138252560D01*
X62162349Y-138252560D01*
X64042309Y-136372600D01*
X66980265Y-136372600D01*
X66828260Y-136600091D01*
X66716887Y-137160000D01*
X66828260Y-137719909D01*
X67145423Y-138194577D01*
X67497758Y-138430000D01*
X67145423Y-138665423D01*
X66828260Y-139140091D01*
X66716887Y-139700000D01*
X66828260Y-140259909D01*
X67145423Y-140734577D01*
X67497758Y-140970000D01*
X67145423Y-141205423D01*
X66828260Y-141680091D01*
X66716887Y-142240000D01*
X66828260Y-142799909D01*
X67145423Y-143274577D01*
X67497758Y-143510000D01*
X67145423Y-143745423D01*
X66828260Y-144220091D01*
X66716887Y-144780000D01*
X66828260Y-145339909D01*
X67145423Y-145814577D01*
X67497758Y-146050000D01*
X67145423Y-146285423D01*
X66828260Y-146760091D01*
X66716887Y-147320000D01*
X66828260Y-147879909D01*
X67145423Y-148354577D01*
X67497758Y-148590000D01*
X67145423Y-148825423D01*
X66828260Y-149300091D01*
X66716887Y-149860000D01*
X66828260Y-150419909D01*
X67145423Y-150894577D01*
X67497758Y-151130000D01*
X67145423Y-151365423D01*
X66828260Y-151840091D01*
X66716887Y-152400000D01*
X66828260Y-152959909D01*
X67145423Y-153434577D01*
X67497758Y-153670000D01*
X67145423Y-153905423D01*
X66828260Y-154380091D01*
X66716887Y-154940000D01*
X66828260Y-155499909D01*
X67145423Y-155974577D01*
X67497758Y-156210000D01*
X67145423Y-156445423D01*
X66828260Y-156920091D01*
X66716887Y-157480000D01*
X66828260Y-158039909D01*
X67145423Y-158514577D01*
X67620091Y-158831740D01*
X68038667Y-158915000D01*
X69121333Y-158915000D01*
X69539909Y-158831740D01*
X70014577Y-158514577D01*
X70331740Y-158039909D01*
X70373684Y-157829039D01*
X74408096Y-157829039D01*
X74425633Y-157911819D01*
X74695500Y-158404896D01*
X75133517Y-158757166D01*
X75673000Y-158915000D01*
X76073000Y-158915000D01*
X76073000Y-157607000D01*
X76327000Y-157607000D01*
X76327000Y-158915000D01*
X76727000Y-158915000D01*
X77266483Y-158757166D01*
X77704500Y-158404896D01*
X77974367Y-157911819D01*
X77991904Y-157829039D01*
X77869915Y-157607000D01*
X76327000Y-157607000D01*
X76073000Y-157607000D01*
X74530085Y-157607000D01*
X74408096Y-157829039D01*
X70373684Y-157829039D01*
X70443113Y-157480000D01*
X70331740Y-156920091D01*
X70014577Y-156445423D01*
X69662242Y-156210000D01*
X70014577Y-155974577D01*
X70331740Y-155499909D01*
X70443113Y-154940000D01*
X70331740Y-154380091D01*
X70014577Y-153905423D01*
X69662242Y-153670000D01*
X70014577Y-153434577D01*
X70331740Y-152959909D01*
X70443113Y-152400000D01*
X70331740Y-151840091D01*
X70014577Y-151365423D01*
X69662242Y-151130000D01*
X70014577Y-150894577D01*
X70331740Y-150419909D01*
X70443113Y-149860000D01*
X70331740Y-149300091D01*
X70014577Y-148825423D01*
X69662242Y-148590000D01*
X70014577Y-148354577D01*
X70331740Y-147879909D01*
X70443113Y-147320000D01*
X70331740Y-146760091D01*
X70014577Y-146285423D01*
X69662242Y-146050000D01*
X70014577Y-145814577D01*
X70331740Y-145339909D01*
X70443113Y-144780000D01*
X70331740Y-144220091D01*
X70014577Y-143745423D01*
X69662242Y-143510000D01*
X70014577Y-143274577D01*
X70331740Y-142799909D01*
X70443113Y-142240000D01*
X70331740Y-141680091D01*
X70014577Y-141205423D01*
X69662242Y-140970000D01*
X70014577Y-140734577D01*
X70331740Y-140259909D01*
X70443113Y-139700000D01*
X70331740Y-139140091D01*
X70014577Y-138665423D01*
X69662242Y-138430000D01*
X70014577Y-138194577D01*
X70039968Y-138156577D01*
X70782950Y-138899560D01*
X70824042Y-138961058D01*
X70885539Y-139002149D01*
X70885541Y-139002151D01*
X71067693Y-139123861D01*
X71282556Y-139166600D01*
X71282559Y-139166600D01*
X71355099Y-139181029D01*
X71427640Y-139166600D01*
X74442987Y-139166600D01*
X74336887Y-139700000D01*
X74448260Y-140259909D01*
X74765423Y-140734577D01*
X75117758Y-140970000D01*
X74765423Y-141205423D01*
X74448260Y-141680091D01*
X74336887Y-142240000D01*
X74448260Y-142799909D01*
X74765423Y-143274577D01*
X75117758Y-143510000D01*
X74765423Y-143745423D01*
X74448260Y-144220091D01*
X74336887Y-144780000D01*
X74448260Y-145339909D01*
X74765423Y-145814577D01*
X75117758Y-146050000D01*
X74765423Y-146285423D01*
X74448260Y-146760091D01*
X74336887Y-147320000D01*
X74448260Y-147879909D01*
X74765423Y-148354577D01*
X75117758Y-148590000D01*
X74765423Y-148825423D01*
X74448260Y-149300091D01*
X74336887Y-149860000D01*
X74448260Y-150419909D01*
X74765423Y-150894577D01*
X75117758Y-151130000D01*
X74765423Y-151365423D01*
X74448260Y-151840091D01*
X74336887Y-152400000D01*
X74448260Y-152959909D01*
X74765423Y-153434577D01*
X75117758Y-153670000D01*
X74765423Y-153905423D01*
X74448260Y-154380091D01*
X74336887Y-154940000D01*
X74448260Y-155499909D01*
X74765423Y-155974577D01*
X75121499Y-156212499D01*
X74695500Y-156555104D01*
X74425633Y-157048181D01*
X74408096Y-157130961D01*
X74530085Y-157353000D01*
X76073000Y-157353000D01*
X76073000Y-157333000D01*
X76327000Y-157333000D01*
X76327000Y-157353000D01*
X77869915Y-157353000D01*
X77991904Y-157130961D01*
X77974367Y-157048181D01*
X77704500Y-156555104D01*
X77278501Y-156212499D01*
X77634577Y-155974577D01*
X77951740Y-155499909D01*
X78063113Y-154940000D01*
X77951740Y-154380091D01*
X77634577Y-153905423D01*
X77282242Y-153670000D01*
X77634577Y-153434577D01*
X77951740Y-152959909D01*
X78063113Y-152400000D01*
X77951740Y-151840091D01*
X77634577Y-151365423D01*
X77282242Y-151130000D01*
X77634577Y-150894577D01*
X77951740Y-150419909D01*
X78063113Y-149860000D01*
X77951740Y-149300091D01*
X77634577Y-148825423D01*
X77282242Y-148590000D01*
X77634577Y-148354577D01*
X77951740Y-147879909D01*
X78063113Y-147320000D01*
X77951740Y-146760091D01*
X77634577Y-146285423D01*
X77282242Y-146050000D01*
X77634577Y-145814577D01*
X77951740Y-145339909D01*
X78063113Y-144780000D01*
X77951740Y-144220091D01*
X77634577Y-143745423D01*
X77282242Y-143510000D01*
X79855632Y-143510000D01*
X79964056Y-144055082D01*
X80272820Y-144517180D01*
X80734918Y-144825944D01*
X81142412Y-144907000D01*
X81417588Y-144907000D01*
X81825082Y-144825944D01*
X82287180Y-144517180D01*
X82595944Y-144055082D01*
X82704368Y-143510000D01*
X82595944Y-142964918D01*
X82287180Y-142502820D01*
X81825082Y-142194056D01*
X81417588Y-142113000D01*
X81142412Y-142113000D01*
X80734918Y-142194056D01*
X80272820Y-142502820D01*
X79964056Y-142964918D01*
X79855632Y-143510000D01*
X77282242Y-143510000D01*
X77634577Y-143274577D01*
X77951740Y-142799909D01*
X78063113Y-142240000D01*
X77951740Y-141680091D01*
X77634577Y-141205423D01*
X77282242Y-140970000D01*
X77634577Y-140734577D01*
X77951740Y-140259909D01*
X78063113Y-139700000D01*
X77957013Y-139166600D01*
X80073007Y-139166600D01*
X80095680Y-139221337D01*
X80488663Y-139614320D01*
X81002119Y-139827000D01*
X81557881Y-139827000D01*
X82071337Y-139614320D01*
X82464320Y-139221337D01*
X82486993Y-139166600D01*
X86246321Y-139166600D01*
X86445423Y-139464577D01*
X86797758Y-139700000D01*
X86445423Y-139935423D01*
X86128260Y-140410091D01*
X86016887Y-140970000D01*
X86128260Y-141529909D01*
X86445423Y-142004577D01*
X86797758Y-142240000D01*
X86445423Y-142475423D01*
X86128260Y-142950091D01*
X86016887Y-143510000D01*
X86128260Y-144069909D01*
X86445423Y-144544577D01*
X86797758Y-144780000D01*
X86445423Y-145015423D01*
X86128260Y-145490091D01*
X86016887Y-146050000D01*
X86128260Y-146609909D01*
X86445423Y-147084577D01*
X86566106Y-147165215D01*
X86432235Y-147191843D01*
X86222191Y-147332191D01*
X86081843Y-147542235D01*
X86032560Y-147790000D01*
X86032560Y-149390000D01*
X86081843Y-149637765D01*
X86222191Y-149847809D01*
X86274920Y-149883042D01*
X71375463Y-164782500D01*
X62019688Y-164782500D01*
X61916673Y-164628327D01*
X61408927Y-164289062D01*
X60961182Y-164200000D01*
X60658818Y-164200000D01*
X60211073Y-164289062D01*
X59703327Y-164628327D01*
X59364062Y-165136073D01*
X59244928Y-165735000D01*
X59364062Y-166333927D01*
X59703327Y-166841673D01*
X59947763Y-167005000D01*
X59703327Y-167168327D01*
X59364062Y-167676073D01*
X59244928Y-168275000D01*
X59364062Y-168873927D01*
X59667538Y-169328112D01*
X59550301Y-169376673D01*
X59371673Y-169555302D01*
X59275000Y-169788691D01*
X59275000Y-170529250D01*
X59433750Y-170688000D01*
X60683000Y-170688000D01*
X60683000Y-170668000D01*
X60937000Y-170668000D01*
X60937000Y-170688000D01*
X62186250Y-170688000D01*
X62345000Y-170529250D01*
X62345000Y-169788691D01*
X62248327Y-169555302D01*
X62069699Y-169376673D01*
X61952462Y-169328112D01*
X62255938Y-168873927D01*
X62375072Y-168275000D01*
X75038276Y-168275000D01*
X75223380Y-169205580D01*
X75750511Y-169994489D01*
X76539420Y-170521620D01*
X77235103Y-170660000D01*
X77704897Y-170660000D01*
X78400580Y-170521620D01*
X79189489Y-169994489D01*
X79716620Y-169205580D01*
X79901724Y-168275000D01*
X79716620Y-167344420D01*
X79189489Y-166555511D01*
X78400580Y-166028380D01*
X77704897Y-165890000D01*
X77235103Y-165890000D01*
X76539420Y-166028380D01*
X75750511Y-166555511D01*
X75223380Y-167344420D01*
X75038276Y-168275000D01*
X62375072Y-168275000D01*
X62255938Y-167676073D01*
X61916673Y-167168327D01*
X61672237Y-167005000D01*
X61916673Y-166841673D01*
X62019688Y-166687500D01*
X71676190Y-166687500D01*
X71770000Y-166706160D01*
X71863810Y-166687500D01*
X72141647Y-166632235D01*
X72456714Y-166421714D01*
X72509857Y-166342180D01*
X88087183Y-150764855D01*
X88166714Y-150711714D01*
X88377235Y-150396647D01*
X88432500Y-150118810D01*
X88451160Y-150025001D01*
X88447026Y-150004217D01*
X88527765Y-149988157D01*
X88737809Y-149847809D01*
X88878157Y-149637765D01*
X88927440Y-149390000D01*
X88927440Y-148489598D01*
X89865186Y-147551853D01*
X89944714Y-147498714D01*
X90155235Y-147183647D01*
X90210500Y-146905810D01*
X90229160Y-146812000D01*
X90210500Y-146718190D01*
X90210500Y-129557810D01*
X90229160Y-129464000D01*
X90155235Y-129092353D01*
X89997853Y-128856814D01*
X89944714Y-128777286D01*
X89865186Y-128724148D01*
X88748238Y-127607201D01*
X88878157Y-127412765D01*
X88927440Y-127165000D01*
X88927440Y-126925098D01*
X89865186Y-125987352D01*
X89944714Y-125934214D01*
X90026549Y-125811740D01*
X90155235Y-125619147D01*
X90229160Y-125247500D01*
X90210500Y-125153690D01*
X90210500Y-107182810D01*
X90229160Y-107089000D01*
X90155235Y-106717353D01*
X89997853Y-106481814D01*
X89944714Y-106402286D01*
X89865186Y-106349147D01*
X88898238Y-105382201D01*
X89028157Y-105187765D01*
X89077440Y-104940000D01*
X89077440Y-103340000D01*
X89028157Y-103092235D01*
X88887809Y-102882191D01*
X88677765Y-102741843D01*
X88543894Y-102715215D01*
X88664577Y-102634577D01*
X88981740Y-102159909D01*
X89093113Y-101600000D01*
X88981740Y-101040091D01*
X88664577Y-100565423D01*
X88344007Y-100351225D01*
X88353746Y-100302268D01*
X88664577Y-100094577D01*
X88981740Y-99619909D01*
X89093113Y-99060000D01*
X88981740Y-98500091D01*
X88664577Y-98025423D01*
X88312242Y-97790000D01*
X88664577Y-97554577D01*
X88981740Y-97079909D01*
X89093113Y-96520000D01*
X88981740Y-95960091D01*
X88664577Y-95485423D01*
X88312242Y-95250000D01*
X88664577Y-95014577D01*
X88981740Y-94539909D01*
X89093113Y-93980000D01*
X88981740Y-93420091D01*
X88664577Y-92945423D01*
X88312242Y-92710000D01*
X88664577Y-92474577D01*
X88981740Y-91999909D01*
X89093113Y-91440000D01*
X88981740Y-90880091D01*
X88664577Y-90405423D01*
X88312242Y-90170000D01*
X88664577Y-89934577D01*
X88981740Y-89459909D01*
X89093113Y-88900000D01*
X88981740Y-88340091D01*
X88664577Y-87865423D01*
X88312242Y-87630000D01*
X88664577Y-87394577D01*
X88981740Y-86919909D01*
X89093113Y-86360000D01*
X88981740Y-85800091D01*
X88664577Y-85325423D01*
X88189909Y-85008260D01*
X87771333Y-84925000D01*
X87488667Y-84925000D01*
X87278512Y-84966802D01*
X86932150Y-84620441D01*
X86891058Y-84558942D01*
X86647407Y-84396139D01*
X86432544Y-84353400D01*
X86432540Y-84353400D01*
X86360000Y-84338971D01*
X86287460Y-84353400D01*
X82486993Y-84353400D01*
X82464320Y-84298663D01*
X82071337Y-83905680D01*
X81864487Y-83820000D01*
X82071337Y-83734320D01*
X82464320Y-83341337D01*
X82486993Y-83286600D01*
X83127360Y-83286600D01*
X83199900Y-83301029D01*
X83272440Y-83286600D01*
X83272444Y-83286600D01*
X83487307Y-83243861D01*
X83730958Y-83081058D01*
X83772051Y-83019558D01*
X86420032Y-80371577D01*
X86445423Y-80409577D01*
X86566106Y-80490215D01*
X86432235Y-80516843D01*
X86222191Y-80657191D01*
X86081843Y-80867235D01*
X86032560Y-81115000D01*
X86032560Y-82715000D01*
X86081843Y-82962765D01*
X86222191Y-83172809D01*
X86432235Y-83313157D01*
X86680000Y-83362440D01*
X88280000Y-83362440D01*
X88527765Y-83313157D01*
X88737809Y-83172809D01*
X88878157Y-82962765D01*
X88927440Y-82715000D01*
X88927440Y-81814598D01*
X89416284Y-81325754D01*
X89495814Y-81272614D01*
X89706335Y-80957547D01*
X89761600Y-80679710D01*
X89761600Y-80679709D01*
X89780260Y-80585901D01*
X89761600Y-80492092D01*
X89761600Y-57668904D01*
X89780259Y-57575099D01*
X89761600Y-57481294D01*
X89761600Y-57481290D01*
X89706335Y-57203453D01*
X89495814Y-56888386D01*
X89416283Y-56835245D01*
X79428477Y-46847440D01*
X79705000Y-46847440D01*
X79952765Y-46798157D01*
X80162809Y-46657809D01*
X80303157Y-46447765D01*
X80352440Y-46200000D01*
X80352440Y-42700000D01*
X80303157Y-42452235D01*
X80162809Y-42242191D01*
X79952765Y-42101843D01*
X79705000Y-42052560D01*
X76205000Y-42052560D01*
X75957235Y-42101843D01*
X75747191Y-42242191D01*
X75640000Y-42402612D01*
X75640000Y-41735750D01*
X75481250Y-41577000D01*
X73382000Y-41577000D01*
X73382000Y-43676250D01*
X73540750Y-43835000D01*
X75131310Y-43835000D01*
X75364699Y-43738327D01*
X75543327Y-43559698D01*
X75557560Y-43525337D01*
X75557560Y-46200000D01*
X75606843Y-46447765D01*
X75747191Y-46657809D01*
X75957235Y-46798157D01*
X76205000Y-46847440D01*
X77008990Y-46847440D01*
X77057765Y-47092646D01*
X77057766Y-47092647D01*
X77268287Y-47407714D01*
X77347818Y-47460855D01*
X87856601Y-57969639D01*
X87856601Y-62746798D01*
X87621333Y-62700000D01*
X87338667Y-62700000D01*
X86920091Y-62783260D01*
X86445423Y-63100423D01*
X86128260Y-63575091D01*
X86117283Y-63630276D01*
X86086858Y-63584742D01*
X86025361Y-63543651D01*
X79162150Y-56680441D01*
X79121058Y-56618942D01*
X78877407Y-56456139D01*
X78662544Y-56413400D01*
X78662540Y-56413400D01*
X78590000Y-56398971D01*
X78517460Y-56413400D01*
X77957013Y-56413400D01*
X78063113Y-55880000D01*
X77951740Y-55320091D01*
X77634577Y-54845423D01*
X77513894Y-54764785D01*
X77647765Y-54738157D01*
X77857809Y-54597809D01*
X77998157Y-54387765D01*
X78047440Y-54140000D01*
X78047440Y-52540000D01*
X77998157Y-52292235D01*
X77857809Y-52082191D01*
X77647765Y-51941843D01*
X77400000Y-51892560D01*
X75000000Y-51892560D01*
X74752235Y-51941843D01*
X74542191Y-52082191D01*
X74401843Y-52292235D01*
X74352560Y-52540000D01*
X74352560Y-52682844D01*
X74225341Y-52767849D01*
X74225339Y-52767851D01*
X74163842Y-52808942D01*
X74122750Y-52870440D01*
X73119791Y-53873400D01*
X70337013Y-53873400D01*
X70443113Y-53340000D01*
X70331740Y-52780091D01*
X70014577Y-52305423D01*
X69539909Y-51988260D01*
X69121333Y-51905000D01*
X68038667Y-51905000D01*
X67620091Y-51988260D01*
X67145423Y-52305423D01*
X66828260Y-52780091D01*
X66716887Y-53340000D01*
X66822987Y-53873400D01*
X60482640Y-53873400D01*
X60410100Y-53858971D01*
X60337559Y-53873400D01*
X60337556Y-53873400D01*
X60122693Y-53916139D01*
X59940541Y-54037849D01*
X59940539Y-54037851D01*
X59879042Y-54078942D01*
X59837951Y-54140439D01*
X56554968Y-57423423D01*
X56529577Y-57385423D01*
X56177242Y-57150000D01*
X56529577Y-56914577D01*
X56846740Y-56439909D01*
X56958113Y-55880000D01*
X56846740Y-55320091D01*
X56529577Y-54845423D01*
X56054909Y-54528260D01*
X55636333Y-54445000D01*
X54553667Y-54445000D01*
X54135091Y-54528260D01*
X53672600Y-54837287D01*
X53672600Y-50514561D01*
X54930000Y-50514561D01*
X54930000Y-51085439D01*
X55148466Y-51612862D01*
X55552138Y-52016534D01*
X56079561Y-52235000D01*
X56650439Y-52235000D01*
X57177862Y-52016534D01*
X57386651Y-51807745D01*
X60536861Y-51807745D01*
X60610995Y-52053864D01*
X61148223Y-52246965D01*
X61718454Y-52219778D01*
X62119005Y-52053864D01*
X62193139Y-51807745D01*
X61365000Y-50979605D01*
X60536861Y-51807745D01*
X57386651Y-51807745D01*
X57581534Y-51612862D01*
X57800000Y-51085439D01*
X57800000Y-50583223D01*
X59918035Y-50583223D01*
X59945222Y-51153454D01*
X60111136Y-51554005D01*
X60357255Y-51628139D01*
X61185395Y-50800000D01*
X61544605Y-50800000D01*
X62372745Y-51628139D01*
X62618864Y-51554005D01*
X62811965Y-51016777D01*
X62784778Y-50446546D01*
X62618864Y-50045995D01*
X62372745Y-49971861D01*
X61544605Y-50800000D01*
X61185395Y-50800000D01*
X60357255Y-49971861D01*
X60111136Y-50045995D01*
X59918035Y-50583223D01*
X57800000Y-50583223D01*
X57800000Y-50514561D01*
X57581534Y-49987138D01*
X57386651Y-49792255D01*
X60536861Y-49792255D01*
X61365000Y-50620395D01*
X62193139Y-49792255D01*
X62119005Y-49546136D01*
X61581777Y-49353035D01*
X61011546Y-49380222D01*
X60610995Y-49546136D01*
X60536861Y-49792255D01*
X57386651Y-49792255D01*
X57177862Y-49583466D01*
X56650439Y-49365000D01*
X56079561Y-49365000D01*
X55552138Y-49583466D01*
X55148466Y-49987138D01*
X54930000Y-50514561D01*
X53672600Y-50514561D01*
X53672600Y-49974209D01*
X61911059Y-41735750D01*
X70870000Y-41735750D01*
X70870000Y-43326309D01*
X70966673Y-43559698D01*
X71145301Y-43738327D01*
X71378690Y-43835000D01*
X72969250Y-43835000D01*
X73128000Y-43676250D01*
X73128000Y-41577000D01*
X71028750Y-41577000D01*
X70870000Y-41735750D01*
X61911059Y-41735750D01*
X62549561Y-41097249D01*
X62611058Y-41056158D01*
X62652149Y-40994661D01*
X62652151Y-40994659D01*
X62773861Y-40812507D01*
X62800964Y-40676250D01*
X62801421Y-40673956D01*
X63150625Y-40440625D01*
X63363843Y-40121522D01*
X63424817Y-40251358D01*
X63853076Y-40641645D01*
X64263110Y-40811476D01*
X64493000Y-40690155D01*
X64493000Y-39497000D01*
X64747000Y-39497000D01*
X64747000Y-40690155D01*
X64976890Y-40811476D01*
X65386924Y-40641645D01*
X65815183Y-40251358D01*
X66061486Y-39726892D01*
X65981074Y-39573691D01*
X70870000Y-39573691D01*
X70870000Y-41164250D01*
X71028750Y-41323000D01*
X73128000Y-41323000D01*
X73128000Y-39223750D01*
X73382000Y-39223750D01*
X73382000Y-41323000D01*
X75481250Y-41323000D01*
X75640000Y-41164250D01*
X75640000Y-40495304D01*
X75666673Y-40559698D01*
X75845301Y-40738327D01*
X76078690Y-40835000D01*
X77669250Y-40835000D01*
X77828000Y-40676250D01*
X77828000Y-38577000D01*
X78082000Y-38577000D01*
X78082000Y-40676250D01*
X78240750Y-40835000D01*
X79831310Y-40835000D01*
X80064699Y-40738327D01*
X80243327Y-40559698D01*
X80340000Y-40326309D01*
X80340000Y-38735750D01*
X80181250Y-38577000D01*
X78082000Y-38577000D01*
X77828000Y-38577000D01*
X75728750Y-38577000D01*
X75570000Y-38735750D01*
X75570000Y-39404696D01*
X75543327Y-39340302D01*
X75364699Y-39161673D01*
X75131310Y-39065000D01*
X73540750Y-39065000D01*
X73382000Y-39223750D01*
X73128000Y-39223750D01*
X72969250Y-39065000D01*
X71378690Y-39065000D01*
X71145301Y-39161673D01*
X70966673Y-39340302D01*
X70870000Y-39573691D01*
X65981074Y-39573691D01*
X65940819Y-39497000D01*
X64747000Y-39497000D01*
X64493000Y-39497000D01*
X64473000Y-39497000D01*
X64473000Y-39243000D01*
X64493000Y-39243000D01*
X64493000Y-38049845D01*
X64747000Y-38049845D01*
X64747000Y-39243000D01*
X65940819Y-39243000D01*
X66061486Y-39013108D01*
X65815183Y-38488642D01*
X65386924Y-38098355D01*
X64976890Y-37928524D01*
X64747000Y-38049845D01*
X64493000Y-38049845D01*
X64263110Y-37928524D01*
X63853076Y-38098355D01*
X63424817Y-38488642D01*
X63363843Y-38618478D01*
X63150625Y-38299375D01*
X62659418Y-37971161D01*
X62226256Y-37885000D01*
X61933744Y-37885000D01*
X61500582Y-37971161D01*
X61009375Y-38299375D01*
X60810000Y-38597761D01*
X60610625Y-38299375D01*
X60119418Y-37971161D01*
X59686256Y-37885000D01*
X59393744Y-37885000D01*
X58960582Y-37971161D01*
X58469375Y-38299375D01*
X58457184Y-38317619D01*
X58448157Y-38272235D01*
X58307809Y-38062191D01*
X58097765Y-37921843D01*
X57850000Y-37872560D01*
X56150000Y-37872560D01*
X55902235Y-37921843D01*
X55692191Y-38062191D01*
X55551843Y-38272235D01*
X55502560Y-38520000D01*
X55502560Y-40220000D01*
X55551843Y-40467765D01*
X55692191Y-40677809D01*
X55902235Y-40818157D01*
X56150000Y-40867440D01*
X57850000Y-40867440D01*
X58097765Y-40818157D01*
X58307809Y-40677809D01*
X58448157Y-40467765D01*
X58457184Y-40422381D01*
X58469375Y-40440625D01*
X58960582Y-40768839D01*
X59393744Y-40855000D01*
X59686256Y-40855000D01*
X60119418Y-40768839D01*
X60610625Y-40440625D01*
X60810000Y-40142239D01*
X61009375Y-40440625D01*
X61077347Y-40486043D01*
X52466442Y-49096949D01*
X52404942Y-49138042D01*
X52242139Y-49381694D01*
X52199400Y-49596557D01*
X52199400Y-49596560D01*
X52184971Y-49669100D01*
X52199400Y-49741640D01*
X52199401Y-65313555D01*
X52184971Y-65386100D01*
X52242139Y-65673506D01*
X52363849Y-65855658D01*
X52363852Y-65855661D01*
X52404943Y-65917158D01*
X52466440Y-65958249D01*
X52548191Y-66040000D01*
X52466442Y-66121749D01*
X52404942Y-66162842D01*
X52242139Y-66406494D01*
X52199400Y-66621357D01*
X52199400Y-66621360D01*
X52184971Y-66693900D01*
X52199400Y-66766440D01*
X52199401Y-93399455D01*
X52184971Y-93472000D01*
X52242139Y-93759406D01*
X52363849Y-93941558D01*
X52363852Y-93941561D01*
X52404943Y-94003058D01*
X52466440Y-94044149D01*
X52475291Y-94053000D01*
X52212442Y-94315849D01*
X52150942Y-94356942D01*
X51988139Y-94600594D01*
X51945400Y-94815457D01*
X51945400Y-94815460D01*
X51930971Y-94888000D01*
X51360000Y-94888000D01*
X51360000Y-36270000D01*
X75736975Y-36270000D01*
X75666673Y-36340302D01*
X75666673Y-36340302D01*
G37*
X75666673Y-36340302D02*
X75570000Y-36573691D01*
X75570000Y-38164250D01*
X75728750Y-38323000D01*
X77828000Y-38323000D01*
X77828000Y-38303000D01*
X78082000Y-38303000D01*
X78082000Y-38323000D01*
X80181250Y-38323000D01*
X80340000Y-38164250D01*
X80340000Y-36573691D01*
X80243327Y-36340302D01*
X80173025Y-36270000D01*
X91746000Y-36270000D01*
X91746001Y-174550000D01*
X51360000Y-174550000D01*
X51360000Y-171100750D01*
X59275000Y-171100750D01*
X59275000Y-171841309D01*
X59371673Y-172074698D01*
X59550301Y-172253327D01*
X59783690Y-172350000D01*
X60524250Y-172350000D01*
X60683000Y-172191250D01*
X60683000Y-170942000D01*
X60937000Y-170942000D01*
X60937000Y-172191250D01*
X61095750Y-172350000D01*
X61836310Y-172350000D01*
X62069699Y-172253327D01*
X62248327Y-172074698D01*
X62345000Y-171841309D01*
X62345000Y-171100750D01*
X62186250Y-170942000D01*
X60937000Y-170942000D01*
X60683000Y-170942000D01*
X59433750Y-170942000D01*
X59275000Y-171100750D01*
X51360000Y-171100750D01*
X51360000Y-94888000D01*
X51930971Y-94888000D01*
X51945400Y-94960540D01*
X51945401Y-120939555D01*
X51930971Y-121012100D01*
X51988139Y-121299506D01*
X52109849Y-121481658D01*
X52109852Y-121481661D01*
X52150943Y-121543158D01*
X52212440Y-121584249D01*
X52548191Y-121920000D01*
X52212442Y-122255749D01*
X52150942Y-122296842D01*
X52109849Y-122358342D01*
X52088696Y-122390000D01*
X51988139Y-122540494D01*
X51945400Y-122755357D01*
X51945400Y-122755360D01*
X51930971Y-122827900D01*
X51945400Y-122900440D01*
X51945401Y-148771455D01*
X51930971Y-148844000D01*
X51988139Y-149131406D01*
X52109849Y-149313558D01*
X52109852Y-149313561D01*
X52150943Y-149375058D01*
X52212440Y-149416149D01*
X53125850Y-150329560D01*
X53166942Y-150391058D01*
X53228439Y-150432149D01*
X53228441Y-150432151D01*
X53410593Y-150553861D01*
X53625456Y-150596600D01*
X53625459Y-150596600D01*
X53698000Y-150611029D01*
X53770540Y-150596600D01*
X54096321Y-150596600D01*
X54295423Y-150894577D01*
X54647758Y-151130000D01*
X54295423Y-151365423D01*
X53978260Y-151840091D01*
X53866887Y-152400000D01*
X53978260Y-152959909D01*
X54295423Y-153434577D01*
X54647758Y-153670000D01*
X54295423Y-153905423D01*
X53978260Y-154380091D01*
X53866887Y-154940000D01*
X53978260Y-155499909D01*
X54295423Y-155974577D01*
X54647758Y-156210000D01*
X54295423Y-156445423D01*
X53978260Y-156920091D01*
X53866887Y-157480000D01*
X53978260Y-158039909D01*
X54295423Y-158514577D01*
X54770091Y-158831740D01*
X55188667Y-158915000D01*
X56271333Y-158915000D01*
X56689909Y-158831740D01*
X57164577Y-158514577D01*
X57481740Y-158039909D01*
X57523684Y-157829039D01*
X61558096Y-157829039D01*
X61575633Y-157911819D01*
X61845500Y-158404896D01*
X62283517Y-158757166D01*
X62823000Y-158915000D01*
X63223000Y-158915000D01*
X63223000Y-157607000D01*
X63477000Y-157607000D01*
X63477000Y-158915000D01*
X63877000Y-158915000D01*
X64416483Y-158757166D01*
X64854500Y-158404896D01*
X65124367Y-157911819D01*
X65141904Y-157829039D01*
X65019915Y-157607000D01*
X63477000Y-157607000D01*
X63223000Y-157607000D01*
X61680085Y-157607000D01*
X61558096Y-157829039D01*
X57523684Y-157829039D01*
X57593113Y-157480000D01*
X57481740Y-156920091D01*
X57164577Y-156445423D01*
X56812242Y-156210000D01*
X57164577Y-155974577D01*
X57481740Y-155499909D01*
X57593113Y-154940000D01*
X57481740Y-154380091D01*
X57164577Y-153905423D01*
X56812242Y-153670000D01*
X57164577Y-153434577D01*
X57481740Y-152959909D01*
X57593113Y-152400000D01*
X57481740Y-151840091D01*
X57164577Y-151365423D01*
X56812242Y-151130000D01*
X57164577Y-150894577D01*
X57481740Y-150419909D01*
X57593113Y-149860000D01*
X57481740Y-149300091D01*
X57164577Y-148825423D01*
X56808501Y-148587501D01*
X57234500Y-148244896D01*
X57504367Y-147751819D01*
X57521904Y-147669039D01*
X57399915Y-147447000D01*
X55857000Y-147447000D01*
X55857000Y-147467000D01*
X55603000Y-147467000D01*
X55603000Y-147447000D01*
X54060085Y-147447000D01*
X53938096Y-147669039D01*
X53955633Y-147751819D01*
X54225500Y-148244896D01*
X54651499Y-148587501D01*
X54295423Y-148825423D01*
X54096321Y-149123400D01*
X54003110Y-149123400D01*
X53418600Y-148538891D01*
X53418600Y-145307553D01*
X53420942Y-145311058D01*
X53664593Y-145473861D01*
X53879456Y-145516600D01*
X53879460Y-145516600D01*
X53951999Y-145531029D01*
X54024538Y-145516600D01*
X54096321Y-145516600D01*
X54295423Y-145814577D01*
X54651499Y-146052499D01*
X54225500Y-146395104D01*
X53955633Y-146888181D01*
X53938096Y-146970961D01*
X54060085Y-147193000D01*
X55603000Y-147193000D01*
X55603000Y-147173000D01*
X55857000Y-147173000D01*
X55857000Y-147193000D01*
X57399915Y-147193000D01*
X57521904Y-146970961D01*
X57504367Y-146888181D01*
X57234500Y-146395104D01*
X56808501Y-146052499D01*
X57164577Y-145814577D01*
X57481740Y-145339909D01*
X57593113Y-144780000D01*
X57481740Y-144220091D01*
X57164577Y-143745423D01*
X56812242Y-143510000D01*
X57164577Y-143274577D01*
X57387887Y-142940369D01*
X57420607Y-142933861D01*
X57664258Y-142771058D01*
X57705351Y-142709558D01*
X61502560Y-138912349D01*
X61502560Y-140500000D01*
X61551843Y-140747765D01*
X61692191Y-140957809D01*
X61902235Y-141098157D01*
X62036106Y-141124785D01*
X61915423Y-141205423D01*
X61598260Y-141680091D01*
X61486887Y-142240000D01*
X61598260Y-142799909D01*
X61915423Y-143274577D01*
X62267758Y-143510000D01*
X61915423Y-143745423D01*
X61598260Y-144220091D01*
X61486887Y-144780000D01*
X61598260Y-145339909D01*
X61915423Y-145814577D01*
X62267758Y-146050000D01*
X61915423Y-146285423D01*
X61598260Y-146760091D01*
X61486887Y-147320000D01*
X61598260Y-147879909D01*
X61915423Y-148354577D01*
X62267758Y-148590000D01*
X61915423Y-148825423D01*
X61598260Y-149300091D01*
X61486887Y-149860000D01*
X61598260Y-150419909D01*
X61915423Y-150894577D01*
X62267758Y-151130000D01*
X61915423Y-151365423D01*
X61598260Y-151840091D01*
X61486887Y-152400000D01*
X61598260Y-152959909D01*
X61915423Y-153434577D01*
X62267758Y-153670000D01*
X61915423Y-153905423D01*
X61598260Y-154380091D01*
X61486887Y-154940000D01*
X61598260Y-155499909D01*
X61915423Y-155974577D01*
X62271499Y-156212499D01*
X61845500Y-156555104D01*
X61575633Y-157048181D01*
X61558096Y-157130961D01*
X61680085Y-157353000D01*
X63223000Y-157353000D01*
X63223000Y-157333000D01*
X63477000Y-157333000D01*
X63477000Y-157353000D01*
X65019915Y-157353000D01*
X65141904Y-157130961D01*
X65124367Y-157048181D01*
X64854500Y-156555104D01*
X64428501Y-156212499D01*
X64784577Y-155974577D01*
X65101740Y-155499909D01*
X65213113Y-154940000D01*
X65101740Y-154380091D01*
X64784577Y-153905423D01*
X64432242Y-153670000D01*
X64784577Y-153434577D01*
X65101740Y-152959909D01*
X65213113Y-152400000D01*
X65101740Y-151840091D01*
X64784577Y-151365423D01*
X64432242Y-151130000D01*
X64784577Y-150894577D01*
X65101740Y-150419909D01*
X65213113Y-149860000D01*
X65101740Y-149300091D01*
X64784577Y-148825423D01*
X64432242Y-148590000D01*
X64784577Y-148354577D01*
X65101740Y-147879909D01*
X65213113Y-147320000D01*
X65101740Y-146760091D01*
X64784577Y-146285423D01*
X64432242Y-146050000D01*
X64784577Y-145814577D01*
X65101740Y-145339909D01*
X65213113Y-144780000D01*
X65101740Y-144220091D01*
X64784577Y-143745423D01*
X64432242Y-143510000D01*
X64784577Y-143274577D01*
X65101740Y-142799909D01*
X65213113Y-142240000D01*
X65101740Y-141680091D01*
X64784577Y-141205423D01*
X64663894Y-141124785D01*
X64797765Y-141098157D01*
X65007809Y-140957809D01*
X65148157Y-140747765D01*
X65197440Y-140500000D01*
X65197440Y-138900000D01*
X65148157Y-138652235D01*
X65007809Y-138442191D01*
X64797765Y-138301843D01*
X64550000Y-138252560D01*
X62162349Y-138252560D01*
X64042309Y-136372600D01*
X66980265Y-136372600D01*
X66828260Y-136600091D01*
X66716887Y-137160000D01*
X66828260Y-137719909D01*
X67145423Y-138194577D01*
X67497758Y-138430000D01*
X67145423Y-138665423D01*
X66828260Y-139140091D01*
X66716887Y-139700000D01*
X66828260Y-140259909D01*
X67145423Y-140734577D01*
X67497758Y-140970000D01*
X67145423Y-141205423D01*
X66828260Y-141680091D01*
X66716887Y-142240000D01*
X66828260Y-142799909D01*
X67145423Y-143274577D01*
X67497758Y-143510000D01*
X67145423Y-143745423D01*
X66828260Y-144220091D01*
X66716887Y-144780000D01*
X66828260Y-145339909D01*
X67145423Y-145814577D01*
X67497758Y-146050000D01*
X67145423Y-146285423D01*
X66828260Y-146760091D01*
X66716887Y-147320000D01*
X66828260Y-147879909D01*
X67145423Y-148354577D01*
X67497758Y-148590000D01*
X67145423Y-148825423D01*
X66828260Y-149300091D01*
X66716887Y-149860000D01*
X66828260Y-150419909D01*
X67145423Y-150894577D01*
X67497758Y-151130000D01*
X67145423Y-151365423D01*
X66828260Y-151840091D01*
X66716887Y-152400000D01*
X66828260Y-152959909D01*
X67145423Y-153434577D01*
X67497758Y-153670000D01*
X67145423Y-153905423D01*
X66828260Y-154380091D01*
X66716887Y-154940000D01*
X66828260Y-155499909D01*
X67145423Y-155974577D01*
X67497758Y-156210000D01*
X67145423Y-156445423D01*
X66828260Y-156920091D01*
X66716887Y-157480000D01*
X66828260Y-158039909D01*
X67145423Y-158514577D01*
X67620091Y-158831740D01*
X68038667Y-158915000D01*
X69121333Y-158915000D01*
X69539909Y-158831740D01*
X70014577Y-158514577D01*
X70331740Y-158039909D01*
X70373684Y-157829039D01*
X74408096Y-157829039D01*
X74425633Y-157911819D01*
X74695500Y-158404896D01*
X75133517Y-158757166D01*
X75673000Y-158915000D01*
X76073000Y-158915000D01*
X76073000Y-157607000D01*
X76327000Y-157607000D01*
X76327000Y-158915000D01*
X76727000Y-158915000D01*
X77266483Y-158757166D01*
X77704500Y-158404896D01*
X77974367Y-157911819D01*
X77991904Y-157829039D01*
X77869915Y-157607000D01*
X76327000Y-157607000D01*
X76073000Y-157607000D01*
X74530085Y-157607000D01*
X74408096Y-157829039D01*
X70373684Y-157829039D01*
X70443113Y-157480000D01*
X70331740Y-156920091D01*
X70014577Y-156445423D01*
X69662242Y-156210000D01*
X70014577Y-155974577D01*
X70331740Y-155499909D01*
X70443113Y-154940000D01*
X70331740Y-154380091D01*
X70014577Y-153905423D01*
X69662242Y-153670000D01*
X70014577Y-153434577D01*
X70331740Y-152959909D01*
X70443113Y-152400000D01*
X70331740Y-151840091D01*
X70014577Y-151365423D01*
X69662242Y-151130000D01*
X70014577Y-150894577D01*
X70331740Y-150419909D01*
X70443113Y-149860000D01*
X70331740Y-149300091D01*
X70014577Y-148825423D01*
X69662242Y-148590000D01*
X70014577Y-148354577D01*
X70331740Y-147879909D01*
X70443113Y-147320000D01*
X70331740Y-146760091D01*
X70014577Y-146285423D01*
X69662242Y-146050000D01*
X70014577Y-145814577D01*
X70331740Y-145339909D01*
X70443113Y-144780000D01*
X70331740Y-144220091D01*
X70014577Y-143745423D01*
X69662242Y-143510000D01*
X70014577Y-143274577D01*
X70331740Y-142799909D01*
X70443113Y-142240000D01*
X70331740Y-141680091D01*
X70014577Y-141205423D01*
X69662242Y-140970000D01*
X70014577Y-140734577D01*
X70331740Y-140259909D01*
X70443113Y-139700000D01*
X70331740Y-139140091D01*
X70014577Y-138665423D01*
X69662242Y-138430000D01*
X70014577Y-138194577D01*
X70039968Y-138156577D01*
X70782950Y-138899560D01*
X70824042Y-138961058D01*
X70885539Y-139002149D01*
X70885541Y-139002151D01*
X71067693Y-139123861D01*
X71282556Y-139166600D01*
X71282559Y-139166600D01*
X71355099Y-139181029D01*
X71427640Y-139166600D01*
X74442987Y-139166600D01*
X74336887Y-139700000D01*
X74448260Y-140259909D01*
X74765423Y-140734577D01*
X75117758Y-140970000D01*
X74765423Y-141205423D01*
X74448260Y-141680091D01*
X74336887Y-142240000D01*
X74448260Y-142799909D01*
X74765423Y-143274577D01*
X75117758Y-143510000D01*
X74765423Y-143745423D01*
X74448260Y-144220091D01*
X74336887Y-144780000D01*
X74448260Y-145339909D01*
X74765423Y-145814577D01*
X75117758Y-146050000D01*
X74765423Y-146285423D01*
X74448260Y-146760091D01*
X74336887Y-147320000D01*
X74448260Y-147879909D01*
X74765423Y-148354577D01*
X75117758Y-148590000D01*
X74765423Y-148825423D01*
X74448260Y-149300091D01*
X74336887Y-149860000D01*
X74448260Y-150419909D01*
X74765423Y-150894577D01*
X75117758Y-151130000D01*
X74765423Y-151365423D01*
X74448260Y-151840091D01*
X74336887Y-152400000D01*
X74448260Y-152959909D01*
X74765423Y-153434577D01*
X75117758Y-153670000D01*
X74765423Y-153905423D01*
X74448260Y-154380091D01*
X74336887Y-154940000D01*
X74448260Y-155499909D01*
X74765423Y-155974577D01*
X75121499Y-156212499D01*
X74695500Y-156555104D01*
X74425633Y-157048181D01*
X74408096Y-157130961D01*
X74530085Y-157353000D01*
X76073000Y-157353000D01*
X76073000Y-157333000D01*
X76327000Y-157333000D01*
X76327000Y-157353000D01*
X77869915Y-157353000D01*
X77991904Y-157130961D01*
X77974367Y-157048181D01*
X77704500Y-156555104D01*
X77278501Y-156212499D01*
X77634577Y-155974577D01*
X77951740Y-155499909D01*
X78063113Y-154940000D01*
X77951740Y-154380091D01*
X77634577Y-153905423D01*
X77282242Y-153670000D01*
X77634577Y-153434577D01*
X77951740Y-152959909D01*
X78063113Y-152400000D01*
X77951740Y-151840091D01*
X77634577Y-151365423D01*
X77282242Y-151130000D01*
X77634577Y-150894577D01*
X77951740Y-150419909D01*
X78063113Y-149860000D01*
X77951740Y-149300091D01*
X77634577Y-148825423D01*
X77282242Y-148590000D01*
X77634577Y-148354577D01*
X77951740Y-147879909D01*
X78063113Y-147320000D01*
X77951740Y-146760091D01*
X77634577Y-146285423D01*
X77282242Y-146050000D01*
X77634577Y-145814577D01*
X77951740Y-145339909D01*
X78063113Y-144780000D01*
X77951740Y-144220091D01*
X77634577Y-143745423D01*
X77282242Y-143510000D01*
X79855632Y-143510000D01*
X79964056Y-144055082D01*
X80272820Y-144517180D01*
X80734918Y-144825944D01*
X81142412Y-144907000D01*
X81417588Y-144907000D01*
X81825082Y-144825944D01*
X82287180Y-144517180D01*
X82595944Y-144055082D01*
X82704368Y-143510000D01*
X82595944Y-142964918D01*
X82287180Y-142502820D01*
X81825082Y-142194056D01*
X81417588Y-142113000D01*
X81142412Y-142113000D01*
X80734918Y-142194056D01*
X80272820Y-142502820D01*
X79964056Y-142964918D01*
X79855632Y-143510000D01*
X77282242Y-143510000D01*
X77634577Y-143274577D01*
X77951740Y-142799909D01*
X78063113Y-142240000D01*
X77951740Y-141680091D01*
X77634577Y-141205423D01*
X77282242Y-140970000D01*
X77634577Y-140734577D01*
X77951740Y-140259909D01*
X78063113Y-139700000D01*
X77957013Y-139166600D01*
X80073007Y-139166600D01*
X80095680Y-139221337D01*
X80488663Y-139614320D01*
X81002119Y-139827000D01*
X81557881Y-139827000D01*
X82071337Y-139614320D01*
X82464320Y-139221337D01*
X82486993Y-139166600D01*
X86246321Y-139166600D01*
X86445423Y-139464577D01*
X86797758Y-139700000D01*
X86445423Y-139935423D01*
X86128260Y-140410091D01*
X86016887Y-140970000D01*
X86128260Y-141529909D01*
X86445423Y-142004577D01*
X86797758Y-142240000D01*
X86445423Y-142475423D01*
X86128260Y-142950091D01*
X86016887Y-143510000D01*
X86128260Y-144069909D01*
X86445423Y-144544577D01*
X86797758Y-144780000D01*
X86445423Y-145015423D01*
X86128260Y-145490091D01*
X86016887Y-146050000D01*
X86128260Y-146609909D01*
X86445423Y-147084577D01*
X86566106Y-147165215D01*
X86432235Y-147191843D01*
X86222191Y-147332191D01*
X86081843Y-147542235D01*
X86032560Y-147790000D01*
X86032560Y-149390000D01*
X86081843Y-149637765D01*
X86222191Y-149847809D01*
X86274920Y-149883042D01*
X71375463Y-164782500D01*
X62019688Y-164782500D01*
X61916673Y-164628327D01*
X61408927Y-164289062D01*
X60961182Y-164200000D01*
X60658818Y-164200000D01*
X60211073Y-164289062D01*
X59703327Y-164628327D01*
X59364062Y-165136073D01*
X59244928Y-165735000D01*
X59364062Y-166333927D01*
X59703327Y-166841673D01*
X59947763Y-167005000D01*
X59703327Y-167168327D01*
X59364062Y-167676073D01*
X59244928Y-168275000D01*
X59364062Y-168873927D01*
X59667538Y-169328112D01*
X59550301Y-169376673D01*
X59371673Y-169555302D01*
X59275000Y-169788691D01*
X59275000Y-170529250D01*
X59433750Y-170688000D01*
X60683000Y-170688000D01*
X60683000Y-170668000D01*
X60937000Y-170668000D01*
X60937000Y-170688000D01*
X62186250Y-170688000D01*
X62345000Y-170529250D01*
X62345000Y-169788691D01*
X62248327Y-169555302D01*
X62069699Y-169376673D01*
X61952462Y-169328112D01*
X62255938Y-168873927D01*
X62375072Y-168275000D01*
X75038276Y-168275000D01*
X75223380Y-169205580D01*
X75750511Y-169994489D01*
X76539420Y-170521620D01*
X77235103Y-170660000D01*
X77704897Y-170660000D01*
X78400580Y-170521620D01*
X79189489Y-169994489D01*
X79716620Y-169205580D01*
X79901724Y-168275000D01*
X79716620Y-167344420D01*
X79189489Y-166555511D01*
X78400580Y-166028380D01*
X77704897Y-165890000D01*
X77235103Y-165890000D01*
X76539420Y-166028380D01*
X75750511Y-166555511D01*
X75223380Y-167344420D01*
X75038276Y-168275000D01*
X62375072Y-168275000D01*
X62255938Y-167676073D01*
X61916673Y-167168327D01*
X61672237Y-167005000D01*
X61916673Y-166841673D01*
X62019688Y-166687500D01*
X71676190Y-166687500D01*
X71770000Y-166706160D01*
X71863810Y-166687500D01*
X72141647Y-166632235D01*
X72456714Y-166421714D01*
X72509857Y-166342180D01*
X88087183Y-150764855D01*
X88166714Y-150711714D01*
X88377235Y-150396647D01*
X88432500Y-150118810D01*
X88451160Y-150025001D01*
X88447026Y-150004217D01*
X88527765Y-149988157D01*
X88737809Y-149847809D01*
X88878157Y-149637765D01*
X88927440Y-149390000D01*
X88927440Y-148489598D01*
X89865186Y-147551853D01*
X89944714Y-147498714D01*
X90155235Y-147183647D01*
X90210500Y-146905810D01*
X90229160Y-146812000D01*
X90210500Y-146718190D01*
X90210500Y-129557810D01*
X90229160Y-129464000D01*
X90155235Y-129092353D01*
X89997853Y-128856814D01*
X89944714Y-128777286D01*
X89865186Y-128724148D01*
X88748238Y-127607201D01*
X88878157Y-127412765D01*
X88927440Y-127165000D01*
X88927440Y-126925098D01*
X89865186Y-125987352D01*
X89944714Y-125934214D01*
X90026549Y-125811740D01*
X90155235Y-125619147D01*
X90229160Y-125247500D01*
X90210500Y-125153690D01*
X90210500Y-107182810D01*
X90229160Y-107089000D01*
X90155235Y-106717353D01*
X89997853Y-106481814D01*
X89944714Y-106402286D01*
X89865186Y-106349147D01*
X88898238Y-105382201D01*
X89028157Y-105187765D01*
X89077440Y-104940000D01*
X89077440Y-103340000D01*
X89028157Y-103092235D01*
X88887809Y-102882191D01*
X88677765Y-102741843D01*
X88543894Y-102715215D01*
X88664577Y-102634577D01*
X88981740Y-102159909D01*
X89093113Y-101600000D01*
X88981740Y-101040091D01*
X88664577Y-100565423D01*
X88344007Y-100351225D01*
X88353746Y-100302268D01*
X88664577Y-100094577D01*
X88981740Y-99619909D01*
X89093113Y-99060000D01*
X88981740Y-98500091D01*
X88664577Y-98025423D01*
X88312242Y-97790000D01*
X88664577Y-97554577D01*
X88981740Y-97079909D01*
X89093113Y-96520000D01*
X88981740Y-95960091D01*
X88664577Y-95485423D01*
X88312242Y-95250000D01*
X88664577Y-95014577D01*
X88981740Y-94539909D01*
X89093113Y-93980000D01*
X88981740Y-93420091D01*
X88664577Y-92945423D01*
X88312242Y-92710000D01*
X88664577Y-92474577D01*
X88981740Y-91999909D01*
X89093113Y-91440000D01*
X88981740Y-90880091D01*
X88664577Y-90405423D01*
X88312242Y-90170000D01*
X88664577Y-89934577D01*
X88981740Y-89459909D01*
X89093113Y-88900000D01*
X88981740Y-88340091D01*
X88664577Y-87865423D01*
X88312242Y-87630000D01*
X88664577Y-87394577D01*
X88981740Y-86919909D01*
X89093113Y-86360000D01*
X88981740Y-85800091D01*
X88664577Y-85325423D01*
X88189909Y-85008260D01*
X87771333Y-84925000D01*
X87488667Y-84925000D01*
X87278512Y-84966802D01*
X86932150Y-84620441D01*
X86891058Y-84558942D01*
X86647407Y-84396139D01*
X86432544Y-84353400D01*
X86432540Y-84353400D01*
X86360000Y-84338971D01*
X86287460Y-84353400D01*
X82486993Y-84353400D01*
X82464320Y-84298663D01*
X82071337Y-83905680D01*
X81864487Y-83820000D01*
X82071337Y-83734320D01*
X82464320Y-83341337D01*
X82486993Y-83286600D01*
X83127360Y-83286600D01*
X83199900Y-83301029D01*
X83272440Y-83286600D01*
X83272444Y-83286600D01*
X83487307Y-83243861D01*
X83730958Y-83081058D01*
X83772051Y-83019558D01*
X86420032Y-80371577D01*
X86445423Y-80409577D01*
X86566106Y-80490215D01*
X86432235Y-80516843D01*
X86222191Y-80657191D01*
X86081843Y-80867235D01*
X86032560Y-81115000D01*
X86032560Y-82715000D01*
X86081843Y-82962765D01*
X86222191Y-83172809D01*
X86432235Y-83313157D01*
X86680000Y-83362440D01*
X88280000Y-83362440D01*
X88527765Y-83313157D01*
X88737809Y-83172809D01*
X88878157Y-82962765D01*
X88927440Y-82715000D01*
X88927440Y-81814598D01*
X89416284Y-81325754D01*
X89495814Y-81272614D01*
X89706335Y-80957547D01*
X89761600Y-80679710D01*
X89761600Y-80679709D01*
X89780260Y-80585901D01*
X89761600Y-80492092D01*
X89761600Y-57668904D01*
X89780259Y-57575099D01*
X89761600Y-57481294D01*
X89761600Y-57481290D01*
X89706335Y-57203453D01*
X89495814Y-56888386D01*
X89416283Y-56835245D01*
X79428477Y-46847440D01*
X79705000Y-46847440D01*
X79952765Y-46798157D01*
X80162809Y-46657809D01*
X80303157Y-46447765D01*
X80352440Y-46200000D01*
X80352440Y-42700000D01*
X80303157Y-42452235D01*
X80162809Y-42242191D01*
X79952765Y-42101843D01*
X79705000Y-42052560D01*
X76205000Y-42052560D01*
X75957235Y-42101843D01*
X75747191Y-42242191D01*
X75640000Y-42402612D01*
X75640000Y-41735750D01*
X75481250Y-41577000D01*
X73382000Y-41577000D01*
X73382000Y-43676250D01*
X73540750Y-43835000D01*
X75131310Y-43835000D01*
X75364699Y-43738327D01*
X75543327Y-43559698D01*
X75557560Y-43525337D01*
X75557560Y-46200000D01*
X75606843Y-46447765D01*
X75747191Y-46657809D01*
X75957235Y-46798157D01*
X76205000Y-46847440D01*
X77008990Y-46847440D01*
X77057765Y-47092646D01*
X77057766Y-47092647D01*
X77268287Y-47407714D01*
X77347818Y-47460855D01*
X87856601Y-57969639D01*
X87856601Y-62746798D01*
X87621333Y-62700000D01*
X87338667Y-62700000D01*
X86920091Y-62783260D01*
X86445423Y-63100423D01*
X86128260Y-63575091D01*
X86117283Y-63630276D01*
X86086858Y-63584742D01*
X86025361Y-63543651D01*
X79162150Y-56680441D01*
X79121058Y-56618942D01*
X78877407Y-56456139D01*
X78662544Y-56413400D01*
X78662540Y-56413400D01*
X78590000Y-56398971D01*
X78517460Y-56413400D01*
X77957013Y-56413400D01*
X78063113Y-55880000D01*
X77951740Y-55320091D01*
X77634577Y-54845423D01*
X77513894Y-54764785D01*
X77647765Y-54738157D01*
X77857809Y-54597809D01*
X77998157Y-54387765D01*
X78047440Y-54140000D01*
X78047440Y-52540000D01*
X77998157Y-52292235D01*
X77857809Y-52082191D01*
X77647765Y-51941843D01*
X77400000Y-51892560D01*
X75000000Y-51892560D01*
X74752235Y-51941843D01*
X74542191Y-52082191D01*
X74401843Y-52292235D01*
X74352560Y-52540000D01*
X74352560Y-52682844D01*
X74225341Y-52767849D01*
X74225339Y-52767851D01*
X74163842Y-52808942D01*
X74122750Y-52870440D01*
X73119791Y-53873400D01*
X70337013Y-53873400D01*
X70443113Y-53340000D01*
X70331740Y-52780091D01*
X70014577Y-52305423D01*
X69539909Y-51988260D01*
X69121333Y-51905000D01*
X68038667Y-51905000D01*
X67620091Y-51988260D01*
X67145423Y-52305423D01*
X66828260Y-52780091D01*
X66716887Y-53340000D01*
X66822987Y-53873400D01*
X60482640Y-53873400D01*
X60410100Y-53858971D01*
X60337559Y-53873400D01*
X60337556Y-53873400D01*
X60122693Y-53916139D01*
X59940541Y-54037849D01*
X59940539Y-54037851D01*
X59879042Y-54078942D01*
X59837951Y-54140439D01*
X56554968Y-57423423D01*
X56529577Y-57385423D01*
X56177242Y-57150000D01*
X56529577Y-56914577D01*
X56846740Y-56439909D01*
X56958113Y-55880000D01*
X56846740Y-55320091D01*
X56529577Y-54845423D01*
X56054909Y-54528260D01*
X55636333Y-54445000D01*
X54553667Y-54445000D01*
X54135091Y-54528260D01*
X53672600Y-54837287D01*
X53672600Y-50514561D01*
X54930000Y-50514561D01*
X54930000Y-51085439D01*
X55148466Y-51612862D01*
X55552138Y-52016534D01*
X56079561Y-52235000D01*
X56650439Y-52235000D01*
X57177862Y-52016534D01*
X57386651Y-51807745D01*
X60536861Y-51807745D01*
X60610995Y-52053864D01*
X61148223Y-52246965D01*
X61718454Y-52219778D01*
X62119005Y-52053864D01*
X62193139Y-51807745D01*
X61365000Y-50979605D01*
X60536861Y-51807745D01*
X57386651Y-51807745D01*
X57581534Y-51612862D01*
X57800000Y-51085439D01*
X57800000Y-50583223D01*
X59918035Y-50583223D01*
X59945222Y-51153454D01*
X60111136Y-51554005D01*
X60357255Y-51628139D01*
X61185395Y-50800000D01*
X61544605Y-50800000D01*
X62372745Y-51628139D01*
X62618864Y-51554005D01*
X62811965Y-51016777D01*
X62784778Y-50446546D01*
X62618864Y-50045995D01*
X62372745Y-49971861D01*
X61544605Y-50800000D01*
X61185395Y-50800000D01*
X60357255Y-49971861D01*
X60111136Y-50045995D01*
X59918035Y-50583223D01*
X57800000Y-50583223D01*
X57800000Y-50514561D01*
X57581534Y-49987138D01*
X57386651Y-49792255D01*
X60536861Y-49792255D01*
X61365000Y-50620395D01*
X62193139Y-49792255D01*
X62119005Y-49546136D01*
X61581777Y-49353035D01*
X61011546Y-49380222D01*
X60610995Y-49546136D01*
X60536861Y-49792255D01*
X57386651Y-49792255D01*
X57177862Y-49583466D01*
X56650439Y-49365000D01*
X56079561Y-49365000D01*
X55552138Y-49583466D01*
X55148466Y-49987138D01*
X54930000Y-50514561D01*
X53672600Y-50514561D01*
X53672600Y-49974209D01*
X61911059Y-41735750D01*
X70870000Y-41735750D01*
X70870000Y-43326309D01*
X70966673Y-43559698D01*
X71145301Y-43738327D01*
X71378690Y-43835000D01*
X72969250Y-43835000D01*
X73128000Y-43676250D01*
X73128000Y-41577000D01*
X71028750Y-41577000D01*
X70870000Y-41735750D01*
X61911059Y-41735750D01*
X62549561Y-41097249D01*
X62611058Y-41056158D01*
X62652149Y-40994661D01*
X62652151Y-40994659D01*
X62773861Y-40812507D01*
X62800964Y-40676250D01*
X62801421Y-40673956D01*
X63150625Y-40440625D01*
X63363843Y-40121522D01*
X63424817Y-40251358D01*
X63853076Y-40641645D01*
X64263110Y-40811476D01*
X64493000Y-40690155D01*
X64493000Y-39497000D01*
X64747000Y-39497000D01*
X64747000Y-40690155D01*
X64976890Y-40811476D01*
X65386924Y-40641645D01*
X65815183Y-40251358D01*
X66061486Y-39726892D01*
X65981074Y-39573691D01*
X70870000Y-39573691D01*
X70870000Y-41164250D01*
X71028750Y-41323000D01*
X73128000Y-41323000D01*
X73128000Y-39223750D01*
X73382000Y-39223750D01*
X73382000Y-41323000D01*
X75481250Y-41323000D01*
X75640000Y-41164250D01*
X75640000Y-40495304D01*
X75666673Y-40559698D01*
X75845301Y-40738327D01*
X76078690Y-40835000D01*
X77669250Y-40835000D01*
X77828000Y-40676250D01*
X77828000Y-38577000D01*
X78082000Y-38577000D01*
X78082000Y-40676250D01*
X78240750Y-40835000D01*
X79831310Y-40835000D01*
X80064699Y-40738327D01*
X80243327Y-40559698D01*
X80340000Y-40326309D01*
X80340000Y-38735750D01*
X80181250Y-38577000D01*
X78082000Y-38577000D01*
X77828000Y-38577000D01*
X75728750Y-38577000D01*
X75570000Y-38735750D01*
X75570000Y-39404696D01*
X75543327Y-39340302D01*
X75364699Y-39161673D01*
X75131310Y-39065000D01*
X73540750Y-39065000D01*
X73382000Y-39223750D01*
X73128000Y-39223750D01*
X72969250Y-39065000D01*
X71378690Y-39065000D01*
X71145301Y-39161673D01*
X70966673Y-39340302D01*
X70870000Y-39573691D01*
X65981074Y-39573691D01*
X65940819Y-39497000D01*
X64747000Y-39497000D01*
X64493000Y-39497000D01*
X64473000Y-39497000D01*
X64473000Y-39243000D01*
X64493000Y-39243000D01*
X64493000Y-38049845D01*
X64747000Y-38049845D01*
X64747000Y-39243000D01*
X65940819Y-39243000D01*
X66061486Y-39013108D01*
X65815183Y-38488642D01*
X65386924Y-38098355D01*
X64976890Y-37928524D01*
X64747000Y-38049845D01*
X64493000Y-38049845D01*
X64263110Y-37928524D01*
X63853076Y-38098355D01*
X63424817Y-38488642D01*
X63363843Y-38618478D01*
X63150625Y-38299375D01*
X62659418Y-37971161D01*
X62226256Y-37885000D01*
X61933744Y-37885000D01*
X61500582Y-37971161D01*
X61009375Y-38299375D01*
X60810000Y-38597761D01*
X60610625Y-38299375D01*
X60119418Y-37971161D01*
X59686256Y-37885000D01*
X59393744Y-37885000D01*
X58960582Y-37971161D01*
X58469375Y-38299375D01*
X58457184Y-38317619D01*
X58448157Y-38272235D01*
X58307809Y-38062191D01*
X58097765Y-37921843D01*
X57850000Y-37872560D01*
X56150000Y-37872560D01*
X55902235Y-37921843D01*
X55692191Y-38062191D01*
X55551843Y-38272235D01*
X55502560Y-38520000D01*
X55502560Y-40220000D01*
X55551843Y-40467765D01*
X55692191Y-40677809D01*
X55902235Y-40818157D01*
X56150000Y-40867440D01*
X57850000Y-40867440D01*
X58097765Y-40818157D01*
X58307809Y-40677809D01*
X58448157Y-40467765D01*
X58457184Y-40422381D01*
X58469375Y-40440625D01*
X58960582Y-40768839D01*
X59393744Y-40855000D01*
X59686256Y-40855000D01*
X60119418Y-40768839D01*
X60610625Y-40440625D01*
X60810000Y-40142239D01*
X61009375Y-40440625D01*
X61077347Y-40486043D01*
X52466442Y-49096949D01*
X52404942Y-49138042D01*
X52242139Y-49381694D01*
X52199400Y-49596557D01*
X52199400Y-49596560D01*
X52184971Y-49669100D01*
X52199400Y-49741640D01*
X52199401Y-65313555D01*
X52184971Y-65386100D01*
X52242139Y-65673506D01*
X52363849Y-65855658D01*
X52363852Y-65855661D01*
X52404943Y-65917158D01*
X52466440Y-65958249D01*
X52548191Y-66040000D01*
X52466442Y-66121749D01*
X52404942Y-66162842D01*
X52242139Y-66406494D01*
X52199400Y-66621357D01*
X52199400Y-66621360D01*
X52184971Y-66693900D01*
X52199400Y-66766440D01*
X52199401Y-93399455D01*
X52184971Y-93472000D01*
X52242139Y-93759406D01*
X52363849Y-93941558D01*
X52363852Y-93941561D01*
X52404943Y-94003058D01*
X52466440Y-94044149D01*
X52475291Y-94053000D01*
X52212442Y-94315849D01*
X52150942Y-94356942D01*
X51988139Y-94600594D01*
X51945400Y-94815457D01*
X51945400Y-94815460D01*
X51930971Y-94888000D01*
X51360000Y-94888000D01*
X51360000Y-36270000D01*
X75736975Y-36270000D01*
X75666673Y-36340302D01*
G36*
X60867560Y-112560000D02*
X60916843Y-112807765D01*
X61057191Y-113017809D01*
X61267235Y-113158157D01*
X61401106Y-113184785D01*
X61280423Y-113265423D01*
X60963260Y-113740091D01*
X60851887Y-114300000D01*
X60963260Y-114859909D01*
X61280423Y-115334577D01*
X61632758Y-115570000D01*
X61280423Y-115805423D01*
X60963260Y-116280091D01*
X60851887Y-116840000D01*
X60963260Y-117399909D01*
X61280423Y-117874577D01*
X61632758Y-118110000D01*
X61280423Y-118345423D01*
X60963260Y-118820091D01*
X60851887Y-119380000D01*
X60963260Y-119939909D01*
X61280423Y-120414577D01*
X61632758Y-120650000D01*
X61280423Y-120885423D01*
X60963260Y-121360091D01*
X60851887Y-121920000D01*
X60963260Y-122479909D01*
X61280423Y-122954577D01*
X61632758Y-123190000D01*
X61280423Y-123425423D01*
X60963260Y-123900091D01*
X60851887Y-124460000D01*
X60963260Y-125019909D01*
X61280423Y-125494577D01*
X61632758Y-125730000D01*
X61280423Y-125965423D01*
X60963260Y-126440091D01*
X60851887Y-127000000D01*
X60963260Y-127559909D01*
X61280423Y-128034577D01*
X61636499Y-128272499D01*
X61210500Y-128615104D01*
X60940633Y-129108181D01*
X60923096Y-129190961D01*
X61045085Y-129413000D01*
X62588000Y-129413000D01*
X62588000Y-129393000D01*
X62842000Y-129393000D01*
X62842000Y-129413000D01*
X64384915Y-129413000D01*
X64506904Y-129190961D01*
X64489367Y-129108181D01*
X64219500Y-128615104D01*
X63793501Y-128272499D01*
X64149577Y-128034577D01*
X64174968Y-127996577D01*
X64917950Y-128739560D01*
X64959042Y-128801058D01*
X65020539Y-128842149D01*
X65020541Y-128842151D01*
X65042486Y-128856814D01*
X65202693Y-128963861D01*
X65417556Y-129006600D01*
X65417559Y-129006600D01*
X65490099Y-129021029D01*
X65562640Y-129006600D01*
X66822987Y-129006600D01*
X66716887Y-129540000D01*
X66828260Y-130099909D01*
X67145423Y-130574577D01*
X67620091Y-130891740D01*
X68038667Y-130975000D01*
X69121333Y-130975000D01*
X69539909Y-130891740D01*
X70014577Y-130574577D01*
X70331740Y-130099909D01*
X70373684Y-129889039D01*
X74408096Y-129889039D01*
X74425633Y-129971819D01*
X74695500Y-130464896D01*
X75133517Y-130817166D01*
X75673000Y-130975000D01*
X76073000Y-130975000D01*
X76073000Y-129667000D01*
X76327000Y-129667000D01*
X76327000Y-130975000D01*
X76727000Y-130975000D01*
X77266483Y-130817166D01*
X77704500Y-130464896D01*
X77974367Y-129971819D01*
X77991904Y-129889039D01*
X77869915Y-129667000D01*
X76327000Y-129667000D01*
X76073000Y-129667000D01*
X74530085Y-129667000D01*
X74408096Y-129889039D01*
X70373684Y-129889039D01*
X70443113Y-129540000D01*
X70337013Y-129006600D01*
X73352360Y-129006600D01*
X73424900Y-129021029D01*
X73497440Y-129006600D01*
X73497444Y-129006600D01*
X73712307Y-128963861D01*
X73955958Y-128801058D01*
X73997051Y-128739558D01*
X74740032Y-127996577D01*
X74765423Y-128034577D01*
X75121499Y-128272499D01*
X74695500Y-128615104D01*
X74425633Y-129108181D01*
X74408096Y-129190961D01*
X74530085Y-129413000D01*
X76073000Y-129413000D01*
X76073000Y-129393000D01*
X76327000Y-129393000D01*
X76327000Y-129413000D01*
X77869915Y-129413000D01*
X77991904Y-129190961D01*
X77974367Y-129108181D01*
X77704500Y-128615104D01*
X77278501Y-128272499D01*
X77634577Y-128034577D01*
X77951740Y-127559909D01*
X78063113Y-127000000D01*
X77951740Y-126440091D01*
X77634577Y-125965423D01*
X77282242Y-125730000D01*
X77634577Y-125494577D01*
X77951740Y-125019909D01*
X78063113Y-124460000D01*
X77951740Y-123900091D01*
X77634577Y-123425423D01*
X77282242Y-123190000D01*
X77634577Y-122954577D01*
X77951740Y-122479909D01*
X78063113Y-121920000D01*
X77951740Y-121360091D01*
X77634577Y-120885423D01*
X77282242Y-120650000D01*
X77526645Y-120486695D01*
X77550942Y-120523058D01*
X77612442Y-120564151D01*
X79905673Y-122857382D01*
X79883000Y-122912119D01*
X79883000Y-123467881D01*
X80095680Y-123981337D01*
X80488663Y-124374320D01*
X80695513Y-124460000D01*
X80488663Y-124545680D01*
X80095680Y-124938663D01*
X79883000Y-125452119D01*
X79883000Y-126007881D01*
X80095680Y-126521337D01*
X80488663Y-126914320D01*
X80695513Y-127000000D01*
X80488663Y-127085680D01*
X80095680Y-127478663D01*
X79883000Y-127992119D01*
X79883000Y-128547881D01*
X80095680Y-129061337D01*
X80488663Y-129454320D01*
X80695513Y-129540000D01*
X80488663Y-129625680D01*
X80095680Y-130018663D01*
X79883000Y-130532119D01*
X79883000Y-131087881D01*
X80095680Y-131601337D01*
X80488663Y-131994320D01*
X80695513Y-132080000D01*
X80488663Y-132165680D01*
X80095680Y-132558663D01*
X79883000Y-133072119D01*
X79883000Y-133627881D01*
X80095680Y-134141337D01*
X80488663Y-134534320D01*
X80695513Y-134620000D01*
X80488663Y-134705680D01*
X80095680Y-135098663D01*
X79883000Y-135612119D01*
X79883000Y-136167881D01*
X80095680Y-136681337D01*
X80488663Y-137074320D01*
X80695513Y-137160000D01*
X80488663Y-137245680D01*
X80095680Y-137638663D01*
X80073007Y-137693400D01*
X78047440Y-137693400D01*
X78047440Y-136360000D01*
X77998157Y-136112235D01*
X77857809Y-135902191D01*
X77647765Y-135761843D01*
X77400000Y-135712560D01*
X76789068Y-135712560D01*
X76731058Y-135625742D01*
X76669558Y-135584649D01*
X76251351Y-135166442D01*
X76210258Y-135104942D01*
X75966607Y-134942139D01*
X75751744Y-134899400D01*
X75751740Y-134899400D01*
X75679200Y-134884971D01*
X75606660Y-134899400D01*
X63809738Y-134899400D01*
X63737199Y-134884971D01*
X63664660Y-134899400D01*
X63664656Y-134899400D01*
X63449793Y-134942139D01*
X63396229Y-134977929D01*
X63446965Y-134836777D01*
X63419778Y-134266546D01*
X63253864Y-133865995D01*
X63007745Y-133791861D01*
X62179605Y-134620000D01*
X62193748Y-134634143D01*
X62014143Y-134813748D01*
X62000000Y-134799605D01*
X61171861Y-135627745D01*
X61245995Y-135873864D01*
X61783223Y-136066965D01*
X62288622Y-136042869D01*
X57141493Y-141189998D01*
X56812242Y-140970000D01*
X57164577Y-140734577D01*
X57481740Y-140259909D01*
X57593113Y-139700000D01*
X57481740Y-139140091D01*
X57164577Y-138665423D01*
X56689909Y-138348260D01*
X56271333Y-138265000D01*
X55188667Y-138265000D01*
X54770091Y-138348260D01*
X54295423Y-138665423D01*
X54180600Y-138837268D01*
X54180600Y-134334561D01*
X55565000Y-134334561D01*
X55565000Y-134905439D01*
X55783466Y-135432862D01*
X56187138Y-135836534D01*
X56714561Y-136055000D01*
X57285439Y-136055000D01*
X57812862Y-135836534D01*
X58216534Y-135432862D01*
X58435000Y-134905439D01*
X58435000Y-134403223D01*
X60553035Y-134403223D01*
X60580222Y-134973454D01*
X60746136Y-135374005D01*
X60992255Y-135448139D01*
X61820395Y-134620000D01*
X60992255Y-133791861D01*
X60746136Y-133865995D01*
X60553035Y-134403223D01*
X58435000Y-134403223D01*
X58435000Y-134334561D01*
X58216534Y-133807138D01*
X58021651Y-133612255D01*
X61171861Y-133612255D01*
X62000000Y-134440395D01*
X62828139Y-133612255D01*
X62754005Y-133366136D01*
X62216777Y-133173035D01*
X61646546Y-133200222D01*
X61245995Y-133366136D01*
X61171861Y-133612255D01*
X58021651Y-133612255D01*
X57812862Y-133403466D01*
X57285439Y-133185000D01*
X56714561Y-133185000D01*
X56187138Y-133403466D01*
X55783466Y-133807138D01*
X55565000Y-134334561D01*
X54180600Y-134334561D01*
X54180600Y-131496109D01*
X54701709Y-130975000D01*
X55636333Y-130975000D01*
X56054909Y-130891740D01*
X56529577Y-130574577D01*
X56846740Y-130099909D01*
X56888684Y-129889039D01*
X60923096Y-129889039D01*
X60940633Y-129971819D01*
X61210500Y-130464896D01*
X61648517Y-130817166D01*
X62188000Y-130975000D01*
X62588000Y-130975000D01*
X62588000Y-129667000D01*
X62842000Y-129667000D01*
X62842000Y-130975000D01*
X63242000Y-130975000D01*
X63781483Y-130817166D01*
X64219500Y-130464896D01*
X64489367Y-129971819D01*
X64506904Y-129889039D01*
X64384915Y-129667000D01*
X62842000Y-129667000D01*
X62588000Y-129667000D01*
X61045085Y-129667000D01*
X60923096Y-129889039D01*
X56888684Y-129889039D01*
X56958113Y-129540000D01*
X56846740Y-128980091D01*
X56529577Y-128505423D01*
X56177242Y-128270000D01*
X56529577Y-128034577D01*
X56846740Y-127559909D01*
X56958113Y-127000000D01*
X56846740Y-126440091D01*
X56529577Y-125965423D01*
X56177242Y-125730000D01*
X56529577Y-125494577D01*
X56846740Y-125019909D01*
X56958113Y-124460000D01*
X56846740Y-123900091D01*
X56529577Y-123425423D01*
X56177242Y-123190000D01*
X56529577Y-122954577D01*
X56846740Y-122479909D01*
X56958113Y-121920000D01*
X56846740Y-121360091D01*
X56529577Y-120885423D01*
X56173501Y-120647501D01*
X56599500Y-120304896D01*
X56869367Y-119811819D01*
X56886904Y-119729039D01*
X56764915Y-119507000D01*
X55222000Y-119507000D01*
X55222000Y-119527000D01*
X54968000Y-119527000D01*
X54968000Y-119507000D01*
X54948000Y-119507000D01*
X54948000Y-119253000D01*
X54968000Y-119253000D01*
X54968000Y-119233000D01*
X55222000Y-119233000D01*
X55222000Y-119253000D01*
X56764915Y-119253000D01*
X56886904Y-119030961D01*
X56869367Y-118948181D01*
X56599500Y-118455104D01*
X56173501Y-118112499D01*
X56529577Y-117874577D01*
X56846740Y-117399909D01*
X56958113Y-116840000D01*
X56846740Y-116280091D01*
X56529577Y-115805423D01*
X56177242Y-115570000D01*
X56529577Y-115334577D01*
X56737268Y-115023745D01*
X56887507Y-114993861D01*
X57131158Y-114831058D01*
X57172251Y-114769558D01*
X60715210Y-111226600D01*
X60867560Y-111226600D01*
X60867560Y-112560000D01*
X60867560Y-112560000D01*
G37*
X60867560Y-112560000D02*
X60916843Y-112807765D01*
X61057191Y-113017809D01*
X61267235Y-113158157D01*
X61401106Y-113184785D01*
X61280423Y-113265423D01*
X60963260Y-113740091D01*
X60851887Y-114300000D01*
X60963260Y-114859909D01*
X61280423Y-115334577D01*
X61632758Y-115570000D01*
X61280423Y-115805423D01*
X60963260Y-116280091D01*
X60851887Y-116840000D01*
X60963260Y-117399909D01*
X61280423Y-117874577D01*
X61632758Y-118110000D01*
X61280423Y-118345423D01*
X60963260Y-118820091D01*
X60851887Y-119380000D01*
X60963260Y-119939909D01*
X61280423Y-120414577D01*
X61632758Y-120650000D01*
X61280423Y-120885423D01*
X60963260Y-121360091D01*
X60851887Y-121920000D01*
X60963260Y-122479909D01*
X61280423Y-122954577D01*
X61632758Y-123190000D01*
X61280423Y-123425423D01*
X60963260Y-123900091D01*
X60851887Y-124460000D01*
X60963260Y-125019909D01*
X61280423Y-125494577D01*
X61632758Y-125730000D01*
X61280423Y-125965423D01*
X60963260Y-126440091D01*
X60851887Y-127000000D01*
X60963260Y-127559909D01*
X61280423Y-128034577D01*
X61636499Y-128272499D01*
X61210500Y-128615104D01*
X60940633Y-129108181D01*
X60923096Y-129190961D01*
X61045085Y-129413000D01*
X62588000Y-129413000D01*
X62588000Y-129393000D01*
X62842000Y-129393000D01*
X62842000Y-129413000D01*
X64384915Y-129413000D01*
X64506904Y-129190961D01*
X64489367Y-129108181D01*
X64219500Y-128615104D01*
X63793501Y-128272499D01*
X64149577Y-128034577D01*
X64174968Y-127996577D01*
X64917950Y-128739560D01*
X64959042Y-128801058D01*
X65020539Y-128842149D01*
X65020541Y-128842151D01*
X65042486Y-128856814D01*
X65202693Y-128963861D01*
X65417556Y-129006600D01*
X65417559Y-129006600D01*
X65490099Y-129021029D01*
X65562640Y-129006600D01*
X66822987Y-129006600D01*
X66716887Y-129540000D01*
X66828260Y-130099909D01*
X67145423Y-130574577D01*
X67620091Y-130891740D01*
X68038667Y-130975000D01*
X69121333Y-130975000D01*
X69539909Y-130891740D01*
X70014577Y-130574577D01*
X70331740Y-130099909D01*
X70373684Y-129889039D01*
X74408096Y-129889039D01*
X74425633Y-129971819D01*
X74695500Y-130464896D01*
X75133517Y-130817166D01*
X75673000Y-130975000D01*
X76073000Y-130975000D01*
X76073000Y-129667000D01*
X76327000Y-129667000D01*
X76327000Y-130975000D01*
X76727000Y-130975000D01*
X77266483Y-130817166D01*
X77704500Y-130464896D01*
X77974367Y-129971819D01*
X77991904Y-129889039D01*
X77869915Y-129667000D01*
X76327000Y-129667000D01*
X76073000Y-129667000D01*
X74530085Y-129667000D01*
X74408096Y-129889039D01*
X70373684Y-129889039D01*
X70443113Y-129540000D01*
X70337013Y-129006600D01*
X73352360Y-129006600D01*
X73424900Y-129021029D01*
X73497440Y-129006600D01*
X73497444Y-129006600D01*
X73712307Y-128963861D01*
X73955958Y-128801058D01*
X73997051Y-128739558D01*
X74740032Y-127996577D01*
X74765423Y-128034577D01*
X75121499Y-128272499D01*
X74695500Y-128615104D01*
X74425633Y-129108181D01*
X74408096Y-129190961D01*
X74530085Y-129413000D01*
X76073000Y-129413000D01*
X76073000Y-129393000D01*
X76327000Y-129393000D01*
X76327000Y-129413000D01*
X77869915Y-129413000D01*
X77991904Y-129190961D01*
X77974367Y-129108181D01*
X77704500Y-128615104D01*
X77278501Y-128272499D01*
X77634577Y-128034577D01*
X77951740Y-127559909D01*
X78063113Y-127000000D01*
X77951740Y-126440091D01*
X77634577Y-125965423D01*
X77282242Y-125730000D01*
X77634577Y-125494577D01*
X77951740Y-125019909D01*
X78063113Y-124460000D01*
X77951740Y-123900091D01*
X77634577Y-123425423D01*
X77282242Y-123190000D01*
X77634577Y-122954577D01*
X77951740Y-122479909D01*
X78063113Y-121920000D01*
X77951740Y-121360091D01*
X77634577Y-120885423D01*
X77282242Y-120650000D01*
X77526645Y-120486695D01*
X77550942Y-120523058D01*
X77612442Y-120564151D01*
X79905673Y-122857382D01*
X79883000Y-122912119D01*
X79883000Y-123467881D01*
X80095680Y-123981337D01*
X80488663Y-124374320D01*
X80695513Y-124460000D01*
X80488663Y-124545680D01*
X80095680Y-124938663D01*
X79883000Y-125452119D01*
X79883000Y-126007881D01*
X80095680Y-126521337D01*
X80488663Y-126914320D01*
X80695513Y-127000000D01*
X80488663Y-127085680D01*
X80095680Y-127478663D01*
X79883000Y-127992119D01*
X79883000Y-128547881D01*
X80095680Y-129061337D01*
X80488663Y-129454320D01*
X80695513Y-129540000D01*
X80488663Y-129625680D01*
X80095680Y-130018663D01*
X79883000Y-130532119D01*
X79883000Y-131087881D01*
X80095680Y-131601337D01*
X80488663Y-131994320D01*
X80695513Y-132080000D01*
X80488663Y-132165680D01*
X80095680Y-132558663D01*
X79883000Y-133072119D01*
X79883000Y-133627881D01*
X80095680Y-134141337D01*
X80488663Y-134534320D01*
X80695513Y-134620000D01*
X80488663Y-134705680D01*
X80095680Y-135098663D01*
X79883000Y-135612119D01*
X79883000Y-136167881D01*
X80095680Y-136681337D01*
X80488663Y-137074320D01*
X80695513Y-137160000D01*
X80488663Y-137245680D01*
X80095680Y-137638663D01*
X80073007Y-137693400D01*
X78047440Y-137693400D01*
X78047440Y-136360000D01*
X77998157Y-136112235D01*
X77857809Y-135902191D01*
X77647765Y-135761843D01*
X77400000Y-135712560D01*
X76789068Y-135712560D01*
X76731058Y-135625742D01*
X76669558Y-135584649D01*
X76251351Y-135166442D01*
X76210258Y-135104942D01*
X75966607Y-134942139D01*
X75751744Y-134899400D01*
X75751740Y-134899400D01*
X75679200Y-134884971D01*
X75606660Y-134899400D01*
X63809738Y-134899400D01*
X63737199Y-134884971D01*
X63664660Y-134899400D01*
X63664656Y-134899400D01*
X63449793Y-134942139D01*
X63396229Y-134977929D01*
X63446965Y-134836777D01*
X63419778Y-134266546D01*
X63253864Y-133865995D01*
X63007745Y-133791861D01*
X62179605Y-134620000D01*
X62193748Y-134634143D01*
X62014143Y-134813748D01*
X62000000Y-134799605D01*
X61171861Y-135627745D01*
X61245995Y-135873864D01*
X61783223Y-136066965D01*
X62288622Y-136042869D01*
X57141493Y-141189998D01*
X56812242Y-140970000D01*
X57164577Y-140734577D01*
X57481740Y-140259909D01*
X57593113Y-139700000D01*
X57481740Y-139140091D01*
X57164577Y-138665423D01*
X56689909Y-138348260D01*
X56271333Y-138265000D01*
X55188667Y-138265000D01*
X54770091Y-138348260D01*
X54295423Y-138665423D01*
X54180600Y-138837268D01*
X54180600Y-134334561D01*
X55565000Y-134334561D01*
X55565000Y-134905439D01*
X55783466Y-135432862D01*
X56187138Y-135836534D01*
X56714561Y-136055000D01*
X57285439Y-136055000D01*
X57812862Y-135836534D01*
X58216534Y-135432862D01*
X58435000Y-134905439D01*
X58435000Y-134403223D01*
X60553035Y-134403223D01*
X60580222Y-134973454D01*
X60746136Y-135374005D01*
X60992255Y-135448139D01*
X61820395Y-134620000D01*
X60992255Y-133791861D01*
X60746136Y-133865995D01*
X60553035Y-134403223D01*
X58435000Y-134403223D01*
X58435000Y-134334561D01*
X58216534Y-133807138D01*
X58021651Y-133612255D01*
X61171861Y-133612255D01*
X62000000Y-134440395D01*
X62828139Y-133612255D01*
X62754005Y-133366136D01*
X62216777Y-133173035D01*
X61646546Y-133200222D01*
X61245995Y-133366136D01*
X61171861Y-133612255D01*
X58021651Y-133612255D01*
X57812862Y-133403466D01*
X57285439Y-133185000D01*
X56714561Y-133185000D01*
X56187138Y-133403466D01*
X55783466Y-133807138D01*
X55565000Y-134334561D01*
X54180600Y-134334561D01*
X54180600Y-131496109D01*
X54701709Y-130975000D01*
X55636333Y-130975000D01*
X56054909Y-130891740D01*
X56529577Y-130574577D01*
X56846740Y-130099909D01*
X56888684Y-129889039D01*
X60923096Y-129889039D01*
X60940633Y-129971819D01*
X61210500Y-130464896D01*
X61648517Y-130817166D01*
X62188000Y-130975000D01*
X62588000Y-130975000D01*
X62588000Y-129667000D01*
X62842000Y-129667000D01*
X62842000Y-130975000D01*
X63242000Y-130975000D01*
X63781483Y-130817166D01*
X64219500Y-130464896D01*
X64489367Y-129971819D01*
X64506904Y-129889039D01*
X64384915Y-129667000D01*
X62842000Y-129667000D01*
X62588000Y-129667000D01*
X61045085Y-129667000D01*
X60923096Y-129889039D01*
X56888684Y-129889039D01*
X56958113Y-129540000D01*
X56846740Y-128980091D01*
X56529577Y-128505423D01*
X56177242Y-128270000D01*
X56529577Y-128034577D01*
X56846740Y-127559909D01*
X56958113Y-127000000D01*
X56846740Y-126440091D01*
X56529577Y-125965423D01*
X56177242Y-125730000D01*
X56529577Y-125494577D01*
X56846740Y-125019909D01*
X56958113Y-124460000D01*
X56846740Y-123900091D01*
X56529577Y-123425423D01*
X56177242Y-123190000D01*
X56529577Y-122954577D01*
X56846740Y-122479909D01*
X56958113Y-121920000D01*
X56846740Y-121360091D01*
X56529577Y-120885423D01*
X56173501Y-120647501D01*
X56599500Y-120304896D01*
X56869367Y-119811819D01*
X56886904Y-119729039D01*
X56764915Y-119507000D01*
X55222000Y-119507000D01*
X55222000Y-119527000D01*
X54968000Y-119527000D01*
X54968000Y-119507000D01*
X54948000Y-119507000D01*
X54948000Y-119253000D01*
X54968000Y-119253000D01*
X54968000Y-119233000D01*
X55222000Y-119233000D01*
X55222000Y-119253000D01*
X56764915Y-119253000D01*
X56886904Y-119030961D01*
X56869367Y-118948181D01*
X56599500Y-118455104D01*
X56173501Y-118112499D01*
X56529577Y-117874577D01*
X56846740Y-117399909D01*
X56958113Y-116840000D01*
X56846740Y-116280091D01*
X56529577Y-115805423D01*
X56177242Y-115570000D01*
X56529577Y-115334577D01*
X56737268Y-115023745D01*
X56887507Y-114993861D01*
X57131158Y-114831058D01*
X57172251Y-114769558D01*
X60715210Y-111226600D01*
X60867560Y-111226600D01*
X60867560Y-112560000D01*
G36*
X60867560Y-84620000D02*
X60916843Y-84867765D01*
X61057191Y-85077809D01*
X61267235Y-85218157D01*
X61401106Y-85244785D01*
X61280423Y-85325423D01*
X60963260Y-85800091D01*
X60851887Y-86360000D01*
X60963260Y-86919909D01*
X61280423Y-87394577D01*
X61632758Y-87630000D01*
X61280423Y-87865423D01*
X60963260Y-88340091D01*
X60851887Y-88900000D01*
X60963260Y-89459909D01*
X61280423Y-89934577D01*
X61632758Y-90170000D01*
X61280423Y-90405423D01*
X60963260Y-90880091D01*
X60851887Y-91440000D01*
X60963260Y-91999909D01*
X61280423Y-92474577D01*
X61632758Y-92710000D01*
X61280423Y-92945423D01*
X60963260Y-93420091D01*
X60851887Y-93980000D01*
X60963260Y-94539909D01*
X61280423Y-95014577D01*
X61632758Y-95250000D01*
X61280423Y-95485423D01*
X60963260Y-95960091D01*
X60851887Y-96520000D01*
X60963260Y-97079909D01*
X61280423Y-97554577D01*
X61632758Y-97790000D01*
X61280423Y-98025423D01*
X60963260Y-98500091D01*
X60851887Y-99060000D01*
X60963260Y-99619909D01*
X61280423Y-100094577D01*
X61636499Y-100332499D01*
X61210500Y-100675104D01*
X60940633Y-101168181D01*
X60923096Y-101250961D01*
X61045085Y-101473000D01*
X62588000Y-101473000D01*
X62588000Y-101453000D01*
X62842000Y-101453000D01*
X62842000Y-101473000D01*
X64384915Y-101473000D01*
X64506904Y-101250961D01*
X64489367Y-101168181D01*
X64219500Y-100675104D01*
X63793501Y-100332499D01*
X64149577Y-100094577D01*
X64174968Y-100056577D01*
X64917950Y-100799560D01*
X64959042Y-100861058D01*
X65020539Y-100902149D01*
X65020541Y-100902151D01*
X65202693Y-101023861D01*
X65417556Y-101066600D01*
X65417559Y-101066600D01*
X65490099Y-101081029D01*
X65562640Y-101066600D01*
X66822987Y-101066600D01*
X66716887Y-101600000D01*
X66828260Y-102159909D01*
X67145423Y-102634577D01*
X67620091Y-102951740D01*
X68038667Y-103035000D01*
X69121333Y-103035000D01*
X69539909Y-102951740D01*
X70014577Y-102634577D01*
X70331740Y-102159909D01*
X70443113Y-101600000D01*
X70337013Y-101066600D01*
X72694874Y-101066600D01*
X72650000Y-101174935D01*
X72650000Y-101517065D01*
X72773400Y-101814978D01*
X72773401Y-102401044D01*
X72650016Y-102698919D01*
X72650016Y-103041049D01*
X72780944Y-103357135D01*
X73022865Y-103599056D01*
X73338951Y-103729984D01*
X73681081Y-103729984D01*
X73997167Y-103599056D01*
X74239088Y-103357135D01*
X74370016Y-103041049D01*
X74370016Y-102698919D01*
X74246600Y-102400968D01*
X74246600Y-101949039D01*
X74408096Y-101949039D01*
X74425633Y-102031819D01*
X74695500Y-102524896D01*
X75133517Y-102877166D01*
X75673000Y-103035000D01*
X76073000Y-103035000D01*
X76073000Y-101727000D01*
X76327000Y-101727000D01*
X76327000Y-103035000D01*
X76727000Y-103035000D01*
X77266483Y-102877166D01*
X77704500Y-102524896D01*
X77974367Y-102031819D01*
X77991904Y-101949039D01*
X77869915Y-101727000D01*
X76327000Y-101727000D01*
X76073000Y-101727000D01*
X74530085Y-101727000D01*
X74408096Y-101949039D01*
X74246600Y-101949039D01*
X74246600Y-101814977D01*
X74370000Y-101517065D01*
X74370000Y-101174935D01*
X74239072Y-100858849D01*
X74088416Y-100708193D01*
X74740032Y-100056577D01*
X74765423Y-100094577D01*
X75121499Y-100332499D01*
X74695500Y-100675104D01*
X74425633Y-101168181D01*
X74408096Y-101250961D01*
X74530085Y-101473000D01*
X76073000Y-101473000D01*
X76073000Y-101453000D01*
X76327000Y-101453000D01*
X76327000Y-101473000D01*
X77869915Y-101473000D01*
X77991904Y-101250961D01*
X77974367Y-101168181D01*
X77704500Y-100675104D01*
X77278501Y-100332499D01*
X77634577Y-100094577D01*
X77951740Y-99619909D01*
X78063113Y-99060000D01*
X77951740Y-98500091D01*
X77634577Y-98025423D01*
X77282242Y-97790000D01*
X77634577Y-97554577D01*
X77951740Y-97079909D01*
X78063113Y-96520000D01*
X77951740Y-95960091D01*
X77634577Y-95485423D01*
X77282242Y-95250000D01*
X77634577Y-95014577D01*
X77951740Y-94539909D01*
X78063113Y-93980000D01*
X77951740Y-93420091D01*
X77634577Y-92945423D01*
X77282242Y-92710000D01*
X77634577Y-92474577D01*
X77951740Y-91999909D01*
X78063113Y-91440000D01*
X77951740Y-90880091D01*
X77634577Y-90405423D01*
X77282242Y-90170000D01*
X77634577Y-89934577D01*
X77853401Y-89607084D01*
X77853401Y-89843455D01*
X77838971Y-89916000D01*
X77896139Y-90203406D01*
X78017849Y-90385558D01*
X78017852Y-90385561D01*
X78058943Y-90447058D01*
X78120440Y-90488149D01*
X79541849Y-91909558D01*
X79582942Y-91971058D01*
X79826593Y-92133861D01*
X79992844Y-92166931D01*
X79883000Y-92432119D01*
X79883000Y-92987881D01*
X80095680Y-93501337D01*
X80488663Y-93894320D01*
X80695513Y-93980000D01*
X80488663Y-94065680D01*
X80095680Y-94458663D01*
X79883000Y-94972119D01*
X79883000Y-95527881D01*
X80095680Y-96041337D01*
X80488663Y-96434320D01*
X81002119Y-96647000D01*
X81557881Y-96647000D01*
X82071337Y-96434320D01*
X82464320Y-96041337D01*
X82677000Y-95527881D01*
X82677000Y-94972119D01*
X82464320Y-94458663D01*
X82071337Y-94065680D01*
X81864487Y-93980000D01*
X82071337Y-93894320D01*
X82464320Y-93501337D01*
X82488222Y-93443632D01*
X84704800Y-95660210D01*
X84704801Y-96447451D01*
X84690370Y-96520000D01*
X84704800Y-96592544D01*
X84704801Y-98403490D01*
X81612618Y-101495673D01*
X81557881Y-101473000D01*
X81002119Y-101473000D01*
X80488663Y-101685680D01*
X80095680Y-102078663D01*
X79883000Y-102592119D01*
X79883000Y-103147881D01*
X80095680Y-103661337D01*
X80488663Y-104054320D01*
X80695513Y-104140000D01*
X80488663Y-104225680D01*
X80095680Y-104618663D01*
X79883000Y-105132119D01*
X79883000Y-105687881D01*
X80095680Y-106201337D01*
X80488663Y-106594320D01*
X80695513Y-106680000D01*
X80488663Y-106765680D01*
X80095680Y-107158663D01*
X79883000Y-107672119D01*
X79883000Y-108227881D01*
X80095680Y-108741337D01*
X80488663Y-109134320D01*
X80695513Y-109220000D01*
X80488663Y-109305680D01*
X80095680Y-109698663D01*
X79883000Y-110212119D01*
X79883000Y-110767881D01*
X80095680Y-111281337D01*
X80488663Y-111674320D01*
X80695513Y-111760000D01*
X80488663Y-111845680D01*
X80095680Y-112238663D01*
X79883000Y-112752119D01*
X79883000Y-113307881D01*
X80095680Y-113821337D01*
X80488663Y-114214320D01*
X80695513Y-114300000D01*
X80488663Y-114385680D01*
X80095680Y-114778663D01*
X79883000Y-115292119D01*
X79883000Y-115847881D01*
X80095680Y-116361337D01*
X80488663Y-116754320D01*
X80695513Y-116840000D01*
X80488663Y-116925680D01*
X80095680Y-117318663D01*
X79883000Y-117832119D01*
X79883000Y-118211291D01*
X79268000Y-117596291D01*
X79268000Y-114313940D01*
X79282429Y-114241399D01*
X79268000Y-114168859D01*
X79268000Y-114168856D01*
X79225261Y-113953993D01*
X79062458Y-113710342D01*
X79000958Y-113669249D01*
X77892150Y-112560441D01*
X77851058Y-112498942D01*
X77837961Y-112490191D01*
X77951740Y-112319909D01*
X78063113Y-111760000D01*
X77951740Y-111200091D01*
X77634577Y-110725423D01*
X77513894Y-110644785D01*
X77647765Y-110618157D01*
X77857809Y-110477809D01*
X77998157Y-110267765D01*
X78047440Y-110020000D01*
X78047440Y-108420000D01*
X77998157Y-108172235D01*
X77857809Y-107962191D01*
X77647765Y-107821843D01*
X77400000Y-107772560D01*
X75000000Y-107772560D01*
X74752235Y-107821843D01*
X74542191Y-107962191D01*
X74401843Y-108172235D01*
X74352560Y-108420000D01*
X74352560Y-108562844D01*
X74225341Y-108647849D01*
X74225339Y-108647851D01*
X74163842Y-108688942D01*
X74122750Y-108750440D01*
X73119791Y-109753400D01*
X70337013Y-109753400D01*
X70443113Y-109220000D01*
X70331740Y-108660091D01*
X70014577Y-108185423D01*
X69539909Y-107868260D01*
X69121333Y-107785000D01*
X68038667Y-107785000D01*
X67620091Y-107868260D01*
X67145423Y-108185423D01*
X66828260Y-108660091D01*
X66716887Y-109220000D01*
X66822987Y-109753400D01*
X60482640Y-109753400D01*
X60410100Y-109738971D01*
X60337559Y-109753400D01*
X60337556Y-109753400D01*
X60122693Y-109796139D01*
X59940541Y-109917849D01*
X59940539Y-109917851D01*
X59879042Y-109958942D01*
X59837951Y-110020439D01*
X56554968Y-113303423D01*
X56529577Y-113265423D01*
X56177242Y-113030000D01*
X56529577Y-112794577D01*
X56846740Y-112319909D01*
X56958113Y-111760000D01*
X56846740Y-111200091D01*
X56529577Y-110725423D01*
X56054909Y-110408260D01*
X55636333Y-110325000D01*
X54553667Y-110325000D01*
X54135091Y-110408260D01*
X53926600Y-110547569D01*
X53926600Y-106394561D01*
X54930000Y-106394561D01*
X54930000Y-106965439D01*
X55148466Y-107492862D01*
X55552138Y-107896534D01*
X56079561Y-108115000D01*
X56650439Y-108115000D01*
X57177862Y-107896534D01*
X57386651Y-107687745D01*
X60536861Y-107687745D01*
X60610995Y-107933864D01*
X61148223Y-108126965D01*
X61718454Y-108099778D01*
X62119005Y-107933864D01*
X62193139Y-107687745D01*
X61365000Y-106859605D01*
X60536861Y-107687745D01*
X57386651Y-107687745D01*
X57581534Y-107492862D01*
X57800000Y-106965439D01*
X57800000Y-106463223D01*
X59918035Y-106463223D01*
X59945222Y-107033454D01*
X60111136Y-107434005D01*
X60357255Y-107508139D01*
X61185395Y-106680000D01*
X61544605Y-106680000D01*
X62372745Y-107508139D01*
X62618864Y-107434005D01*
X62811965Y-106896777D01*
X62784778Y-106326546D01*
X62618864Y-105925995D01*
X62372745Y-105851861D01*
X61544605Y-106680000D01*
X61185395Y-106680000D01*
X60357255Y-105851861D01*
X60111136Y-105925995D01*
X59918035Y-106463223D01*
X57800000Y-106463223D01*
X57800000Y-106394561D01*
X57581534Y-105867138D01*
X57386651Y-105672255D01*
X60536861Y-105672255D01*
X61365000Y-106500395D01*
X62193139Y-105672255D01*
X62119005Y-105426136D01*
X61581777Y-105233035D01*
X61011546Y-105260222D01*
X60610995Y-105426136D01*
X60536861Y-105672255D01*
X57386651Y-105672255D01*
X57177862Y-105463466D01*
X56650439Y-105245000D01*
X56079561Y-105245000D01*
X55552138Y-105463466D01*
X55148466Y-105867138D01*
X54930000Y-106394561D01*
X53926600Y-106394561D01*
X53926600Y-102812431D01*
X54135091Y-102951740D01*
X54553667Y-103035000D01*
X55636333Y-103035000D01*
X56054909Y-102951740D01*
X56529577Y-102634577D01*
X56846740Y-102159909D01*
X56888684Y-101949039D01*
X60923096Y-101949039D01*
X60940633Y-102031819D01*
X61210500Y-102524896D01*
X61648517Y-102877166D01*
X62188000Y-103035000D01*
X62588000Y-103035000D01*
X62588000Y-101727000D01*
X62842000Y-101727000D01*
X62842000Y-103035000D01*
X63242000Y-103035000D01*
X63781483Y-102877166D01*
X64219500Y-102524896D01*
X64489367Y-102031819D01*
X64506904Y-101949039D01*
X64384915Y-101727000D01*
X62842000Y-101727000D01*
X62588000Y-101727000D01*
X61045085Y-101727000D01*
X60923096Y-101949039D01*
X56888684Y-101949039D01*
X56958113Y-101600000D01*
X56846740Y-101040091D01*
X56529577Y-100565423D01*
X56177242Y-100330000D01*
X56529577Y-100094577D01*
X56846740Y-99619909D01*
X56958113Y-99060000D01*
X56846740Y-98500091D01*
X56529577Y-98025423D01*
X56177242Y-97790000D01*
X56529577Y-97554577D01*
X56846740Y-97079909D01*
X56958113Y-96520000D01*
X56846740Y-95960091D01*
X56529577Y-95485423D01*
X56177242Y-95250000D01*
X56529577Y-95014577D01*
X56846740Y-94539909D01*
X56958113Y-93980000D01*
X56846740Y-93420091D01*
X56529577Y-92945423D01*
X56173501Y-92707501D01*
X56599500Y-92364896D01*
X56869367Y-91871819D01*
X56886904Y-91789039D01*
X56764915Y-91567000D01*
X55222000Y-91567000D01*
X55222000Y-91587000D01*
X54968000Y-91587000D01*
X54968000Y-91567000D01*
X54948000Y-91567000D01*
X54948000Y-91313000D01*
X54968000Y-91313000D01*
X54968000Y-91293000D01*
X55222000Y-91293000D01*
X55222000Y-91313000D01*
X56764915Y-91313000D01*
X56886904Y-91090961D01*
X56869367Y-91008181D01*
X56599500Y-90515104D01*
X56173501Y-90172499D01*
X56529577Y-89934577D01*
X56846740Y-89459909D01*
X56958113Y-88900000D01*
X56846740Y-88340091D01*
X56529577Y-87865423D01*
X56177242Y-87630000D01*
X56529577Y-87394577D01*
X56737268Y-87083745D01*
X56887507Y-87053861D01*
X57131158Y-86891058D01*
X57172251Y-86829558D01*
X60867560Y-83134250D01*
X60867560Y-84620000D01*
X60867560Y-84620000D01*
G37*
X60867560Y-84620000D02*
X60916843Y-84867765D01*
X61057191Y-85077809D01*
X61267235Y-85218157D01*
X61401106Y-85244785D01*
X61280423Y-85325423D01*
X60963260Y-85800091D01*
X60851887Y-86360000D01*
X60963260Y-86919909D01*
X61280423Y-87394577D01*
X61632758Y-87630000D01*
X61280423Y-87865423D01*
X60963260Y-88340091D01*
X60851887Y-88900000D01*
X60963260Y-89459909D01*
X61280423Y-89934577D01*
X61632758Y-90170000D01*
X61280423Y-90405423D01*
X60963260Y-90880091D01*
X60851887Y-91440000D01*
X60963260Y-91999909D01*
X61280423Y-92474577D01*
X61632758Y-92710000D01*
X61280423Y-92945423D01*
X60963260Y-93420091D01*
X60851887Y-93980000D01*
X60963260Y-94539909D01*
X61280423Y-95014577D01*
X61632758Y-95250000D01*
X61280423Y-95485423D01*
X60963260Y-95960091D01*
X60851887Y-96520000D01*
X60963260Y-97079909D01*
X61280423Y-97554577D01*
X61632758Y-97790000D01*
X61280423Y-98025423D01*
X60963260Y-98500091D01*
X60851887Y-99060000D01*
X60963260Y-99619909D01*
X61280423Y-100094577D01*
X61636499Y-100332499D01*
X61210500Y-100675104D01*
X60940633Y-101168181D01*
X60923096Y-101250961D01*
X61045085Y-101473000D01*
X62588000Y-101473000D01*
X62588000Y-101453000D01*
X62842000Y-101453000D01*
X62842000Y-101473000D01*
X64384915Y-101473000D01*
X64506904Y-101250961D01*
X64489367Y-101168181D01*
X64219500Y-100675104D01*
X63793501Y-100332499D01*
X64149577Y-100094577D01*
X64174968Y-100056577D01*
X64917950Y-100799560D01*
X64959042Y-100861058D01*
X65020539Y-100902149D01*
X65020541Y-100902151D01*
X65202693Y-101023861D01*
X65417556Y-101066600D01*
X65417559Y-101066600D01*
X65490099Y-101081029D01*
X65562640Y-101066600D01*
X66822987Y-101066600D01*
X66716887Y-101600000D01*
X66828260Y-102159909D01*
X67145423Y-102634577D01*
X67620091Y-102951740D01*
X68038667Y-103035000D01*
X69121333Y-103035000D01*
X69539909Y-102951740D01*
X70014577Y-102634577D01*
X70331740Y-102159909D01*
X70443113Y-101600000D01*
X70337013Y-101066600D01*
X72694874Y-101066600D01*
X72650000Y-101174935D01*
X72650000Y-101517065D01*
X72773400Y-101814978D01*
X72773401Y-102401044D01*
X72650016Y-102698919D01*
X72650016Y-103041049D01*
X72780944Y-103357135D01*
X73022865Y-103599056D01*
X73338951Y-103729984D01*
X73681081Y-103729984D01*
X73997167Y-103599056D01*
X74239088Y-103357135D01*
X74370016Y-103041049D01*
X74370016Y-102698919D01*
X74246600Y-102400968D01*
X74246600Y-101949039D01*
X74408096Y-101949039D01*
X74425633Y-102031819D01*
X74695500Y-102524896D01*
X75133517Y-102877166D01*
X75673000Y-103035000D01*
X76073000Y-103035000D01*
X76073000Y-101727000D01*
X76327000Y-101727000D01*
X76327000Y-103035000D01*
X76727000Y-103035000D01*
X77266483Y-102877166D01*
X77704500Y-102524896D01*
X77974367Y-102031819D01*
X77991904Y-101949039D01*
X77869915Y-101727000D01*
X76327000Y-101727000D01*
X76073000Y-101727000D01*
X74530085Y-101727000D01*
X74408096Y-101949039D01*
X74246600Y-101949039D01*
X74246600Y-101814977D01*
X74370000Y-101517065D01*
X74370000Y-101174935D01*
X74239072Y-100858849D01*
X74088416Y-100708193D01*
X74740032Y-100056577D01*
X74765423Y-100094577D01*
X75121499Y-100332499D01*
X74695500Y-100675104D01*
X74425633Y-101168181D01*
X74408096Y-101250961D01*
X74530085Y-101473000D01*
X76073000Y-101473000D01*
X76073000Y-101453000D01*
X76327000Y-101453000D01*
X76327000Y-101473000D01*
X77869915Y-101473000D01*
X77991904Y-101250961D01*
X77974367Y-101168181D01*
X77704500Y-100675104D01*
X77278501Y-100332499D01*
X77634577Y-100094577D01*
X77951740Y-99619909D01*
X78063113Y-99060000D01*
X77951740Y-98500091D01*
X77634577Y-98025423D01*
X77282242Y-97790000D01*
X77634577Y-97554577D01*
X77951740Y-97079909D01*
X78063113Y-96520000D01*
X77951740Y-95960091D01*
X77634577Y-95485423D01*
X77282242Y-95250000D01*
X77634577Y-95014577D01*
X77951740Y-94539909D01*
X78063113Y-93980000D01*
X77951740Y-93420091D01*
X77634577Y-92945423D01*
X77282242Y-92710000D01*
X77634577Y-92474577D01*
X77951740Y-91999909D01*
X78063113Y-91440000D01*
X77951740Y-90880091D01*
X77634577Y-90405423D01*
X77282242Y-90170000D01*
X77634577Y-89934577D01*
X77853401Y-89607084D01*
X77853401Y-89843455D01*
X77838971Y-89916000D01*
X77896139Y-90203406D01*
X78017849Y-90385558D01*
X78017852Y-90385561D01*
X78058943Y-90447058D01*
X78120440Y-90488149D01*
X79541849Y-91909558D01*
X79582942Y-91971058D01*
X79826593Y-92133861D01*
X79992844Y-92166931D01*
X79883000Y-92432119D01*
X79883000Y-92987881D01*
X80095680Y-93501337D01*
X80488663Y-93894320D01*
X80695513Y-93980000D01*
X80488663Y-94065680D01*
X80095680Y-94458663D01*
X79883000Y-94972119D01*
X79883000Y-95527881D01*
X80095680Y-96041337D01*
X80488663Y-96434320D01*
X81002119Y-96647000D01*
X81557881Y-96647000D01*
X82071337Y-96434320D01*
X82464320Y-96041337D01*
X82677000Y-95527881D01*
X82677000Y-94972119D01*
X82464320Y-94458663D01*
X82071337Y-94065680D01*
X81864487Y-93980000D01*
X82071337Y-93894320D01*
X82464320Y-93501337D01*
X82488222Y-93443632D01*
X84704800Y-95660210D01*
X84704801Y-96447451D01*
X84690370Y-96520000D01*
X84704800Y-96592544D01*
X84704801Y-98403490D01*
X81612618Y-101495673D01*
X81557881Y-101473000D01*
X81002119Y-101473000D01*
X80488663Y-101685680D01*
X80095680Y-102078663D01*
X79883000Y-102592119D01*
X79883000Y-103147881D01*
X80095680Y-103661337D01*
X80488663Y-104054320D01*
X80695513Y-104140000D01*
X80488663Y-104225680D01*
X80095680Y-104618663D01*
X79883000Y-105132119D01*
X79883000Y-105687881D01*
X80095680Y-106201337D01*
X80488663Y-106594320D01*
X80695513Y-106680000D01*
X80488663Y-106765680D01*
X80095680Y-107158663D01*
X79883000Y-107672119D01*
X79883000Y-108227881D01*
X80095680Y-108741337D01*
X80488663Y-109134320D01*
X80695513Y-109220000D01*
X80488663Y-109305680D01*
X80095680Y-109698663D01*
X79883000Y-110212119D01*
X79883000Y-110767881D01*
X80095680Y-111281337D01*
X80488663Y-111674320D01*
X80695513Y-111760000D01*
X80488663Y-111845680D01*
X80095680Y-112238663D01*
X79883000Y-112752119D01*
X79883000Y-113307881D01*
X80095680Y-113821337D01*
X80488663Y-114214320D01*
X80695513Y-114300000D01*
X80488663Y-114385680D01*
X80095680Y-114778663D01*
X79883000Y-115292119D01*
X79883000Y-115847881D01*
X80095680Y-116361337D01*
X80488663Y-116754320D01*
X80695513Y-116840000D01*
X80488663Y-116925680D01*
X80095680Y-117318663D01*
X79883000Y-117832119D01*
X79883000Y-118211291D01*
X79268000Y-117596291D01*
X79268000Y-114313940D01*
X79282429Y-114241399D01*
X79268000Y-114168859D01*
X79268000Y-114168856D01*
X79225261Y-113953993D01*
X79062458Y-113710342D01*
X79000958Y-113669249D01*
X77892150Y-112560441D01*
X77851058Y-112498942D01*
X77837961Y-112490191D01*
X77951740Y-112319909D01*
X78063113Y-111760000D01*
X77951740Y-111200091D01*
X77634577Y-110725423D01*
X77513894Y-110644785D01*
X77647765Y-110618157D01*
X77857809Y-110477809D01*
X77998157Y-110267765D01*
X78047440Y-110020000D01*
X78047440Y-108420000D01*
X77998157Y-108172235D01*
X77857809Y-107962191D01*
X77647765Y-107821843D01*
X77400000Y-107772560D01*
X75000000Y-107772560D01*
X74752235Y-107821843D01*
X74542191Y-107962191D01*
X74401843Y-108172235D01*
X74352560Y-108420000D01*
X74352560Y-108562844D01*
X74225341Y-108647849D01*
X74225339Y-108647851D01*
X74163842Y-108688942D01*
X74122750Y-108750440D01*
X73119791Y-109753400D01*
X70337013Y-109753400D01*
X70443113Y-109220000D01*
X70331740Y-108660091D01*
X70014577Y-108185423D01*
X69539909Y-107868260D01*
X69121333Y-107785000D01*
X68038667Y-107785000D01*
X67620091Y-107868260D01*
X67145423Y-108185423D01*
X66828260Y-108660091D01*
X66716887Y-109220000D01*
X66822987Y-109753400D01*
X60482640Y-109753400D01*
X60410100Y-109738971D01*
X60337559Y-109753400D01*
X60337556Y-109753400D01*
X60122693Y-109796139D01*
X59940541Y-109917849D01*
X59940539Y-109917851D01*
X59879042Y-109958942D01*
X59837951Y-110020439D01*
X56554968Y-113303423D01*
X56529577Y-113265423D01*
X56177242Y-113030000D01*
X56529577Y-112794577D01*
X56846740Y-112319909D01*
X56958113Y-111760000D01*
X56846740Y-111200091D01*
X56529577Y-110725423D01*
X56054909Y-110408260D01*
X55636333Y-110325000D01*
X54553667Y-110325000D01*
X54135091Y-110408260D01*
X53926600Y-110547569D01*
X53926600Y-106394561D01*
X54930000Y-106394561D01*
X54930000Y-106965439D01*
X55148466Y-107492862D01*
X55552138Y-107896534D01*
X56079561Y-108115000D01*
X56650439Y-108115000D01*
X57177862Y-107896534D01*
X57386651Y-107687745D01*
X60536861Y-107687745D01*
X60610995Y-107933864D01*
X61148223Y-108126965D01*
X61718454Y-108099778D01*
X62119005Y-107933864D01*
X62193139Y-107687745D01*
X61365000Y-106859605D01*
X60536861Y-107687745D01*
X57386651Y-107687745D01*
X57581534Y-107492862D01*
X57800000Y-106965439D01*
X57800000Y-106463223D01*
X59918035Y-106463223D01*
X59945222Y-107033454D01*
X60111136Y-107434005D01*
X60357255Y-107508139D01*
X61185395Y-106680000D01*
X61544605Y-106680000D01*
X62372745Y-107508139D01*
X62618864Y-107434005D01*
X62811965Y-106896777D01*
X62784778Y-106326546D01*
X62618864Y-105925995D01*
X62372745Y-105851861D01*
X61544605Y-106680000D01*
X61185395Y-106680000D01*
X60357255Y-105851861D01*
X60111136Y-105925995D01*
X59918035Y-106463223D01*
X57800000Y-106463223D01*
X57800000Y-106394561D01*
X57581534Y-105867138D01*
X57386651Y-105672255D01*
X60536861Y-105672255D01*
X61365000Y-106500395D01*
X62193139Y-105672255D01*
X62119005Y-105426136D01*
X61581777Y-105233035D01*
X61011546Y-105260222D01*
X60610995Y-105426136D01*
X60536861Y-105672255D01*
X57386651Y-105672255D01*
X57177862Y-105463466D01*
X56650439Y-105245000D01*
X56079561Y-105245000D01*
X55552138Y-105463466D01*
X55148466Y-105867138D01*
X54930000Y-106394561D01*
X53926600Y-106394561D01*
X53926600Y-102812431D01*
X54135091Y-102951740D01*
X54553667Y-103035000D01*
X55636333Y-103035000D01*
X56054909Y-102951740D01*
X56529577Y-102634577D01*
X56846740Y-102159909D01*
X56888684Y-101949039D01*
X60923096Y-101949039D01*
X60940633Y-102031819D01*
X61210500Y-102524896D01*
X61648517Y-102877166D01*
X62188000Y-103035000D01*
X62588000Y-103035000D01*
X62588000Y-101727000D01*
X62842000Y-101727000D01*
X62842000Y-103035000D01*
X63242000Y-103035000D01*
X63781483Y-102877166D01*
X64219500Y-102524896D01*
X64489367Y-102031819D01*
X64506904Y-101949039D01*
X64384915Y-101727000D01*
X62842000Y-101727000D01*
X62588000Y-101727000D01*
X61045085Y-101727000D01*
X60923096Y-101949039D01*
X56888684Y-101949039D01*
X56958113Y-101600000D01*
X56846740Y-101040091D01*
X56529577Y-100565423D01*
X56177242Y-100330000D01*
X56529577Y-100094577D01*
X56846740Y-99619909D01*
X56958113Y-99060000D01*
X56846740Y-98500091D01*
X56529577Y-98025423D01*
X56177242Y-97790000D01*
X56529577Y-97554577D01*
X56846740Y-97079909D01*
X56958113Y-96520000D01*
X56846740Y-95960091D01*
X56529577Y-95485423D01*
X56177242Y-95250000D01*
X56529577Y-95014577D01*
X56846740Y-94539909D01*
X56958113Y-93980000D01*
X56846740Y-93420091D01*
X56529577Y-92945423D01*
X56173501Y-92707501D01*
X56599500Y-92364896D01*
X56869367Y-91871819D01*
X56886904Y-91789039D01*
X56764915Y-91567000D01*
X55222000Y-91567000D01*
X55222000Y-91587000D01*
X54968000Y-91587000D01*
X54968000Y-91567000D01*
X54948000Y-91567000D01*
X54948000Y-91313000D01*
X54968000Y-91313000D01*
X54968000Y-91293000D01*
X55222000Y-91293000D01*
X55222000Y-91313000D01*
X56764915Y-91313000D01*
X56886904Y-91090961D01*
X56869367Y-91008181D01*
X56599500Y-90515104D01*
X56173501Y-90172499D01*
X56529577Y-89934577D01*
X56846740Y-89459909D01*
X56958113Y-88900000D01*
X56846740Y-88340091D01*
X56529577Y-87865423D01*
X56177242Y-87630000D01*
X56529577Y-87394577D01*
X56737268Y-87083745D01*
X56887507Y-87053861D01*
X57131158Y-86891058D01*
X57172251Y-86829558D01*
X60867560Y-83134250D01*
X60867560Y-84620000D01*
G36*
X60867560Y-56680000D02*
X60916843Y-56927765D01*
X61057191Y-57137809D01*
X61267235Y-57278157D01*
X61401106Y-57304785D01*
X61280423Y-57385423D01*
X60963260Y-57860091D01*
X60851887Y-58420000D01*
X60963260Y-58979909D01*
X61280423Y-59454577D01*
X61632758Y-59690000D01*
X61280423Y-59925423D01*
X60963260Y-60400091D01*
X60851887Y-60960000D01*
X60963260Y-61519909D01*
X61280423Y-61994577D01*
X61632758Y-62230000D01*
X61280423Y-62465423D01*
X60963260Y-62940091D01*
X60851887Y-63500000D01*
X60963260Y-64059909D01*
X61280423Y-64534577D01*
X61632758Y-64770000D01*
X61280423Y-65005423D01*
X60963260Y-65480091D01*
X60851887Y-66040000D01*
X60963260Y-66599909D01*
X61280423Y-67074577D01*
X61632758Y-67310000D01*
X61280423Y-67545423D01*
X60963260Y-68020091D01*
X60851887Y-68580000D01*
X60963260Y-69139909D01*
X61280423Y-69614577D01*
X61632758Y-69850000D01*
X61280423Y-70085423D01*
X60963260Y-70560091D01*
X60851887Y-71120000D01*
X60963260Y-71679909D01*
X61280423Y-72154577D01*
X61636499Y-72392499D01*
X61210500Y-72735104D01*
X60940633Y-73228181D01*
X60923096Y-73310961D01*
X61045085Y-73533000D01*
X62588000Y-73533000D01*
X62588000Y-73513000D01*
X62842000Y-73513000D01*
X62842000Y-73533000D01*
X64384915Y-73533000D01*
X64506904Y-73310961D01*
X64489367Y-73228181D01*
X64219500Y-72735104D01*
X63793501Y-72392499D01*
X64149577Y-72154577D01*
X64174968Y-72116577D01*
X64917950Y-72859560D01*
X64959042Y-72921058D01*
X65020539Y-72962149D01*
X65020541Y-72962151D01*
X65202693Y-73083861D01*
X65417556Y-73126600D01*
X65417559Y-73126600D01*
X65490099Y-73141029D01*
X65562640Y-73126600D01*
X66822987Y-73126600D01*
X66716887Y-73660000D01*
X66828260Y-74219909D01*
X67145423Y-74694577D01*
X67620091Y-75011740D01*
X68038667Y-75095000D01*
X69121333Y-75095000D01*
X69539909Y-75011740D01*
X70014577Y-74694577D01*
X70331740Y-74219909D01*
X70373684Y-74009039D01*
X74408096Y-74009039D01*
X74425633Y-74091819D01*
X74695500Y-74584896D01*
X75133517Y-74937166D01*
X75673000Y-75095000D01*
X76073000Y-75095000D01*
X76073000Y-73787000D01*
X76327000Y-73787000D01*
X76327000Y-75095000D01*
X76727000Y-75095000D01*
X77266483Y-74937166D01*
X77704500Y-74584896D01*
X77974367Y-74091819D01*
X77991904Y-74009039D01*
X77869915Y-73787000D01*
X76327000Y-73787000D01*
X76073000Y-73787000D01*
X74530085Y-73787000D01*
X74408096Y-74009039D01*
X70373684Y-74009039D01*
X70443113Y-73660000D01*
X70337013Y-73126600D01*
X73352360Y-73126600D01*
X73424900Y-73141029D01*
X73497440Y-73126600D01*
X73497444Y-73126600D01*
X73712307Y-73083861D01*
X73955958Y-72921058D01*
X73997051Y-72859558D01*
X74740032Y-72116577D01*
X74765423Y-72154577D01*
X75121499Y-72392499D01*
X74695500Y-72735104D01*
X74425633Y-73228181D01*
X74408096Y-73310961D01*
X74530085Y-73533000D01*
X76073000Y-73533000D01*
X76073000Y-73513000D01*
X76327000Y-73513000D01*
X76327000Y-73533000D01*
X77869915Y-73533000D01*
X77991904Y-73310961D01*
X77974367Y-73228181D01*
X77704500Y-72735104D01*
X77278501Y-72392499D01*
X77634577Y-72154577D01*
X77951740Y-71679909D01*
X78063113Y-71120000D01*
X77951740Y-70560091D01*
X77634577Y-70085423D01*
X77282242Y-69850000D01*
X77634577Y-69614577D01*
X77951740Y-69139909D01*
X78063113Y-68580000D01*
X77951740Y-68020091D01*
X77634577Y-67545423D01*
X77282242Y-67310000D01*
X77634577Y-67074577D01*
X77951740Y-66599909D01*
X78063113Y-66040000D01*
X77951740Y-65480091D01*
X77634577Y-65005423D01*
X77282242Y-64770000D01*
X77634577Y-64534577D01*
X77951740Y-64059909D01*
X78063113Y-63500000D01*
X78005471Y-63210213D01*
X80479392Y-63210213D01*
X80548857Y-63452397D01*
X81072302Y-63639144D01*
X81627368Y-63611362D01*
X82011143Y-63452397D01*
X82080608Y-63210213D01*
X81280000Y-62409605D01*
X80479392Y-63210213D01*
X78005471Y-63210213D01*
X77951740Y-62940091D01*
X77634577Y-62465423D01*
X77282242Y-62230000D01*
X77593083Y-62022302D01*
X79870856Y-62022302D01*
X79898638Y-62577368D01*
X80057603Y-62961143D01*
X80299787Y-63030608D01*
X81100395Y-62230000D01*
X80299787Y-61429392D01*
X80057603Y-61498857D01*
X79870856Y-62022302D01*
X77593083Y-62022302D01*
X77634577Y-61994577D01*
X77951740Y-61519909D01*
X78063113Y-60960000D01*
X77951740Y-60400091D01*
X77634577Y-59925423D01*
X77282242Y-59690000D01*
X77634577Y-59454577D01*
X77951740Y-58979909D01*
X78063113Y-58420000D01*
X77957013Y-57886600D01*
X78284891Y-57886600D01*
X81231947Y-60833657D01*
X80932632Y-60848638D01*
X80548857Y-61007603D01*
X80479392Y-61249787D01*
X81280000Y-62050395D01*
X81294143Y-62036253D01*
X81473748Y-62215858D01*
X81459605Y-62230000D01*
X82260213Y-63030608D01*
X82502397Y-62961143D01*
X82689144Y-62437698D01*
X82681407Y-62283117D01*
X84819201Y-64420911D01*
X84819200Y-66369890D01*
X82297374Y-68891717D01*
X82071337Y-68665680D01*
X81864487Y-68580000D01*
X82071337Y-68494320D01*
X82464320Y-68101337D01*
X82677000Y-67587881D01*
X82677000Y-67032119D01*
X82464320Y-66518663D01*
X82071337Y-66125680D01*
X81557881Y-65913000D01*
X81002119Y-65913000D01*
X80488663Y-66125680D01*
X80095680Y-66518663D01*
X79883000Y-67032119D01*
X79883000Y-67587881D01*
X80095680Y-68101337D01*
X80488663Y-68494320D01*
X80695513Y-68580000D01*
X80488663Y-68665680D01*
X80095680Y-69058663D01*
X79883000Y-69572119D01*
X79883000Y-70127881D01*
X80095680Y-70641337D01*
X80488663Y-71034320D01*
X80695513Y-71120000D01*
X80488663Y-71205680D01*
X80095680Y-71598663D01*
X79883000Y-72112119D01*
X79883000Y-72667881D01*
X80095680Y-73181337D01*
X80488663Y-73574320D01*
X80695513Y-73660000D01*
X80488663Y-73745680D01*
X80095680Y-74138663D01*
X79883000Y-74652119D01*
X79883000Y-75207881D01*
X80095680Y-75721337D01*
X80488663Y-76114320D01*
X80695513Y-76200000D01*
X80488663Y-76285680D01*
X80095680Y-76678663D01*
X79883000Y-77192119D01*
X79883000Y-77747881D01*
X80095680Y-78261337D01*
X80488663Y-78654320D01*
X80695513Y-78740000D01*
X80488663Y-78825680D01*
X80095680Y-79218663D01*
X79883000Y-79732119D01*
X79883000Y-80287881D01*
X80095680Y-80801337D01*
X80488663Y-81194320D01*
X80695513Y-81280000D01*
X80488663Y-81365680D01*
X80095680Y-81758663D01*
X79883000Y-82272119D01*
X79883000Y-82827881D01*
X80095680Y-83341337D01*
X80488663Y-83734320D01*
X80695513Y-83820000D01*
X80488663Y-83905680D01*
X80095680Y-84298663D01*
X79883000Y-84812119D01*
X79883000Y-85367881D01*
X80095680Y-85881337D01*
X80488663Y-86274320D01*
X80695513Y-86360000D01*
X80488663Y-86445680D01*
X80095680Y-86838663D01*
X79998077Y-87074299D01*
X79973458Y-87057849D01*
X77688894Y-84773285D01*
X77951740Y-84379909D01*
X78063113Y-83820000D01*
X77951740Y-83260091D01*
X77634577Y-82785423D01*
X77513894Y-82704785D01*
X77647765Y-82678157D01*
X77857809Y-82537809D01*
X77998157Y-82327765D01*
X78047440Y-82080000D01*
X78047440Y-80480000D01*
X77998157Y-80232235D01*
X77857809Y-80022191D01*
X77647765Y-79881843D01*
X77400000Y-79832560D01*
X75000000Y-79832560D01*
X74752235Y-79881843D01*
X74542191Y-80022191D01*
X74516800Y-80060191D01*
X73997051Y-79540442D01*
X73955958Y-79478942D01*
X73712307Y-79316139D01*
X73497444Y-79273400D01*
X73497440Y-79273400D01*
X73424900Y-79258971D01*
X73352360Y-79273400D01*
X63022640Y-79273400D01*
X62950099Y-79258971D01*
X62877559Y-79273400D01*
X62877556Y-79273400D01*
X62684344Y-79311832D01*
X62811965Y-78956777D01*
X62784778Y-78386546D01*
X62618864Y-77985995D01*
X62372745Y-77911861D01*
X61544605Y-78740000D01*
X61558748Y-78754142D01*
X61379142Y-78933748D01*
X61365000Y-78919605D01*
X60536861Y-79747745D01*
X60610995Y-79993864D01*
X61148223Y-80186965D01*
X61718454Y-80159778D01*
X61787008Y-80131382D01*
X56554968Y-85363423D01*
X56529577Y-85325423D01*
X56177242Y-85090000D01*
X56529577Y-84854577D01*
X56846740Y-84379909D01*
X56958113Y-83820000D01*
X56846740Y-83260091D01*
X56529577Y-82785423D01*
X56054909Y-82468260D01*
X55636333Y-82385000D01*
X54553667Y-82385000D01*
X54180600Y-82459208D01*
X54180600Y-78454561D01*
X54930000Y-78454561D01*
X54930000Y-79025439D01*
X55148466Y-79552862D01*
X55552138Y-79956534D01*
X56079561Y-80175000D01*
X56650439Y-80175000D01*
X57177862Y-79956534D01*
X57581534Y-79552862D01*
X57800000Y-79025439D01*
X57800000Y-78523223D01*
X59918035Y-78523223D01*
X59945222Y-79093454D01*
X60111136Y-79494005D01*
X60357255Y-79568139D01*
X61185395Y-78740000D01*
X60357255Y-77911861D01*
X60111136Y-77985995D01*
X59918035Y-78523223D01*
X57800000Y-78523223D01*
X57800000Y-78454561D01*
X57581534Y-77927138D01*
X57386651Y-77732255D01*
X60536861Y-77732255D01*
X61365000Y-78560395D01*
X62193139Y-77732255D01*
X62119005Y-77486136D01*
X61581777Y-77293035D01*
X61011546Y-77320222D01*
X60610995Y-77486136D01*
X60536861Y-77732255D01*
X57386651Y-77732255D01*
X57177862Y-77523466D01*
X56650439Y-77305000D01*
X56079561Y-77305000D01*
X55552138Y-77523466D01*
X55148466Y-77927138D01*
X54930000Y-78454561D01*
X54180600Y-78454561D01*
X54180600Y-76619309D01*
X55564561Y-75235349D01*
X55626058Y-75194258D01*
X55667149Y-75132761D01*
X55667151Y-75132759D01*
X55700972Y-75082143D01*
X56054909Y-75011740D01*
X56529577Y-74694577D01*
X56846740Y-74219909D01*
X56888684Y-74009039D01*
X60923096Y-74009039D01*
X60940633Y-74091819D01*
X61210500Y-74584896D01*
X61648517Y-74937166D01*
X62188000Y-75095000D01*
X62588000Y-75095000D01*
X62588000Y-73787000D01*
X62842000Y-73787000D01*
X62842000Y-75095000D01*
X63242000Y-75095000D01*
X63781483Y-74937166D01*
X64219500Y-74584896D01*
X64489367Y-74091819D01*
X64506904Y-74009039D01*
X64384915Y-73787000D01*
X62842000Y-73787000D01*
X62588000Y-73787000D01*
X61045085Y-73787000D01*
X60923096Y-74009039D01*
X56888684Y-74009039D01*
X56958113Y-73660000D01*
X56846740Y-73100091D01*
X56529577Y-72625423D01*
X56177242Y-72390000D01*
X56529577Y-72154577D01*
X56846740Y-71679909D01*
X56958113Y-71120000D01*
X56846740Y-70560091D01*
X56529577Y-70085423D01*
X56177242Y-69850000D01*
X56529577Y-69614577D01*
X56846740Y-69139909D01*
X56958113Y-68580000D01*
X56846740Y-68020091D01*
X56529577Y-67545423D01*
X56177242Y-67310000D01*
X56529577Y-67074577D01*
X56846740Y-66599909D01*
X56958113Y-66040000D01*
X56846740Y-65480091D01*
X56529577Y-65005423D01*
X56173501Y-64767501D01*
X56599500Y-64424896D01*
X56869367Y-63931819D01*
X56886904Y-63849039D01*
X56764915Y-63627000D01*
X55222000Y-63627000D01*
X55222000Y-63647000D01*
X54968000Y-63647000D01*
X54968000Y-63627000D01*
X54948000Y-63627000D01*
X54948000Y-63373000D01*
X54968000Y-63373000D01*
X54968000Y-63353000D01*
X55222000Y-63353000D01*
X55222000Y-63373000D01*
X56764915Y-63373000D01*
X56886904Y-63150961D01*
X56869367Y-63068181D01*
X56599500Y-62575104D01*
X56173501Y-62232499D01*
X56529577Y-61994577D01*
X56846740Y-61519909D01*
X56958113Y-60960000D01*
X56846740Y-60400091D01*
X56529577Y-59925423D01*
X56177242Y-59690000D01*
X56529577Y-59454577D01*
X56737268Y-59143745D01*
X56887507Y-59113861D01*
X57131158Y-58951058D01*
X57172251Y-58889558D01*
X60715210Y-55346600D01*
X60867560Y-55346600D01*
X60867560Y-56680000D01*
X60867560Y-56680000D01*
G37*
X60867560Y-56680000D02*
X60916843Y-56927765D01*
X61057191Y-57137809D01*
X61267235Y-57278157D01*
X61401106Y-57304785D01*
X61280423Y-57385423D01*
X60963260Y-57860091D01*
X60851887Y-58420000D01*
X60963260Y-58979909D01*
X61280423Y-59454577D01*
X61632758Y-59690000D01*
X61280423Y-59925423D01*
X60963260Y-60400091D01*
X60851887Y-60960000D01*
X60963260Y-61519909D01*
X61280423Y-61994577D01*
X61632758Y-62230000D01*
X61280423Y-62465423D01*
X60963260Y-62940091D01*
X60851887Y-63500000D01*
X60963260Y-64059909D01*
X61280423Y-64534577D01*
X61632758Y-64770000D01*
X61280423Y-65005423D01*
X60963260Y-65480091D01*
X60851887Y-66040000D01*
X60963260Y-66599909D01*
X61280423Y-67074577D01*
X61632758Y-67310000D01*
X61280423Y-67545423D01*
X60963260Y-68020091D01*
X60851887Y-68580000D01*
X60963260Y-69139909D01*
X61280423Y-69614577D01*
X61632758Y-69850000D01*
X61280423Y-70085423D01*
X60963260Y-70560091D01*
X60851887Y-71120000D01*
X60963260Y-71679909D01*
X61280423Y-72154577D01*
X61636499Y-72392499D01*
X61210500Y-72735104D01*
X60940633Y-73228181D01*
X60923096Y-73310961D01*
X61045085Y-73533000D01*
X62588000Y-73533000D01*
X62588000Y-73513000D01*
X62842000Y-73513000D01*
X62842000Y-73533000D01*
X64384915Y-73533000D01*
X64506904Y-73310961D01*
X64489367Y-73228181D01*
X64219500Y-72735104D01*
X63793501Y-72392499D01*
X64149577Y-72154577D01*
X64174968Y-72116577D01*
X64917950Y-72859560D01*
X64959042Y-72921058D01*
X65020539Y-72962149D01*
X65020541Y-72962151D01*
X65202693Y-73083861D01*
X65417556Y-73126600D01*
X65417559Y-73126600D01*
X65490099Y-73141029D01*
X65562640Y-73126600D01*
X66822987Y-73126600D01*
X66716887Y-73660000D01*
X66828260Y-74219909D01*
X67145423Y-74694577D01*
X67620091Y-75011740D01*
X68038667Y-75095000D01*
X69121333Y-75095000D01*
X69539909Y-75011740D01*
X70014577Y-74694577D01*
X70331740Y-74219909D01*
X70373684Y-74009039D01*
X74408096Y-74009039D01*
X74425633Y-74091819D01*
X74695500Y-74584896D01*
X75133517Y-74937166D01*
X75673000Y-75095000D01*
X76073000Y-75095000D01*
X76073000Y-73787000D01*
X76327000Y-73787000D01*
X76327000Y-75095000D01*
X76727000Y-75095000D01*
X77266483Y-74937166D01*
X77704500Y-74584896D01*
X77974367Y-74091819D01*
X77991904Y-74009039D01*
X77869915Y-73787000D01*
X76327000Y-73787000D01*
X76073000Y-73787000D01*
X74530085Y-73787000D01*
X74408096Y-74009039D01*
X70373684Y-74009039D01*
X70443113Y-73660000D01*
X70337013Y-73126600D01*
X73352360Y-73126600D01*
X73424900Y-73141029D01*
X73497440Y-73126600D01*
X73497444Y-73126600D01*
X73712307Y-73083861D01*
X73955958Y-72921058D01*
X73997051Y-72859558D01*
X74740032Y-72116577D01*
X74765423Y-72154577D01*
X75121499Y-72392499D01*
X74695500Y-72735104D01*
X74425633Y-73228181D01*
X74408096Y-73310961D01*
X74530085Y-73533000D01*
X76073000Y-73533000D01*
X76073000Y-73513000D01*
X76327000Y-73513000D01*
X76327000Y-73533000D01*
X77869915Y-73533000D01*
X77991904Y-73310961D01*
X77974367Y-73228181D01*
X77704500Y-72735104D01*
X77278501Y-72392499D01*
X77634577Y-72154577D01*
X77951740Y-71679909D01*
X78063113Y-71120000D01*
X77951740Y-70560091D01*
X77634577Y-70085423D01*
X77282242Y-69850000D01*
X77634577Y-69614577D01*
X77951740Y-69139909D01*
X78063113Y-68580000D01*
X77951740Y-68020091D01*
X77634577Y-67545423D01*
X77282242Y-67310000D01*
X77634577Y-67074577D01*
X77951740Y-66599909D01*
X78063113Y-66040000D01*
X77951740Y-65480091D01*
X77634577Y-65005423D01*
X77282242Y-64770000D01*
X77634577Y-64534577D01*
X77951740Y-64059909D01*
X78063113Y-63500000D01*
X78005471Y-63210213D01*
X80479392Y-63210213D01*
X80548857Y-63452397D01*
X81072302Y-63639144D01*
X81627368Y-63611362D01*
X82011143Y-63452397D01*
X82080608Y-63210213D01*
X81280000Y-62409605D01*
X80479392Y-63210213D01*
X78005471Y-63210213D01*
X77951740Y-62940091D01*
X77634577Y-62465423D01*
X77282242Y-62230000D01*
X77593083Y-62022302D01*
X79870856Y-62022302D01*
X79898638Y-62577368D01*
X80057603Y-62961143D01*
X80299787Y-63030608D01*
X81100395Y-62230000D01*
X80299787Y-61429392D01*
X80057603Y-61498857D01*
X79870856Y-62022302D01*
X77593083Y-62022302D01*
X77634577Y-61994577D01*
X77951740Y-61519909D01*
X78063113Y-60960000D01*
X77951740Y-60400091D01*
X77634577Y-59925423D01*
X77282242Y-59690000D01*
X77634577Y-59454577D01*
X77951740Y-58979909D01*
X78063113Y-58420000D01*
X77957013Y-57886600D01*
X78284891Y-57886600D01*
X81231947Y-60833657D01*
X80932632Y-60848638D01*
X80548857Y-61007603D01*
X80479392Y-61249787D01*
X81280000Y-62050395D01*
X81294143Y-62036253D01*
X81473748Y-62215858D01*
X81459605Y-62230000D01*
X82260213Y-63030608D01*
X82502397Y-62961143D01*
X82689144Y-62437698D01*
X82681407Y-62283117D01*
X84819201Y-64420911D01*
X84819200Y-66369890D01*
X82297374Y-68891717D01*
X82071337Y-68665680D01*
X81864487Y-68580000D01*
X82071337Y-68494320D01*
X82464320Y-68101337D01*
X82677000Y-67587881D01*
X82677000Y-67032119D01*
X82464320Y-66518663D01*
X82071337Y-66125680D01*
X81557881Y-65913000D01*
X81002119Y-65913000D01*
X80488663Y-66125680D01*
X80095680Y-66518663D01*
X79883000Y-67032119D01*
X79883000Y-67587881D01*
X80095680Y-68101337D01*
X80488663Y-68494320D01*
X80695513Y-68580000D01*
X80488663Y-68665680D01*
X80095680Y-69058663D01*
X79883000Y-69572119D01*
X79883000Y-70127881D01*
X80095680Y-70641337D01*
X80488663Y-71034320D01*
X80695513Y-71120000D01*
X80488663Y-71205680D01*
X80095680Y-71598663D01*
X79883000Y-72112119D01*
X79883000Y-72667881D01*
X80095680Y-73181337D01*
X80488663Y-73574320D01*
X80695513Y-73660000D01*
X80488663Y-73745680D01*
X80095680Y-74138663D01*
X79883000Y-74652119D01*
X79883000Y-75207881D01*
X80095680Y-75721337D01*
X80488663Y-76114320D01*
X80695513Y-76200000D01*
X80488663Y-76285680D01*
X80095680Y-76678663D01*
X79883000Y-77192119D01*
X79883000Y-77747881D01*
X80095680Y-78261337D01*
X80488663Y-78654320D01*
X80695513Y-78740000D01*
X80488663Y-78825680D01*
X80095680Y-79218663D01*
X79883000Y-79732119D01*
X79883000Y-80287881D01*
X80095680Y-80801337D01*
X80488663Y-81194320D01*
X80695513Y-81280000D01*
X80488663Y-81365680D01*
X80095680Y-81758663D01*
X79883000Y-82272119D01*
X79883000Y-82827881D01*
X80095680Y-83341337D01*
X80488663Y-83734320D01*
X80695513Y-83820000D01*
X80488663Y-83905680D01*
X80095680Y-84298663D01*
X79883000Y-84812119D01*
X79883000Y-85367881D01*
X80095680Y-85881337D01*
X80488663Y-86274320D01*
X80695513Y-86360000D01*
X80488663Y-86445680D01*
X80095680Y-86838663D01*
X79998077Y-87074299D01*
X79973458Y-87057849D01*
X77688894Y-84773285D01*
X77951740Y-84379909D01*
X78063113Y-83820000D01*
X77951740Y-83260091D01*
X77634577Y-82785423D01*
X77513894Y-82704785D01*
X77647765Y-82678157D01*
X77857809Y-82537809D01*
X77998157Y-82327765D01*
X78047440Y-82080000D01*
X78047440Y-80480000D01*
X77998157Y-80232235D01*
X77857809Y-80022191D01*
X77647765Y-79881843D01*
X77400000Y-79832560D01*
X75000000Y-79832560D01*
X74752235Y-79881843D01*
X74542191Y-80022191D01*
X74516800Y-80060191D01*
X73997051Y-79540442D01*
X73955958Y-79478942D01*
X73712307Y-79316139D01*
X73497444Y-79273400D01*
X73497440Y-79273400D01*
X73424900Y-79258971D01*
X73352360Y-79273400D01*
X63022640Y-79273400D01*
X62950099Y-79258971D01*
X62877559Y-79273400D01*
X62877556Y-79273400D01*
X62684344Y-79311832D01*
X62811965Y-78956777D01*
X62784778Y-78386546D01*
X62618864Y-77985995D01*
X62372745Y-77911861D01*
X61544605Y-78740000D01*
X61558748Y-78754142D01*
X61379142Y-78933748D01*
X61365000Y-78919605D01*
X60536861Y-79747745D01*
X60610995Y-79993864D01*
X61148223Y-80186965D01*
X61718454Y-80159778D01*
X61787008Y-80131382D01*
X56554968Y-85363423D01*
X56529577Y-85325423D01*
X56177242Y-85090000D01*
X56529577Y-84854577D01*
X56846740Y-84379909D01*
X56958113Y-83820000D01*
X56846740Y-83260091D01*
X56529577Y-82785423D01*
X56054909Y-82468260D01*
X55636333Y-82385000D01*
X54553667Y-82385000D01*
X54180600Y-82459208D01*
X54180600Y-78454561D01*
X54930000Y-78454561D01*
X54930000Y-79025439D01*
X55148466Y-79552862D01*
X55552138Y-79956534D01*
X56079561Y-80175000D01*
X56650439Y-80175000D01*
X57177862Y-79956534D01*
X57581534Y-79552862D01*
X57800000Y-79025439D01*
X57800000Y-78523223D01*
X59918035Y-78523223D01*
X59945222Y-79093454D01*
X60111136Y-79494005D01*
X60357255Y-79568139D01*
X61185395Y-78740000D01*
X60357255Y-77911861D01*
X60111136Y-77985995D01*
X59918035Y-78523223D01*
X57800000Y-78523223D01*
X57800000Y-78454561D01*
X57581534Y-77927138D01*
X57386651Y-77732255D01*
X60536861Y-77732255D01*
X61365000Y-78560395D01*
X62193139Y-77732255D01*
X62119005Y-77486136D01*
X61581777Y-77293035D01*
X61011546Y-77320222D01*
X60610995Y-77486136D01*
X60536861Y-77732255D01*
X57386651Y-77732255D01*
X57177862Y-77523466D01*
X56650439Y-77305000D01*
X56079561Y-77305000D01*
X55552138Y-77523466D01*
X55148466Y-77927138D01*
X54930000Y-78454561D01*
X54180600Y-78454561D01*
X54180600Y-76619309D01*
X55564561Y-75235349D01*
X55626058Y-75194258D01*
X55667149Y-75132761D01*
X55667151Y-75132759D01*
X55700972Y-75082143D01*
X56054909Y-75011740D01*
X56529577Y-74694577D01*
X56846740Y-74219909D01*
X56888684Y-74009039D01*
X60923096Y-74009039D01*
X60940633Y-74091819D01*
X61210500Y-74584896D01*
X61648517Y-74937166D01*
X62188000Y-75095000D01*
X62588000Y-75095000D01*
X62588000Y-73787000D01*
X62842000Y-73787000D01*
X62842000Y-75095000D01*
X63242000Y-75095000D01*
X63781483Y-74937166D01*
X64219500Y-74584896D01*
X64489367Y-74091819D01*
X64506904Y-74009039D01*
X64384915Y-73787000D01*
X62842000Y-73787000D01*
X62588000Y-73787000D01*
X61045085Y-73787000D01*
X60923096Y-74009039D01*
X56888684Y-74009039D01*
X56958113Y-73660000D01*
X56846740Y-73100091D01*
X56529577Y-72625423D01*
X56177242Y-72390000D01*
X56529577Y-72154577D01*
X56846740Y-71679909D01*
X56958113Y-71120000D01*
X56846740Y-70560091D01*
X56529577Y-70085423D01*
X56177242Y-69850000D01*
X56529577Y-69614577D01*
X56846740Y-69139909D01*
X56958113Y-68580000D01*
X56846740Y-68020091D01*
X56529577Y-67545423D01*
X56177242Y-67310000D01*
X56529577Y-67074577D01*
X56846740Y-66599909D01*
X56958113Y-66040000D01*
X56846740Y-65480091D01*
X56529577Y-65005423D01*
X56173501Y-64767501D01*
X56599500Y-64424896D01*
X56869367Y-63931819D01*
X56886904Y-63849039D01*
X56764915Y-63627000D01*
X55222000Y-63627000D01*
X55222000Y-63647000D01*
X54968000Y-63647000D01*
X54968000Y-63627000D01*
X54948000Y-63627000D01*
X54948000Y-63373000D01*
X54968000Y-63373000D01*
X54968000Y-63353000D01*
X55222000Y-63353000D01*
X55222000Y-63373000D01*
X56764915Y-63373000D01*
X56886904Y-63150961D01*
X56869367Y-63068181D01*
X56599500Y-62575104D01*
X56173501Y-62232499D01*
X56529577Y-61994577D01*
X56846740Y-61519909D01*
X56958113Y-60960000D01*
X56846740Y-60400091D01*
X56529577Y-59925423D01*
X56177242Y-59690000D01*
X56529577Y-59454577D01*
X56737268Y-59143745D01*
X56887507Y-59113861D01*
X57131158Y-58951058D01*
X57172251Y-58889558D01*
X60715210Y-55346600D01*
X60867560Y-55346600D01*
X60867560Y-56680000D01*
M02*
