%TF.GenerationSoftware,KiCad,Pcbnew,5.0.2-bee76a0~70~ubuntu16.04.1*%
%TF.CreationDate,2019-05-23T19:14:39-07:00*%
%TF.ProjectId,vfd_driver,7666645f-6472-4697-9665-722e6b696361,rev?*%
%TF.SameCoordinates,Original*%
%TF.FileFunction,Legend,Top*%
%TF.FilePolarity,Positive*%
%FSLAX46Y46*%
G04 Gerber Fmt 4.6, Leading zero omitted, Abs format (unit mm)*
G04 Created by KiCad (PCBNEW 5.0.2-bee76a0~70~ubuntu16.04.1) date Thu 23 May 2019 07:14:39 PM PDT*
%MOMM*%
%LPD*%
G01*
G04 APERTURE LIST*
%ADD10C,0.300000*%
%ADD11C,0.120000*%
%ADD12C,0.150000*%
G04 APERTURE END LIST*
D10*
X89602571Y-174233714D02*
X91102571Y-173733714D01*
X89602571Y-173233714D01*
X90316857Y-172233714D02*
X90316857Y-172733714D01*
X91102571Y-172733714D02*
X89602571Y-172733714D01*
X89602571Y-172019428D01*
X91102571Y-171448000D02*
X89602571Y-171448000D01*
X89602571Y-171090857D01*
X89674000Y-170876571D01*
X89816857Y-170733714D01*
X89959714Y-170662285D01*
X90245428Y-170590857D01*
X90459714Y-170590857D01*
X90745428Y-170662285D01*
X90888285Y-170733714D01*
X91031142Y-170876571D01*
X91102571Y-171090857D01*
X91102571Y-171448000D01*
X91102571Y-168805142D02*
X89602571Y-168805142D01*
X89602571Y-168448000D01*
X89674000Y-168233714D01*
X89816857Y-168090857D01*
X89959714Y-168019428D01*
X90245428Y-167948000D01*
X90459714Y-167948000D01*
X90745428Y-168019428D01*
X90888285Y-168090857D01*
X91031142Y-168233714D01*
X91102571Y-168448000D01*
X91102571Y-168805142D01*
X91102571Y-167305142D02*
X90102571Y-167305142D01*
X90388285Y-167305142D02*
X90245428Y-167233714D01*
X90174000Y-167162285D01*
X90102571Y-167019428D01*
X90102571Y-166876571D01*
X91102571Y-166376571D02*
X90102571Y-166376571D01*
X89602571Y-166376571D02*
X89674000Y-166448000D01*
X89745428Y-166376571D01*
X89674000Y-166305142D01*
X89602571Y-166376571D01*
X89745428Y-166376571D01*
X90102571Y-165805142D02*
X91102571Y-165448000D01*
X90102571Y-165090857D01*
X91031142Y-163948000D02*
X91102571Y-164090857D01*
X91102571Y-164376571D01*
X91031142Y-164519428D01*
X90888285Y-164590857D01*
X90316857Y-164590857D01*
X90174000Y-164519428D01*
X90102571Y-164376571D01*
X90102571Y-164090857D01*
X90174000Y-163948000D01*
X90316857Y-163876571D01*
X90459714Y-163876571D01*
X90602571Y-164590857D01*
X91102571Y-163233714D02*
X90102571Y-163233714D01*
X90388285Y-163233714D02*
X90245428Y-163162285D01*
X90174000Y-163090857D01*
X90102571Y-162948000D01*
X90102571Y-162805142D01*
X90102571Y-161305142D02*
X91102571Y-160948000D01*
X90102571Y-160590857D01*
X91102571Y-159233714D02*
X91102571Y-160090857D01*
X91102571Y-159662285D02*
X89602571Y-159662285D01*
X89816857Y-159805142D01*
X89959714Y-159948000D01*
X90031142Y-160090857D01*
X90959714Y-158590857D02*
X91031142Y-158519428D01*
X91102571Y-158590857D01*
X91031142Y-158662285D01*
X90959714Y-158590857D01*
X91102571Y-158590857D01*
X89602571Y-157590857D02*
X89602571Y-157448000D01*
X89674000Y-157305142D01*
X89745428Y-157233714D01*
X89888285Y-157162285D01*
X90174000Y-157090857D01*
X90531142Y-157090857D01*
X90816857Y-157162285D01*
X90959714Y-157233714D01*
X91031142Y-157305142D01*
X91102571Y-157448000D01*
X91102571Y-157590857D01*
X91031142Y-157733714D01*
X90959714Y-157805142D01*
X90816857Y-157876571D01*
X90531142Y-157948000D01*
X90174000Y-157948000D01*
X89888285Y-157876571D01*
X89745428Y-157805142D01*
X89674000Y-157733714D01*
X89602571Y-157590857D01*
X90531142Y-155305142D02*
X90531142Y-154162285D01*
X89602571Y-151876571D02*
X90674000Y-151876571D01*
X90888285Y-151948000D01*
X91031142Y-152090857D01*
X91102571Y-152305142D01*
X91102571Y-152448000D01*
X91102571Y-150519428D02*
X90316857Y-150519428D01*
X90174000Y-150590857D01*
X90102571Y-150733714D01*
X90102571Y-151019428D01*
X90174000Y-151162285D01*
X91031142Y-150519428D02*
X91102571Y-150662285D01*
X91102571Y-151019428D01*
X91031142Y-151162285D01*
X90888285Y-151233714D01*
X90745428Y-151233714D01*
X90602571Y-151162285D01*
X90531142Y-151019428D01*
X90531142Y-150662285D01*
X90459714Y-150519428D01*
X91031142Y-149162285D02*
X91102571Y-149305142D01*
X91102571Y-149590857D01*
X91031142Y-149733714D01*
X90959714Y-149805142D01*
X90816857Y-149876571D01*
X90388285Y-149876571D01*
X90245428Y-149805142D01*
X90174000Y-149733714D01*
X90102571Y-149590857D01*
X90102571Y-149305142D01*
X90174000Y-149162285D01*
X91102571Y-148305142D02*
X91031142Y-148448000D01*
X90959714Y-148519428D01*
X90816857Y-148590857D01*
X90388285Y-148590857D01*
X90245428Y-148519428D01*
X90174000Y-148448000D01*
X90102571Y-148305142D01*
X90102571Y-148090857D01*
X90174000Y-147948000D01*
X90245428Y-147876571D01*
X90388285Y-147805142D01*
X90816857Y-147805142D01*
X90959714Y-147876571D01*
X91031142Y-147948000D01*
X91102571Y-148090857D01*
X91102571Y-148305142D01*
X91102571Y-147162285D02*
X89602571Y-147162285D01*
X90174000Y-147162285D02*
X90102571Y-147019428D01*
X90102571Y-146733714D01*
X90174000Y-146590857D01*
X90245428Y-146519428D01*
X90388285Y-146448000D01*
X90816857Y-146448000D01*
X90959714Y-146519428D01*
X91031142Y-146590857D01*
X91102571Y-146733714D01*
X91102571Y-147019428D01*
X91031142Y-147162285D01*
X91102571Y-144662285D02*
X89602571Y-144662285D01*
X91102571Y-143805142D02*
X90245428Y-144448000D01*
X89602571Y-143805142D02*
X90459714Y-144662285D01*
X91102571Y-143162285D02*
X90102571Y-143162285D01*
X89602571Y-143162285D02*
X89674000Y-143233714D01*
X89745428Y-143162285D01*
X89674000Y-143090857D01*
X89602571Y-143162285D01*
X89745428Y-143162285D01*
X91102571Y-142233714D02*
X91031142Y-142376571D01*
X90888285Y-142448000D01*
X89602571Y-142448000D01*
X91102571Y-141448000D02*
X91031142Y-141590857D01*
X90888285Y-141662285D01*
X89602571Y-141662285D01*
X91031142Y-140305142D02*
X91102571Y-140448000D01*
X91102571Y-140733714D01*
X91031142Y-140876571D01*
X90888285Y-140948000D01*
X90316857Y-140948000D01*
X90174000Y-140876571D01*
X90102571Y-140733714D01*
X90102571Y-140448000D01*
X90174000Y-140305142D01*
X90316857Y-140233714D01*
X90459714Y-140233714D01*
X90602571Y-140948000D01*
X91102571Y-139376571D02*
X91031142Y-139519428D01*
X90888285Y-139590857D01*
X89602571Y-139590857D01*
X91031142Y-138233714D02*
X91102571Y-138376571D01*
X91102571Y-138662285D01*
X91031142Y-138805142D01*
X90888285Y-138876571D01*
X90316857Y-138876571D01*
X90174000Y-138805142D01*
X90102571Y-138662285D01*
X90102571Y-138376571D01*
X90174000Y-138233714D01*
X90316857Y-138162285D01*
X90459714Y-138162285D01*
X90602571Y-138876571D01*
X91102571Y-136876571D02*
X90316857Y-136876571D01*
X90174000Y-136948000D01*
X90102571Y-137090857D01*
X90102571Y-137376571D01*
X90174000Y-137519428D01*
X91031142Y-136876571D02*
X91102571Y-137019428D01*
X91102571Y-137376571D01*
X91031142Y-137519428D01*
X90888285Y-137590857D01*
X90745428Y-137590857D01*
X90602571Y-137519428D01*
X90531142Y-137376571D01*
X90531142Y-137019428D01*
X90459714Y-136876571D01*
D11*
X73355000Y-39450000D02*
X73355000Y-30650000D01*
X73355000Y-30650000D02*
X82555000Y-30650000D01*
X76055000Y-45350000D02*
X73355000Y-45350000D01*
X73355000Y-45350000D02*
X73355000Y-43450000D01*
X82555000Y-30650000D02*
X82555000Y-45350000D01*
X82555000Y-45350000D02*
X79955000Y-45350000D01*
X55670000Y-37930000D02*
X65950000Y-37930000D01*
X65950000Y-37930000D02*
X65950000Y-35270000D01*
X65950000Y-35270000D02*
X55670000Y-35270000D01*
X55670000Y-35270000D02*
X55670000Y-37930000D01*
X56620000Y-35270000D02*
X56620000Y-29270000D01*
X56620000Y-29270000D02*
X57380000Y-29270000D01*
X57380000Y-29270000D02*
X57380000Y-35270000D01*
X56680000Y-35270000D02*
X56680000Y-29270000D01*
X56800000Y-35270000D02*
X56800000Y-29270000D01*
X56920000Y-35270000D02*
X56920000Y-29270000D01*
X57040000Y-35270000D02*
X57040000Y-29270000D01*
X57160000Y-35270000D02*
X57160000Y-29270000D01*
X57280000Y-35270000D02*
X57280000Y-29270000D01*
X56620000Y-38260000D02*
X56620000Y-37930000D01*
X57380000Y-38260000D02*
X57380000Y-37930000D01*
X58270000Y-37930000D02*
X58270000Y-35270000D01*
X59160000Y-35270000D02*
X59160000Y-29270000D01*
X59160000Y-29270000D02*
X59920000Y-29270000D01*
X59920000Y-29270000D02*
X59920000Y-35270000D01*
X59160000Y-38327071D02*
X59160000Y-37930000D01*
X59920000Y-38327071D02*
X59920000Y-37930000D01*
X60810000Y-37930000D02*
X60810000Y-35270000D01*
X61700000Y-35270000D02*
X61700000Y-29270000D01*
X61700000Y-29270000D02*
X62460000Y-29270000D01*
X62460000Y-29270000D02*
X62460000Y-35270000D01*
X61700000Y-38327071D02*
X61700000Y-37930000D01*
X62460000Y-38327071D02*
X62460000Y-37930000D01*
X63350000Y-37930000D02*
X63350000Y-35270000D01*
X64240000Y-35270000D02*
X64240000Y-29270000D01*
X64240000Y-29270000D02*
X65000000Y-29270000D01*
X65000000Y-29270000D02*
X65000000Y-35270000D01*
X64240000Y-38327071D02*
X64240000Y-37930000D01*
X65000000Y-38327071D02*
X65000000Y-37930000D01*
X57000000Y-40640000D02*
X55730000Y-40640000D01*
X55730000Y-40640000D02*
X55730000Y-39370000D01*
X64500000Y-173395000D02*
X64500000Y-163155000D01*
X73990000Y-173395000D02*
X73990000Y-163155000D01*
X64500000Y-173395000D02*
X73990000Y-173395000D01*
X64500000Y-163155000D02*
X73990000Y-163155000D01*
X80390000Y-173395000D02*
X80390000Y-172195000D01*
X80390000Y-170996000D02*
X80390000Y-169795000D01*
X80390000Y-168595000D02*
X80390000Y-167395000D01*
X80390000Y-166195000D02*
X80390000Y-164995000D01*
X80390000Y-163795000D02*
X80390000Y-163155000D01*
X74230000Y-173395000D02*
X75430000Y-173395000D01*
X76630000Y-173395000D02*
X77830000Y-173395000D01*
X79030000Y-173395000D02*
X80230000Y-173395000D01*
X74230000Y-163155000D02*
X75430000Y-163155000D01*
X76630000Y-163155000D02*
X77830000Y-163155000D01*
X79030000Y-163155000D02*
X80230000Y-163155000D01*
X61860000Y-170815000D02*
X64500000Y-170815000D01*
X61876000Y-168275000D02*
X64500000Y-168275000D01*
X61876000Y-165735000D02*
X64500000Y-165735000D01*
D12*
X78740000Y-151130000D02*
X55880000Y-151130000D01*
X78740000Y-54610000D02*
X78740000Y-151130000D01*
X55880000Y-54610000D02*
X78740000Y-54610000D01*
X55880000Y-151130000D02*
X55880000Y-54610000D01*
D11*
X86080000Y-83355000D02*
X88880000Y-83355000D01*
X88880000Y-83355000D02*
X88880000Y-62695000D01*
X88880000Y-62695000D02*
X86080000Y-62695000D01*
X86080000Y-62695000D02*
X86080000Y-83355000D01*
X86080000Y-80645000D02*
X88880000Y-80645000D01*
X86230000Y-105580000D02*
X89030000Y-105580000D01*
X89030000Y-105580000D02*
X89030000Y-84920000D01*
X89030000Y-84920000D02*
X86230000Y-84920000D01*
X86230000Y-84920000D02*
X86230000Y-105580000D01*
X86230000Y-102870000D02*
X89030000Y-102870000D01*
X86080000Y-127805000D02*
X88880000Y-127805000D01*
X88880000Y-127805000D02*
X88880000Y-107145000D01*
X88880000Y-107145000D02*
X86080000Y-107145000D01*
X86080000Y-107145000D02*
X86080000Y-127805000D01*
X86080000Y-125095000D02*
X88880000Y-125095000D01*
X86080000Y-150030000D02*
X88880000Y-150030000D01*
X88880000Y-150030000D02*
X88880000Y-129370000D01*
X88880000Y-129370000D02*
X86080000Y-129370000D01*
X86080000Y-129370000D02*
X86080000Y-150030000D01*
X86080000Y-147320000D02*
X88880000Y-147320000D01*
D12*
X71657380Y-36333333D02*
X72371666Y-36333333D01*
X72514523Y-36380952D01*
X72609761Y-36476190D01*
X72657380Y-36619047D01*
X72657380Y-36714285D01*
X72657380Y-35333333D02*
X72657380Y-35904761D01*
X72657380Y-35619047D02*
X71657380Y-35619047D01*
X71800238Y-35714285D01*
X71895476Y-35809523D01*
X71943095Y-35904761D01*
X54182380Y-35318333D02*
X54896666Y-35318333D01*
X55039523Y-35365952D01*
X55134761Y-35461190D01*
X55182380Y-35604047D01*
X55182380Y-35699285D01*
X54277619Y-34889761D02*
X54230000Y-34842142D01*
X54182380Y-34746904D01*
X54182380Y-34508809D01*
X54230000Y-34413571D01*
X54277619Y-34365952D01*
X54372857Y-34318333D01*
X54468095Y-34318333D01*
X54610952Y-34365952D01*
X55182380Y-34937380D01*
X55182380Y-34318333D01*
X80842380Y-169036904D02*
X81651904Y-169036904D01*
X81747142Y-168989285D01*
X81794761Y-168941666D01*
X81842380Y-168846428D01*
X81842380Y-168655952D01*
X81794761Y-168560714D01*
X81747142Y-168513095D01*
X81651904Y-168465476D01*
X80842380Y-168465476D01*
X81842380Y-167941666D02*
X81842380Y-167751190D01*
X81794761Y-167655952D01*
X81747142Y-167608333D01*
X81604285Y-167513095D01*
X81413809Y-167465476D01*
X81032857Y-167465476D01*
X80937619Y-167513095D01*
X80890000Y-167560714D01*
X80842380Y-167655952D01*
X80842380Y-167846428D01*
X80890000Y-167941666D01*
X80937619Y-167989285D01*
X81032857Y-168036904D01*
X81270952Y-168036904D01*
X81366190Y-167989285D01*
X81413809Y-167941666D01*
X81461428Y-167846428D01*
X81461428Y-167655952D01*
X81413809Y-167560714D01*
X81366190Y-167513095D01*
X81270952Y-167465476D01*
X52792380Y-149828095D02*
X53601904Y-149828095D01*
X53697142Y-149780476D01*
X53744761Y-149732857D01*
X53792380Y-149637619D01*
X53792380Y-149447142D01*
X53744761Y-149351904D01*
X53697142Y-149304285D01*
X53601904Y-149256666D01*
X52792380Y-149256666D01*
X53792380Y-148256666D02*
X53792380Y-148828095D01*
X53792380Y-148542380D02*
X52792380Y-148542380D01*
X52935238Y-148637619D01*
X53030476Y-148732857D01*
X53078095Y-148828095D01*
X52792380Y-147637619D02*
X52792380Y-147542380D01*
X52840000Y-147447142D01*
X52887619Y-147399523D01*
X52982857Y-147351904D01*
X53173333Y-147304285D01*
X53411428Y-147304285D01*
X53601904Y-147351904D01*
X53697142Y-147399523D01*
X53744761Y-147447142D01*
X53792380Y-147542380D01*
X53792380Y-147637619D01*
X53744761Y-147732857D01*
X53697142Y-147780476D01*
X53601904Y-147828095D01*
X53411428Y-147875714D01*
X53173333Y-147875714D01*
X52982857Y-147828095D01*
X52887619Y-147780476D01*
X52840000Y-147732857D01*
X52792380Y-147637619D01*
X85532380Y-72445476D02*
X85056190Y-72778809D01*
X85532380Y-73016904D02*
X84532380Y-73016904D01*
X84532380Y-72635952D01*
X84580000Y-72540714D01*
X84627619Y-72493095D01*
X84722857Y-72445476D01*
X84865714Y-72445476D01*
X84960952Y-72493095D01*
X85008571Y-72540714D01*
X85056190Y-72635952D01*
X85056190Y-73016904D01*
X85532380Y-72016904D02*
X84532380Y-72016904D01*
X85532380Y-71445476D01*
X84532380Y-71445476D01*
X85532380Y-70445476D02*
X85532380Y-71016904D01*
X85532380Y-70731190D02*
X84532380Y-70731190D01*
X84675238Y-70826428D01*
X84770476Y-70921666D01*
X84818095Y-71016904D01*
X85682380Y-94670476D02*
X85206190Y-95003809D01*
X85682380Y-95241904D02*
X84682380Y-95241904D01*
X84682380Y-94860952D01*
X84730000Y-94765714D01*
X84777619Y-94718095D01*
X84872857Y-94670476D01*
X85015714Y-94670476D01*
X85110952Y-94718095D01*
X85158571Y-94765714D01*
X85206190Y-94860952D01*
X85206190Y-95241904D01*
X85682380Y-94241904D02*
X84682380Y-94241904D01*
X85682380Y-93670476D01*
X84682380Y-93670476D01*
X84777619Y-93241904D02*
X84730000Y-93194285D01*
X84682380Y-93099047D01*
X84682380Y-92860952D01*
X84730000Y-92765714D01*
X84777619Y-92718095D01*
X84872857Y-92670476D01*
X84968095Y-92670476D01*
X85110952Y-92718095D01*
X85682380Y-93289523D01*
X85682380Y-92670476D01*
X85532380Y-116895476D02*
X85056190Y-117228809D01*
X85532380Y-117466904D02*
X84532380Y-117466904D01*
X84532380Y-117085952D01*
X84580000Y-116990714D01*
X84627619Y-116943095D01*
X84722857Y-116895476D01*
X84865714Y-116895476D01*
X84960952Y-116943095D01*
X85008571Y-116990714D01*
X85056190Y-117085952D01*
X85056190Y-117466904D01*
X85532380Y-116466904D02*
X84532380Y-116466904D01*
X85532380Y-115895476D01*
X84532380Y-115895476D01*
X84532380Y-115514523D02*
X84532380Y-114895476D01*
X84913333Y-115228809D01*
X84913333Y-115085952D01*
X84960952Y-114990714D01*
X85008571Y-114943095D01*
X85103809Y-114895476D01*
X85341904Y-114895476D01*
X85437142Y-114943095D01*
X85484761Y-114990714D01*
X85532380Y-115085952D01*
X85532380Y-115371666D01*
X85484761Y-115466904D01*
X85437142Y-115514523D01*
X85532380Y-139120476D02*
X85056190Y-139453809D01*
X85532380Y-139691904D02*
X84532380Y-139691904D01*
X84532380Y-139310952D01*
X84580000Y-139215714D01*
X84627619Y-139168095D01*
X84722857Y-139120476D01*
X84865714Y-139120476D01*
X84960952Y-139168095D01*
X85008571Y-139215714D01*
X85056190Y-139310952D01*
X85056190Y-139691904D01*
X85532380Y-138691904D02*
X84532380Y-138691904D01*
X85532380Y-138120476D01*
X84532380Y-138120476D01*
X84865714Y-137215714D02*
X85532380Y-137215714D01*
X84484761Y-137453809D02*
X85199047Y-137691904D01*
X85199047Y-137072857D01*
M02*
