M48
;DRILL file {KiCad 5.0.2-bee76a0~70~ubuntu16.04.1} date Thu 23 May 2019 07:14:42 PM PDT
;FORMAT={-:-/ absolute / inch / decimal}
FMAT,2
INCH,TZ
T1C0.0079
T2C0.0300
T3C0.0315
T4C0.0394
%
G90
G05
T1
X2.8941Y-3.99
X2.8941Y-4.05
T2
X3.2Y-2.45
X3.2Y-2.65
X3.2Y-2.75
X3.2Y-2.85
X3.2Y-2.95
X3.2Y-3.05
X3.2Y-3.15
X3.2Y-3.25
X3.2Y-3.35
X3.2Y-3.45
X3.2Y-3.55
X3.2Y-3.65
X3.2Y-3.75
X3.2Y-4.05
X3.2Y-4.15
X3.2Y-4.25
X3.2Y-4.35
X3.2Y-4.45
X3.2Y-4.55
X3.2Y-4.65
X3.2Y-4.75
X3.2Y-4.85
X3.2Y-4.95
X3.2Y-5.05
X3.2Y-5.15
X3.2Y-5.25
X3.2Y-5.35
X3.2Y-5.45
X3.2Y-5.65
T3
X2.7Y-3.2
X2.7Y-3.3
X2.7Y-3.4
X2.7Y-3.5
X2.7Y-3.6
X2.7Y-3.7
X2.7Y-3.8
X2.7Y-3.9
X2.7Y-4.
X3.Y-3.2
X3.Y-3.3
X3.Y-3.4
X3.Y-3.5
X3.Y-3.6
X3.Y-3.7
X3.Y-3.8
X3.Y-3.9
X3.Y-4.
X2.2191Y-3.1
X2.4159Y-3.1
X2.7Y-5.4
X2.7Y-5.5
X2.7Y-5.6
X2.7Y-5.7
X2.7Y-5.8
X2.7Y-5.9
X2.7Y-6.
X2.7Y-6.1
X2.7Y-6.2
X3.Y-5.4
X3.Y-5.5
X3.Y-5.6
X3.Y-5.7
X3.Y-5.8
X3.Y-5.9
X3.Y-6.
X3.Y-6.1
X3.Y-6.2
X2.2441Y-5.3
X2.4409Y-5.3
X2.1691Y-4.4
X2.1691Y-4.5
X2.1691Y-4.6
X2.1691Y-4.7
X2.1691Y-4.8
X2.1691Y-4.9
X2.1691Y-5.
X2.1691Y-5.1
X2.4691Y-4.4
X2.4691Y-4.5
X2.4691Y-4.6
X2.4691Y-4.7
X2.4691Y-4.8
X2.4691Y-4.9
X2.4691Y-5.
X2.4691Y-5.1
X3.4441Y-4.275
X3.4441Y-4.375
X3.4441Y-4.475
X3.4441Y-4.575
X3.4441Y-4.675
X3.4441Y-4.775
X3.4441Y-4.875
X3.4441Y-4.975
X3.4441Y-5.15
X3.4441Y-5.25
X3.4441Y-5.35
X3.4441Y-5.45
X3.4441Y-5.55
X3.4441Y-5.65
X3.4441Y-5.75
X3.4441Y-5.85
X2.2191Y-2.
X2.4159Y-2.
X2.7Y-4.3
X2.7Y-4.4
X2.7Y-4.5
X2.7Y-4.6
X2.7Y-4.7
X2.7Y-4.8
X2.7Y-4.9
X2.7Y-5.
X2.7Y-5.1
X3.Y-4.3
X3.Y-4.4
X3.Y-4.5
X3.Y-4.6
X3.Y-4.7
X3.Y-4.8
X3.Y-4.9
X3.Y-5.
X3.Y-5.1
X3.45Y-3.4
X3.45Y-3.5
X3.45Y-3.6
X3.45Y-3.7
X3.45Y-3.8
X3.45Y-3.9
X3.45Y-4.
X3.45Y-4.1
X2.2191Y-4.2
X2.4159Y-4.2
X2.7Y-2.1
X2.7Y-2.2
X2.7Y-2.3
X2.7Y-2.4
X2.7Y-2.5
X2.7Y-2.6
X2.7Y-2.7
X2.7Y-2.8
X2.7Y-2.9
X3.Y-2.1
X3.Y-2.2
X3.Y-2.3
X3.Y-2.4
X3.Y-2.5
X3.Y-2.6
X3.Y-2.7
X3.Y-2.8
X3.Y-2.9
X2.1691Y-2.2
X2.1691Y-2.3
X2.1691Y-2.4
X2.1691Y-2.5
X2.1691Y-2.6
X2.1691Y-2.7
X2.1691Y-2.8
X2.1691Y-2.9
X2.4691Y-2.2
X2.4691Y-2.3
X2.4691Y-2.4
X2.4691Y-2.5
X2.4691Y-2.6
X2.4691Y-2.7
X2.4691Y-2.8
X2.4691Y-2.9
X2.1941Y-5.5
X2.1941Y-5.6
X2.1941Y-5.7
X2.1941Y-5.8
X2.1941Y-5.9
X2.1941Y-6.
X2.1941Y-6.1
X2.1941Y-6.2
X2.4941Y-5.5
X2.4941Y-5.6
X2.4941Y-5.7
X2.4941Y-5.8
X2.4941Y-5.9
X2.4941Y-6.
X2.4941Y-6.1
X2.4941Y-6.2
X2.1691Y-3.3
X2.1691Y-3.4
X2.1691Y-3.5
X2.1691Y-3.6
X2.1691Y-3.7
X2.1691Y-3.8
X2.1691Y-3.9
X2.1691Y-4.
X2.4691Y-3.3
X2.4691Y-3.4
X2.4691Y-3.5
X2.4691Y-3.6
X2.4691Y-3.7
X2.4691Y-3.8
X2.4691Y-3.9
X2.4691Y-4.
X3.4441Y-2.525
X3.4441Y-2.625
X3.4441Y-2.725
X3.4441Y-2.825
X3.4441Y-2.925
X3.4441Y-3.025
X3.4441Y-3.125
X3.4441Y-3.225
T4
X2.3941Y-6.525
X2.3941Y-6.625
X2.3941Y-6.725
X2.2441Y-1.55
X2.3441Y-1.55
X2.4441Y-1.55
X2.5441Y-1.55
T4
X2.8841Y-1.5925G85X2.8841Y-1.6713
G05
X3.1085Y-1.5138G85X3.0297Y-1.5138
G05
X3.1085Y-1.75G85X3.0297Y-1.75
G05
T0
M30
